<?xml version="1.0" encoding="utf-8" standalone="no"?>
<!DOCTYPE svg PUBLIC "-//W3C//DTD SVG 1.1//EN"
  "http://www.w3.org/Graphics/SVG/1.1/DTD/svg11.dtd">
<svg xmlns:xlink="http://www.w3.org/1999/xlink" width="1293.039071pt" height="1247.009934pt" viewBox="0 0 1293.039071 1247.009934" xmlns="http://www.w3.org/2000/svg" version="1.1">
 <metadata>
  <rdf:RDF xmlns:dc="http://purl.org/dc/elements/1.1/" xmlns:cc="http://creativecommons.org/ns#" xmlns:rdf="http://www.w3.org/1999/02/22-rdf-syntax-ns#">
   <cc:Work>
    <dc:type rdf:resource="http://purl.org/dc/dcmitype/StillImage"/>
    <dc:date>2024-12-19T08:54:17.879771</dc:date>
    <dc:format>image/svg+xml</dc:format>
    <dc:creator>
     <cc:Agent>
      <dc:title>Matplotlib v3.9.2, https://matplotlib.org/</dc:title>
     </cc:Agent>
    </dc:creator>
   </cc:Work>
  </rdf:RDF>
 </metadata>
 <defs>
  <style type="text/css">*{stroke-linejoin: round; stroke-linecap: butt}</style>
 </defs>
 <g id="figure_1">
  <g id="patch_1">
   <path d="M 0 1247.009934 
L 1293.039071 1247.009934 
L 1293.039071 0 
L 0 0 
z
" style="fill: #ffffff"/>
  </g>
  <g id="axes_1">
   <g id="patch_2">
    <path d="M 169.839071 1116 
L 1285.839071 1116 
L 1285.839071 7.2 
L 169.839071 7.2 
L 169.839071 1116 
z
" style="fill: none; opacity: 0"/>
   </g>
   <g id="PathCollection_1">
    <defs>
     <path id="C0_0_68bc12e5aa" d="M 0 5 
C 1.326016 5 2.597899 4.473168 3.535534 3.535534 
C 4.473168 2.597899 5 1.326016 5 -0 
C 5 -1.326016 4.473168 -2.597899 3.535534 -3.535534 
C 2.597899 -4.473168 1.326016 -5 0 -5 
C -1.326016 -5 -2.597899 -4.473168 -3.535534 -3.535534 
C -4.473168 -2.597899 -5 -1.326016 -5 0 
C -5 1.326016 -4.473168 2.597899 -3.535534 3.535534 
C -2.597899 4.473168 -1.326016 5 0 5 
z
"/>
    </defs>
    <g clip-path="url(#pb4bb513f93)">
     <use xlink:href="#C0_0_68bc12e5aa" x="169.839071" y="466.683676" style="fill: none; stroke: #808080; stroke-opacity: 0.3"/>
    </g>
    <g clip-path="url(#pb4bb513f93)">
     <use xlink:href="#C0_0_68bc12e5aa" x="178.209071" y="471.860893" style="fill: none; stroke: #808080; stroke-opacity: 0.3"/>
    </g>
   </g>
   <g id="PathCollection_2">
    <path d="M 213.199071 426.950864 
L 223.199071 426.950864 
L 223.199071 416.950864 
L 213.199071 416.950864 
L 213.199071 426.950864 
z
" clip-path="url(#pb4bb513f93)" style="fill: none; stroke: #808080; stroke-opacity: 0.3"/>
    <path d="M 220.639071 433.762778 
L 230.639071 433.762778 
L 230.639071 423.762778 
L 220.639071 423.762778 
L 220.639071 433.762778 
z
" clip-path="url(#pb4bb513f93)" style="fill: none; stroke: #808080; stroke-opacity: 0.3"/>
   </g>
   <g id="PathCollection_3">
    <path d="M 245.169071 406.015533 
C 246.495087 406.015533 247.766971 405.488702 248.704605 404.551067 
C 249.64224 403.613433 250.169071 402.341549 250.169071 401.015533 
C 250.169071 399.689518 249.64224 398.417634 248.704605 397.479999 
C 247.766971 396.542365 246.495087 396.015533 245.169071 396.015533 
C 243.843056 396.015533 242.571172 396.542365 241.633537 397.479999 
C 240.695903 398.417634 240.169071 399.689518 240.169071 401.015533 
C 240.169071 402.341549 240.695903 403.613433 241.633537 404.551067 
C 242.571172 405.488702 243.843056 406.015533 245.169071 406.015533 
L 245.169071 406.015533 
z
" clip-path="url(#pb4bb513f93)" style="fill: none; stroke: #808080; stroke-opacity: 0.3"/>
   </g>
   <g id="PathCollection_4">
    <path d="M 244.819071 400.360478 
L 254.819071 400.360478 
L 254.819071 390.360478 
L 244.819071 390.360478 
L 244.819071 400.360478 
z
" clip-path="url(#pb4bb513f93)" style="fill: none; stroke: #808080; stroke-opacity: 0.3"/>
   </g>
   <g id="PathCollection_5">
    <path d="M 254.469071 394.529703 
C 255.795087 394.529703 257.066971 394.002871 258.004605 393.065237 
C 258.94224 392.127602 259.469071 390.855718 259.469071 389.529703 
C 259.469071 388.203687 258.94224 386.931804 258.004605 385.994169 
C 257.066971 385.056534 255.795087 384.529703 254.469071 384.529703 
C 253.143056 384.529703 251.871172 385.056534 250.933537 385.994169 
C 249.995903 386.931804 249.469071 388.203687 249.469071 389.529703 
C 249.469071 390.855718 249.995903 392.127602 250.933537 393.065237 
C 251.871172 394.002871 253.143056 394.529703 254.469071 394.529703 
L 254.469071 394.529703 
z
" clip-path="url(#pb4bb513f93)" style="fill: none; stroke: #808080; stroke-opacity: 0.3"/>
   </g>
   <g id="PathCollection_6">
    <path d="M 250.399071 393.37789 
L 260.399071 393.37789 
L 260.399071 383.37789 
L 250.399071 383.37789 
L 250.399071 393.37789 
z
" clip-path="url(#pb4bb513f93)" style="fill: none; stroke: #808080; stroke-opacity: 0.3"/>
   </g>
   <g id="PathCollection_7">
    <defs>
     <path id="C1_0_8c4f84313c" d="M 0 5 
C 1.326016 5 2.597899 4.473168 3.535534 3.535534 
C 4.473168 2.597899 5 1.326016 5 -0 
C 5 -1.326016 4.473168 -2.597899 3.535534 -3.535534 
C 2.597899 -4.473168 1.326016 -5 0 -5 
C -1.326016 -5 -2.597899 -4.473168 -3.535534 -3.535534 
C -4.473168 -2.597899 -5 -1.326016 -5 0 
C -5 1.326016 -4.473168 2.597899 -3.535534 3.535534 
C -2.597899 4.473168 -1.326016 5 0 5 
z
"/>
    </defs>
    <g clip-path="url(#pb4bb513f93)">
     <use xlink:href="#C1_0_8c4f84313c" x="178.209071" y="471.860893" style="fill: none; stroke: #808080; stroke-opacity: 0.3"/>
    </g>
    <g clip-path="url(#pb4bb513f93)">
     <use xlink:href="#C1_0_8c4f84313c" x="180.999071" y="474.464065" style="fill: none; stroke: #808080; stroke-opacity: 0.3"/>
    </g>
   </g>
   <g id="PathCollection_8">
    <path d="M 220.639071 433.762778 
L 230.639071 433.762778 
L 230.639071 423.762778 
L 220.639071 423.762778 
L 220.639071 433.762778 
z
" clip-path="url(#pb4bb513f93)" style="fill: none; stroke: #808080; stroke-opacity: 0.3"/>
    <path d="M 223.429071 436.154736 
L 233.429071 436.154736 
L 233.429071 426.154736 
L 223.429071 426.154736 
L 223.429071 436.154736 
z
" clip-path="url(#pb4bb513f93)" style="fill: none; stroke: #808080; stroke-opacity: 0.3"/>
   </g>
   <g id="PathCollection_9">
    <path d="M 245.169071 406.015533 
C 246.495087 406.015533 247.766971 405.488702 248.704605 404.551067 
C 249.64224 403.613433 250.169071 402.341549 250.169071 401.015533 
C 250.169071 399.689518 249.64224 398.417634 248.704605 397.479999 
C 247.766971 396.542365 246.495087 396.015533 245.169071 396.015533 
C 243.843056 396.015533 242.571172 396.542365 241.633537 397.479999 
C 240.695903 398.417634 240.169071 399.689518 240.169071 401.015533 
C 240.169071 402.341549 240.695903 403.613433 241.633537 404.551067 
C 242.571172 405.488702 243.843056 406.015533 245.169071 406.015533 
L 245.169071 406.015533 
z
" clip-path="url(#pb4bb513f93)" style="fill: none; stroke: #808080; stroke-opacity: 0.3"/>
   </g>
   <g id="PathCollection_10">
    <path d="M 244.819071 400.360478 
L 254.819071 400.360478 
L 254.819071 390.360478 
L 244.819071 390.360478 
L 244.819071 400.360478 
z
" clip-path="url(#pb4bb513f93)" style="fill: none; stroke: #808080; stroke-opacity: 0.3"/>
   </g>
   <g id="PathCollection_11">
    <path d="M 247.029071 410.514959 
C 248.355087 410.514959 249.626971 409.988128 250.564605 409.050493 
C 251.50224 408.112859 252.029071 406.840975 252.029071 405.514959 
C 252.029071 404.188944 251.50224 402.91706 250.564605 401.979426 
C 249.626971 401.041791 248.355087 400.514959 247.029071 400.514959 
C 245.703056 400.514959 244.431172 401.041791 243.493537 401.979426 
C 242.555903 402.91706 242.029071 404.188944 242.029071 405.514959 
C 242.029071 406.840975 242.555903 408.112859 243.493537 409.050493 
C 244.431172 409.988128 245.703056 410.514959 247.029071 410.514959 
L 247.029071 410.514959 
z
" clip-path="url(#pb4bb513f93)" style="fill: none; stroke: #808080; stroke-opacity: 0.3"/>
   </g>
   <g id="PathCollection_12">
    <path d="M 256.909071 392.518443 
L 266.909071 392.518443 
L 266.909071 382.518443 
L 256.909071 382.518443 
L 256.909071 392.518443 
z
" clip-path="url(#pb4bb513f93)" style="fill: none; stroke: #808080; stroke-opacity: 0.3"/>
   </g>
   <g id="PathCollection_13">
    <path d="M 254.469071 394.529703 
C 255.795087 394.529703 257.066971 394.002871 258.004605 393.065237 
C 258.94224 392.127602 259.469071 390.855718 259.469071 389.529703 
C 259.469071 388.203687 258.94224 386.931804 258.004605 385.994169 
C 257.066971 385.056534 255.795087 384.529703 254.469071 384.529703 
C 253.143056 384.529703 251.871172 385.056534 250.933537 385.994169 
C 249.995903 386.931804 249.469071 388.203687 249.469071 389.529703 
C 249.469071 390.855718 249.995903 392.127602 250.933537 393.065237 
C 251.871172 394.002871 253.143056 394.529703 254.469071 394.529703 
L 254.469071 394.529703 
z
" clip-path="url(#pb4bb513f93)" style="fill: none; stroke: #808080; stroke-opacity: 0.3"/>
   </g>
   <g id="PathCollection_14">
    <path d="M 250.399071 393.37789 
L 260.399071 393.37789 
L 260.399071 383.37789 
L 250.399071 383.37789 
L 250.399071 393.37789 
z
" clip-path="url(#pb4bb513f93)" style="fill: none; stroke: #808080; stroke-opacity: 0.3"/>
   </g>
   <g id="PathCollection_15">
    <path d="M 231.219071 432.63725 
C 232.545087 432.63725 233.816971 432.110418 234.754605 431.172784 
C 235.69224 430.235149 236.219071 428.963265 236.219071 427.63725 
C 236.219071 426.311234 235.69224 425.039351 234.754605 424.101716 
C 233.816971 423.164082 232.545087 422.63725 231.219071 422.63725 
C 229.893056 422.63725 228.621172 423.164082 227.683537 424.101716 
C 226.745903 425.039351 226.219071 426.311234 226.219071 427.63725 
C 226.219071 428.963265 226.745903 430.235149 227.683537 431.172784 
C 228.621172 432.110418 229.893056 432.63725 231.219071 432.63725 
L 231.219071 432.63725 
z
" clip-path="url(#pb4bb513f93)" style="fill: none; stroke: #808080; stroke-opacity: 0.3"/>
   </g>
   <g id="PathCollection_16">
    <path d="M 229.939071 428.130148 
L 239.939071 428.130148 
L 239.939071 418.130148 
L 229.939071 418.130148 
L 229.939071 428.130148 
z
" clip-path="url(#pb4bb513f93)" style="fill: none; stroke: #808080; stroke-opacity: 0.3"/>
   </g>
   <g id="PathCollection_17">
    <path d="M 180.999071 479.464065 
C 182.325087 479.464065 183.596971 478.937234 184.534605 477.999599 
C 185.47224 477.061965 185.999071 475.790081 185.999071 474.464065 
C 185.999071 473.13805 185.47224 471.866166 184.534605 470.928532 
C 183.596971 469.990897 182.325087 469.464065 180.999071 469.464065 
C 179.673056 469.464065 178.401172 469.990897 177.463537 470.928532 
C 176.525903 471.866166 175.999071 473.13805 175.999071 474.464065 
C 175.999071 475.790081 176.525903 477.061965 177.463537 477.999599 
C 178.401172 478.937234 179.673056 479.464065 180.999071 479.464065 
L 180.999071 479.464065 
z
" clip-path="url(#pb4bb513f93)" style="fill: none; stroke: #808080; stroke-opacity: 0.3"/>
   </g>
   <g id="PathCollection_18">
    <path d="M 223.429071 436.154736 
L 233.429071 436.154736 
L 233.429071 426.154736 
L 223.429071 426.154736 
L 223.429071 436.154736 
z
" clip-path="url(#pb4bb513f93)" style="fill: none; stroke: #808080; stroke-opacity: 0.3"/>
   </g>
   <g id="PathCollection_19">
    <path d="M 185.649071 480.105204 
C 186.975087 480.105204 188.246971 479.578373 189.184605 478.640738 
C 190.12224 477.703104 190.649071 476.43122 190.649071 475.105204 
C 190.649071 473.779189 190.12224 472.507305 189.184605 471.56967 
C 188.246971 470.632036 186.975087 470.105204 185.649071 470.105204 
C 184.323056 470.105204 183.051172 470.632036 182.113537 471.56967 
C 181.175903 472.507305 180.649071 473.779189 180.649071 475.105204 
C 180.649071 476.43122 181.175903 477.703104 182.113537 478.640738 
C 183.051172 479.578373 184.323056 480.105204 185.649071 480.105204 
L 185.649071 480.105204 
z
" clip-path="url(#pb4bb513f93)" style="fill: none; stroke: #808080; stroke-opacity: 0.3"/>
   </g>
   <g id="PathCollection_20">
    <path d="M 233.659071 429.626232 
L 243.659071 429.626232 
L 243.659071 419.626232 
L 233.659071 419.626232 
L 233.659071 429.626232 
z
" clip-path="url(#pb4bb513f93)" style="fill: none; stroke: #808080; stroke-opacity: 0.3"/>
   </g>
   <g id="PathCollection_21">
    <path d="M 247.029071 410.514959 
C 248.355087 410.514959 249.626971 409.988128 250.564605 409.050493 
C 251.50224 408.112859 252.029071 406.840975 252.029071 405.514959 
C 252.029071 404.188944 251.50224 402.91706 250.564605 401.979426 
C 249.626971 401.041791 248.355087 400.514959 247.029071 400.514959 
C 245.703056 400.514959 244.431172 401.041791 243.493537 401.979426 
C 242.555903 402.91706 242.029071 404.188944 242.029071 405.514959 
C 242.029071 406.840975 242.555903 408.112859 243.493537 409.050493 
C 244.431172 409.988128 245.703056 410.514959 247.029071 410.514959 
L 247.029071 410.514959 
z
" clip-path="url(#pb4bb513f93)" style="fill: none; stroke: #808080; stroke-opacity: 0.3"/>
   </g>
   <g id="PathCollection_22">
    <path d="M 256.909071 392.518443 
L 266.909071 392.518443 
L 266.909071 382.518443 
L 256.909071 382.518443 
L 256.909071 392.518443 
z
" clip-path="url(#pb4bb513f93)" style="fill: none; stroke: #808080; stroke-opacity: 0.3"/>
   </g>
   <g id="PathCollection_23">
    <path d="M 248.889071 414.90389 
C 250.215087 414.90389 251.486971 414.377058 252.424605 413.439424 
C 253.36224 412.501789 253.889071 411.229905 253.889071 409.90389 
C 253.889071 408.577874 253.36224 407.30599 252.424605 406.368356 
C 251.486971 405.430721 250.215087 404.90389 248.889071 404.90389 
C 247.563056 404.90389 246.291172 405.430721 245.353537 406.368356 
C 244.415903 407.30599 243.889071 408.577874 243.889071 409.90389 
C 243.889071 411.229905 244.415903 412.501789 245.353537 413.439424 
C 246.291172 414.377058 247.563056 414.90389 248.889071 414.90389 
L 248.889071 414.90389 
z
" clip-path="url(#pb4bb513f93)" style="fill: none; stroke: #808080; stroke-opacity: 0.3"/>
   </g>
   <g id="PathCollection_24">
    <path d="M 251.329071 406.040758 
L 261.329071 406.040758 
L 261.329071 396.040758 
L 251.329071 396.040758 
L 251.329071 406.040758 
z
" clip-path="url(#pb4bb513f93)" style="fill: none; stroke: #808080; stroke-opacity: 0.3"/>
   </g>
   <g id="PathCollection_25">
    <path d="M 231.219071 432.63725 
C 232.545087 432.63725 233.816971 432.110418 234.754605 431.172784 
C 235.69224 430.235149 236.219071 428.963265 236.219071 427.63725 
C 236.219071 426.311234 235.69224 425.039351 234.754605 424.101716 
C 233.816971 423.164082 232.545087 422.63725 231.219071 422.63725 
C 229.893056 422.63725 228.621172 423.164082 227.683537 424.101716 
C 226.745903 425.039351 226.219071 426.311234 226.219071 427.63725 
C 226.219071 428.963265 226.745903 430.235149 227.683537 431.172784 
C 228.621172 432.110418 229.893056 432.63725 231.219071 432.63725 
L 231.219071 432.63725 
z
" clip-path="url(#pb4bb513f93)" style="fill: none; stroke: #808080; stroke-opacity: 0.3"/>
   </g>
   <g id="PathCollection_26">
    <path d="M 229.939071 428.130148 
L 239.939071 428.130148 
L 239.939071 418.130148 
L 229.939071 418.130148 
L 229.939071 428.130148 
z
" clip-path="url(#pb4bb513f93)" style="fill: none; stroke: #808080; stroke-opacity: 0.3"/>
   </g>
   <g id="PathCollection_27">
    <path d="M 258.189071 403.722752 
C 259.515087 403.722752 260.786971 403.195921 261.724605 402.258286 
C 262.66224 401.320652 263.189071 400.048768 263.189071 398.722752 
C 263.189071 397.396737 262.66224 396.124853 261.724605 395.187218 
C 260.786971 394.249584 259.515087 393.722752 258.189071 393.722752 
C 256.863056 393.722752 255.591172 394.249584 254.653537 395.187218 
C 253.715903 396.124853 253.189071 397.396737 253.189071 398.722752 
C 253.189071 400.048768 253.715903 401.320652 254.653537 402.258286 
C 255.591172 403.195921 256.863056 403.722752 258.189071 403.722752 
L 258.189071 403.722752 
z
" clip-path="url(#pb4bb513f93)" style="fill: none; stroke: #808080; stroke-opacity: 0.3"/>
   </g>
   <g id="PathCollection_28">
    <path d="M 258.769071 396.933588 
L 268.769071 396.933588 
L 268.769071 386.933588 
L 258.769071 386.933588 
L 258.769071 396.933588 
z
" clip-path="url(#pb4bb513f93)" style="fill: none; stroke: #808080; stroke-opacity: 0.3"/>
   </g>
   <g id="PathCollection_29">
    <defs>
     <path id="C2_0_1b6d2a4c27" d="M 0 5 
C 1.326016 5 2.597899 4.473168 3.535534 3.535534 
C 4.473168 2.597899 5 1.326016 5 -0 
C 5 -1.326016 4.473168 -2.597899 3.535534 -3.535534 
C 2.597899 -4.473168 1.326016 -5 0 -5 
C -1.326016 -5 -2.597899 -4.473168 -3.535534 -3.535534 
C -4.473168 -2.597899 -5 -1.326016 -5 0 
C -5 1.326016 -4.473168 2.597899 -3.535534 3.535534 
C -2.597899 4.473168 -1.326016 5 0 5 
z
"/>
    </defs>
    <g clip-path="url(#pb4bb513f93)">
     <use xlink:href="#C2_0_1b6d2a4c27" x="185.649071" y="475.105204" style="fill: none; stroke: #808080; stroke-opacity: 0.3"/>
    </g>
    <g clip-path="url(#pb4bb513f93)">
     <use xlink:href="#C2_0_1b6d2a4c27" x="196.809071" y="470.479591" style="fill: none; stroke: #808080; stroke-opacity: 0.3"/>
    </g>
   </g>
   <g id="PathCollection_30">
    <path d="M 233.659071 429.626232 
L 243.659071 429.626232 
L 243.659071 419.626232 
L 233.659071 419.626232 
L 233.659071 429.626232 
z
" clip-path="url(#pb4bb513f93)" style="fill: none; stroke: #808080; stroke-opacity: 0.3"/>
    <path d="M 238.309071 432.54015 
L 248.309071 432.54015 
L 248.309071 422.54015 
L 238.309071 422.54015 
L 238.309071 432.54015 
z
" clip-path="url(#pb4bb513f93)" style="fill: none; stroke: #808080; stroke-opacity: 0.3"/>
   </g>
   <g id="PathCollection_31">
    <defs>
     <path id="C3_0_65ca421b3e" d="M 0 5 
C 1.326016 5 2.597899 4.473168 3.535534 3.535534 
C 4.473168 2.597899 5 1.326016 5 -0 
C 5 -1.326016 4.473168 -2.597899 3.535534 -3.535534 
C 2.597899 -4.473168 1.326016 -5 0 -5 
C -1.326016 -5 -2.597899 -4.473168 -3.535534 -3.535534 
C -4.473168 -2.597899 -5 -1.326016 -5 0 
C -5 1.326016 -4.473168 2.597899 -3.535534 3.535534 
C -2.597899 4.473168 -1.326016 5 0 5 
z
"/>
    </defs>
    <g clip-path="url(#pb4bb513f93)">
     <use xlink:href="#C3_0_65ca421b3e" x="248.889071" y="409.90389" style="fill: none; stroke: #808080; stroke-opacity: 0.3"/>
    </g>
    <g clip-path="url(#pb4bb513f93)">
     <use xlink:href="#C3_0_65ca421b3e" x="252.609071" y="414.866714" style="fill: none; stroke: #808080; stroke-opacity: 0.3"/>
    </g>
   </g>
   <g id="PathCollection_32">
    <path d="M 251.329071 406.040758 
L 261.329071 406.040758 
L 261.329071 396.040758 
L 251.329071 396.040758 
L 251.329071 406.040758 
z
" clip-path="url(#pb4bb513f93)" style="fill: none; stroke: #808080; stroke-opacity: 0.3"/>
    <path d="M 254.119071 412.043664 
L 264.119071 412.043664 
L 264.119071 402.043664 
L 254.119071 402.043664 
L 254.119071 412.043664 
z
" clip-path="url(#pb4bb513f93)" style="fill: none; stroke: #808080; stroke-opacity: 0.3"/>
   </g>
   <g id="PathCollection_33">
    <path d="M 258.189071 403.722752 
C 259.515087 403.722752 260.786971 403.195921 261.724605 402.258286 
C 262.66224 401.320652 263.189071 400.048768 263.189071 398.722752 
C 263.189071 397.396737 262.66224 396.124853 261.724605 395.187218 
C 260.786971 394.249584 259.515087 393.722752 258.189071 393.722752 
C 256.863056 393.722752 255.591172 394.249584 254.653537 395.187218 
C 253.715903 396.124853 253.189071 397.396737 253.189071 398.722752 
C 253.189071 400.048768 253.715903 401.320652 254.653537 402.258286 
C 255.591172 403.195921 256.863056 403.722752 258.189071 403.722752 
L 258.189071 403.722752 
z
" clip-path="url(#pb4bb513f93)" style="fill: none; stroke: #808080; stroke-opacity: 0.3"/>
   </g>
   <g id="PathCollection_34">
    <path d="M 258.769071 396.933588 
L 268.769071 396.933588 
L 268.769071 386.933588 
L 258.769071 386.933588 
L 258.769071 396.933588 
z
" clip-path="url(#pb4bb513f93)" style="fill: none; stroke: #808080; stroke-opacity: 0.3"/>
   </g>
   <g id="PathCollection_35">
    <defs>
     <path id="C4_0_00ce24bd78" d="M 0 5 
C 1.326016 5 2.597899 4.473168 3.535534 3.535534 
C 4.473168 2.597899 5 1.326016 5 -0 
C 5 -1.326016 4.473168 -2.597899 3.535534 -3.535534 
C 2.597899 -4.473168 1.326016 -5 0 -5 
C -1.326016 -5 -2.597899 -4.473168 -3.535534 -3.535534 
C -4.473168 -2.597899 -5 -1.326016 -5 0 
C -5 1.326016 -4.473168 2.597899 -3.535534 3.535534 
C -2.597899 4.473168 -1.326016 5 0 5 
z
"/>
    </defs>
    <g clip-path="url(#pb4bb513f93)">
     <use xlink:href="#C4_0_00ce24bd78" x="196.809071" y="470.479591" style="fill: none; stroke: #808080; stroke-opacity: 0.3"/>
    </g>
    <g clip-path="url(#pb4bb513f93)">
     <use xlink:href="#C4_0_00ce24bd78" x="207.969071" y="466.875988" style="fill: none; stroke: #808080; stroke-opacity: 0.3"/>
    </g>
   </g>
   <g id="PathCollection_36">
    <path d="M 238.309071 432.54015 
L 248.309071 432.54015 
L 248.309071 422.54015 
L 238.309071 422.54015 
L 238.309071 432.54015 
z
" clip-path="url(#pb4bb513f93)" style="fill: none; stroke: #808080; stroke-opacity: 0.3"/>
    <path d="M 243.889071 433.105656 
L 253.889071 433.105656 
L 253.889071 423.105656 
L 243.889071 423.105656 
L 243.889071 433.105656 
z
" clip-path="url(#pb4bb513f93)" style="fill: none; stroke: #808080; stroke-opacity: 0.3"/>
   </g>
   <g id="PathCollection_37">
    <defs>
     <path id="C5_0_48c681ca88" d="M 0 5 
C 1.326016 5 2.597899 4.473168 3.535534 3.535534 
C 4.473168 2.597899 5 1.326016 5 -0 
C 5 -1.326016 4.473168 -2.597899 3.535534 -3.535534 
C 2.597899 -4.473168 1.326016 -5 0 -5 
C -1.326016 -5 -2.597899 -4.473168 -3.535534 -3.535534 
C -4.473168 -2.597899 -5 -1.326016 -5 0 
C -5 1.326016 -4.473168 2.597899 -3.535534 3.535534 
C -2.597899 4.473168 -1.326016 5 0 5 
z
"/>
    </defs>
    <g clip-path="url(#pb4bb513f93)">
     <use xlink:href="#C5_0_48c681ca88" x="252.609071" y="414.866714" style="fill: none; stroke: #808080; stroke-opacity: 0.3"/>
    </g>
    <g clip-path="url(#pb4bb513f93)">
     <use xlink:href="#C5_0_48c681ca88" x="254.469071" y="421.045561" style="fill: none; stroke: #808080; stroke-opacity: 0.3"/>
    </g>
   </g>
   <g id="PathCollection_38">
    <path d="M 254.119071 412.043664 
L 264.119071 412.043664 
L 264.119071 402.043664 
L 254.119071 402.043664 
L 254.119071 412.043664 
z
" clip-path="url(#pb4bb513f93)" style="fill: none; stroke: #808080; stroke-opacity: 0.3"/>
    <path d="M 255.049071 419.281858 
L 265.049071 419.281858 
L 265.049071 409.281858 
L 255.049071 409.281858 
L 255.049071 419.281858 
z
" clip-path="url(#pb4bb513f93)" style="fill: none; stroke: #808080; stroke-opacity: 0.3"/>
   </g>
   <g id="PathCollection_39">
    <path d="M 207.969071 471.875988 
C 209.295087 471.875988 210.566971 471.349156 211.504605 470.411522 
C 212.44224 469.473887 212.969071 468.202003 212.969071 466.875988 
C 212.969071 465.549972 212.44224 464.278088 211.504605 463.340454 
C 210.566971 462.402819 209.295087 461.875988 207.969071 461.875988 
C 206.643056 461.875988 205.371172 462.402819 204.433537 463.340454 
C 203.495903 464.278088 202.969071 465.549972 202.969071 466.875988 
C 202.969071 468.202003 203.495903 469.473887 204.433537 470.411522 
C 205.371172 471.349156 206.643056 471.875988 207.969071 471.875988 
L 207.969071 471.875988 
z
" clip-path="url(#pb4bb513f93)" style="fill: none; stroke: #808080; stroke-opacity: 0.3"/>
   </g>
   <g id="PathCollection_40">
    <path d="M 243.889071 433.105656 
L 253.889071 433.105656 
L 253.889071 423.105656 
L 243.889071 423.105656 
L 243.889071 433.105656 
z
" clip-path="url(#pb4bb513f93)" style="fill: none; stroke: #808080; stroke-opacity: 0.3"/>
   </g>
   <g id="PathCollection_41">
    <path d="M 214.479071 470.366799 
C 215.805087 470.366799 217.076971 469.839967 218.014605 468.902333 
C 218.95224 467.964698 219.479071 466.692814 219.479071 465.366799 
C 219.479071 464.040783 218.95224 462.768899 218.014605 461.831265 
C 217.076971 460.89363 215.805087 460.366799 214.479071 460.366799 
C 213.153056 460.366799 211.881172 460.89363 210.943537 461.831265 
C 210.005903 462.768899 209.479071 464.040783 209.479071 465.366799 
C 209.479071 466.692814 210.005903 467.964698 210.943537 468.902333 
C 211.881172 469.839967 213.153056 470.366799 214.479071 470.366799 
L 214.479071 470.366799 
z
" clip-path="url(#pb4bb513f93)" style="fill: none; stroke: #808080; stroke-opacity: 0.3"/>
   </g>
   <g id="PathCollection_42">
    <path d="M 255.979071 422.790608 
L 265.979071 422.790608 
L 265.979071 412.790608 
L 255.979071 412.790608 
L 255.979071 422.790608 
z
" clip-path="url(#pb4bb513f93)" style="fill: none; stroke: #808080; stroke-opacity: 0.3"/>
   </g>
   <g id="PathCollection_43">
    <path d="M 254.469071 426.045561 
C 255.795087 426.045561 257.066971 425.51873 258.004605 424.581095 
C 258.94224 423.643461 259.469071 422.371577 259.469071 421.045561 
C 259.469071 419.719546 258.94224 418.447662 258.004605 417.510027 
C 257.066971 416.572393 255.795087 416.045561 254.469071 416.045561 
C 253.143056 416.045561 251.871172 416.572393 250.933537 417.510027 
C 249.995903 418.447662 249.469071 419.719546 249.469071 421.045561 
C 249.469071 422.371577 249.995903 423.643461 250.933537 424.581095 
C 251.871172 425.51873 253.143056 426.045561 254.469071 426.045561 
L 254.469071 426.045561 
z
" clip-path="url(#pb4bb513f93)" style="fill: none; stroke: #808080; stroke-opacity: 0.3"/>
   </g>
   <g id="PathCollection_44">
    <path d="M 255.049071 419.281858 
L 265.049071 419.281858 
L 265.049071 409.281858 
L 255.049071 409.281858 
L 255.049071 419.281858 
z
" clip-path="url(#pb4bb513f93)" style="fill: none; stroke: #808080; stroke-opacity: 0.3"/>
   </g>
   <g id="PathCollection_45">
    <path d="M 214.479071 470.366799 
C 215.805087 470.366799 217.076971 469.839967 218.014605 468.902333 
C 218.95224 467.964698 219.479071 466.692814 219.479071 465.366799 
C 219.479071 464.040783 218.95224 462.768899 218.014605 461.831265 
C 217.076971 460.89363 215.805087 460.366799 214.479071 460.366799 
C 213.153056 460.366799 211.881172 460.89363 210.943537 461.831265 
C 210.005903 462.768899 209.479071 464.040783 209.479071 465.366799 
C 209.479071 466.692814 210.005903 467.964698 210.943537 468.902333 
C 211.881172 469.839967 213.153056 470.366799 214.479071 470.366799 
L 214.479071 470.366799 
z
" clip-path="url(#pb4bb513f93)" style="fill: none; stroke: #808080; stroke-opacity: 0.3"/>
   </g>
   <g id="PathCollection_46">
    <path d="M 255.979071 422.790608 
L 265.979071 422.790608 
L 265.979071 412.790608 
L 255.979071 412.790608 
L 255.979071 422.790608 
z
" clip-path="url(#pb4bb513f93)" style="fill: none; stroke: #808080; stroke-opacity: 0.3"/>
   </g>
   <g id="PathCollection_47">
    <path d="M 219.129071 470.365816 
C 220.455087 470.365816 221.726971 469.838984 222.664605 468.90135 
C 223.60224 467.963715 224.129071 466.691831 224.129071 465.365816 
C 224.129071 464.0398 223.60224 462.767916 222.664605 461.830282 
C 221.726971 460.892647 220.455087 460.365816 219.129071 460.365816 
C 217.803056 460.365816 216.531172 460.892647 215.593537 461.830282 
C 214.655903 462.767916 214.129071 464.0398 214.129071 465.365816 
C 214.129071 466.691831 214.655903 467.963715 215.593537 468.90135 
C 216.531172 469.838984 217.803056 470.365816 219.129071 470.365816 
L 219.129071 470.365816 
z
" clip-path="url(#pb4bb513f93)" style="fill: none; stroke: #808080; stroke-opacity: 0.3"/>
   </g>
   <g id="PathCollection_48">
    <path d="M 237.379071 449.248736 
L 247.379071 449.248736 
L 247.379071 439.248736 
L 237.379071 439.248736 
L 237.379071 449.248736 
z
" clip-path="url(#pb4bb513f93)" style="fill: none; stroke: #808080; stroke-opacity: 0.3"/>
   </g>
   <g id="PathCollection_49">
    <path d="M 246.099071 444.61038 
C 247.425087 444.61038 248.696971 444.083548 249.634605 443.145914 
C 250.57224 442.208279 251.099071 440.936396 251.099071 439.61038 
C 251.099071 438.284365 250.57224 437.012481 249.634605 436.074846 
C 248.696971 435.137212 247.425087 434.61038 246.099071 434.61038 
C 244.773056 434.61038 243.501172 435.137212 242.563537 436.074846 
C 241.625903 437.012481 241.099071 438.284365 241.099071 439.61038 
C 241.099071 440.936396 241.625903 442.208279 242.563537 443.145914 
C 243.501172 444.083548 244.773056 444.61038 246.099071 444.61038 
L 246.099071 444.61038 
z
" clip-path="url(#pb4bb513f93)" style="fill: none; stroke: #808080; stroke-opacity: 0.3"/>
   </g>
   <g id="PathCollection_50">
    <path d="M 256.909071 425.351645 
L 266.909071 425.351645 
L 266.909071 415.351645 
L 256.909071 415.351645 
L 256.909071 425.351645 
z
" clip-path="url(#pb4bb513f93)" style="fill: none; stroke: #808080; stroke-opacity: 0.3"/>
   </g>
   <g id="PathCollection_51">
    <defs>
     <path id="C6_0_eed72730ae" d="M 0 5 
C 1.326016 5 2.597899 4.473168 3.535534 3.535534 
C 4.473168 2.597899 5 1.326016 5 -0 
C 5 -1.326016 4.473168 -2.597899 3.535534 -3.535534 
C 2.597899 -4.473168 1.326016 -5 0 -5 
C -1.326016 -5 -2.597899 -4.473168 -3.535534 -3.535534 
C -4.473168 -2.597899 -5 -1.326016 -5 0 
C -5 1.326016 -4.473168 2.597899 -3.535534 3.535534 
C -2.597899 4.473168 -1.326016 5 0 5 
z
"/>
    </defs>
    <g clip-path="url(#pb4bb513f93)">
     <use xlink:href="#C6_0_eed72730ae" x="219.129071" y="465.365816" style="fill: none; stroke: #808080; stroke-opacity: 0.3"/>
    </g>
    <g clip-path="url(#pb4bb513f93)">
     <use xlink:href="#C6_0_eed72730ae" x="224.709071" y="466.720169" style="fill: none; stroke: #808080; stroke-opacity: 0.3"/>
    </g>
   </g>
   <g id="PathCollection_52">
    <path d="M 237.379071 449.248736 
L 247.379071 449.248736 
L 247.379071 439.248736 
L 237.379071 439.248736 
L 237.379071 449.248736 
z
" clip-path="url(#pb4bb513f93)" style="fill: none; stroke: #808080; stroke-opacity: 0.3"/>
    <path d="M 237.379071 455.248192 
L 247.379071 455.248192 
L 247.379071 445.248192 
L 237.379071 445.248192 
L 237.379071 455.248192 
z
" clip-path="url(#pb4bb513f93)" style="fill: none; stroke: #808080; stroke-opacity: 0.3"/>
   </g>
   <g id="PathCollection_53">
    <defs>
     <path id="C7_0_1ac578581d" d="M 0 5 
C 1.326016 5 2.597899 4.473168 3.535534 3.535534 
C 4.473168 2.597899 5 1.326016 5 -0 
C 5 -1.326016 4.473168 -2.597899 3.535534 -3.535534 
C 2.597899 -4.473168 1.326016 -5 0 -5 
C -1.326016 -5 -2.597899 -4.473168 -3.535534 -3.535534 
C -4.473168 -2.597899 -5 -1.326016 -5 0 
C -5 1.326016 -4.473168 2.597899 -3.535534 3.535534 
C -2.597899 4.473168 -1.326016 5 0 5 
z
"/>
    </defs>
    <g clip-path="url(#pb4bb513f93)">
     <use xlink:href="#C7_0_1ac578581d" x="246.099071" y="439.61038" style="fill: none; stroke: #808080; stroke-opacity: 0.3"/>
    </g>
    <g clip-path="url(#pb4bb513f93)">
     <use xlink:href="#C7_0_1ac578581d" x="254.469071" y="434.557673" style="fill: none; stroke: #808080; stroke-opacity: 0.3"/>
    </g>
   </g>
   <g id="PathCollection_54">
    <path d="M 256.909071 425.351645 
L 266.909071 425.351645 
L 266.909071 415.351645 
L 256.909071 415.351645 
L 256.909071 425.351645 
z
" clip-path="url(#pb4bb513f93)" style="fill: none; stroke: #808080; stroke-opacity: 0.3"/>
    <path d="M 259.699071 427.089509 
L 269.699071 427.089509 
L 269.699071 417.089509 
L 259.699071 417.089509 
L 259.699071 427.089509 
z
" clip-path="url(#pb4bb513f93)" style="fill: none; stroke: #808080; stroke-opacity: 0.3"/>
   </g>
   <g id="PathCollection_55">
    <defs>
     <path id="C8_0_189d5aa92a" d="M 0 5 
C 1.326016 5 2.597899 4.473168 3.535534 3.535534 
C 4.473168 2.597899 5 1.326016 5 -0 
C 5 -1.326016 4.473168 -2.597899 3.535534 -3.535534 
C 2.597899 -4.473168 1.326016 -5 0 -5 
C -1.326016 -5 -2.597899 -4.473168 -3.535534 -3.535534 
C -4.473168 -2.597899 -5 -1.326016 -5 0 
C -5 1.326016 -4.473168 2.597899 -3.535534 3.535534 
C -2.597899 4.473168 -1.326016 5 0 5 
z
"/>
    </defs>
    <g clip-path="url(#pb4bb513f93)">
     <use xlink:href="#C8_0_189d5aa92a" x="224.709071" y="466.720169" style="fill: none; stroke: #808080; stroke-opacity: 0.3"/>
    </g>
    <g clip-path="url(#pb4bb513f93)">
     <use xlink:href="#C8_0_189d5aa92a" x="230.289071" y="469.180096" style="fill: none; stroke: #808080; stroke-opacity: 0.3"/>
    </g>
   </g>
   <g id="PathCollection_56">
    <path d="M 237.379071 455.248192 
L 247.379071 455.248192 
L 247.379071 445.248192 
L 237.379071 445.248192 
L 237.379071 455.248192 
z
" clip-path="url(#pb4bb513f93)" style="fill: none; stroke: #808080; stroke-opacity: 0.3"/>
    <path d="M 239.239071 460.039566 
L 249.239071 460.039566 
L 249.239071 450.039566 
L 239.239071 450.039566 
L 239.239071 460.039566 
z
" clip-path="url(#pb4bb513f93)" style="fill: none; stroke: #808080; stroke-opacity: 0.3"/>
   </g>
   <g id="PathCollection_57">
    <defs>
     <path id="C9_0_3d8696bb6c" d="M 0 5 
C 1.326016 5 2.597899 4.473168 3.535534 3.535534 
C 4.473168 2.597899 5 1.326016 5 -0 
C 5 -1.326016 4.473168 -2.597899 3.535534 -3.535534 
C 2.597899 -4.473168 1.326016 -5 0 -5 
C -1.326016 -5 -2.597899 -4.473168 -3.535534 -3.535534 
C -4.473168 -2.597899 -5 -1.326016 -5 0 
C -5 1.326016 -4.473168 2.597899 -3.535534 3.535534 
C -2.597899 4.473168 -1.326016 5 0 5 
z
"/>
    </defs>
    <g clip-path="url(#pb4bb513f93)">
     <use xlink:href="#C9_0_3d8696bb6c" x="254.469071" y="434.557673" style="fill: none; stroke: #808080; stroke-opacity: 0.3"/>
    </g>
    <g clip-path="url(#pb4bb513f93)">
     <use xlink:href="#C9_0_3d8696bb6c" x="260.049071" y="434.049384" style="fill: none; stroke: #808080; stroke-opacity: 0.3"/>
    </g>
   </g>
   <g id="PathCollection_58">
    <path d="M 259.699071 427.089509 
L 269.699071 427.089509 
L 269.699071 417.089509 
L 259.699071 417.089509 
L 259.699071 427.089509 
z
" clip-path="url(#pb4bb513f93)" style="fill: none; stroke: #808080; stroke-opacity: 0.3"/>
    <path d="M 260.629071 432.181139 
L 270.629071 432.181139 
L 270.629071 422.181139 
L 260.629071 422.181139 
L 260.629071 432.181139 
z
" clip-path="url(#pb4bb513f93)" style="fill: none; stroke: #808080; stroke-opacity: 0.3"/>
   </g>
   <g id="PathCollection_59">
    <defs>
     <path id="Ca_0_ce8a31a6cf" d="M 0 5 
C 1.326016 5 2.597899 4.473168 3.535534 3.535534 
C 4.473168 2.597899 5 1.326016 5 -0 
C 5 -1.326016 4.473168 -2.597899 3.535534 -3.535534 
C 2.597899 -4.473168 1.326016 -5 0 -5 
C -1.326016 -5 -2.597899 -4.473168 -3.535534 -3.535534 
C -4.473168 -2.597899 -5 -1.326016 -5 0 
C -5 1.326016 -4.473168 2.597899 -3.535534 3.535534 
C -2.597899 4.473168 -1.326016 5 0 5 
z
"/>
    </defs>
    <g clip-path="url(#pb4bb513f93)">
     <use xlink:href="#Ca_0_ce8a31a6cf" x="230.289071" y="469.180096" style="fill: none; stroke: #808080; stroke-opacity: 0.3"/>
    </g>
    <g clip-path="url(#pb4bb513f93)">
     <use xlink:href="#Ca_0_ce8a31a6cf" x="234.009071" y="471.554417" style="fill: none; stroke: #808080; stroke-opacity: 0.3"/>
    </g>
   </g>
   <g id="PathCollection_60">
    <path d="M 239.239071 460.039566 
L 249.239071 460.039566 
L 249.239071 450.039566 
L 239.239071 450.039566 
L 239.239071 460.039566 
z
" clip-path="url(#pb4bb513f93)" style="fill: none; stroke: #808080; stroke-opacity: 0.3"/>
    <path d="M 241.099071 463.611409 
L 251.099071 463.611409 
L 251.099071 453.611409 
L 241.099071 453.611409 
L 241.099071 463.611409 
z
" clip-path="url(#pb4bb513f93)" style="fill: none; stroke: #808080; stroke-opacity: 0.3"/>
   </g>
   <g id="PathCollection_61">
    <path d="M 260.049071 439.049384 
C 261.375087 439.049384 262.646971 438.522552 263.584605 437.584918 
C 264.52224 436.647283 265.049071 435.375399 265.049071 434.049384 
C 265.049071 432.723368 264.52224 431.451484 263.584605 430.51385 
C 262.646971 429.576215 261.375087 429.049384 260.049071 429.049384 
C 258.723056 429.049384 257.451172 429.576215 256.513537 430.51385 
C 255.575903 431.451484 255.049071 432.723368 255.049071 434.049384 
C 255.049071 435.375399 255.575903 436.647283 256.513537 437.584918 
C 257.451172 438.522552 258.723056 439.049384 260.049071 439.049384 
L 260.049071 439.049384 
z
" clip-path="url(#pb4bb513f93)" style="fill: none; stroke: #808080; stroke-opacity: 0.3"/>
   </g>
   <g id="PathCollection_62">
    <path d="M 260.629071 432.181139 
L 270.629071 432.181139 
L 270.629071 422.181139 
L 260.629071 422.181139 
L 260.629071 432.181139 
z
" clip-path="url(#pb4bb513f93)" style="fill: none; stroke: #808080; stroke-opacity: 0.3"/>
   </g>
   <g id="PathCollection_63">
    <defs>
     <path id="Cb_0_cf4fe1b1a1" d="M 0 5 
C 1.326016 5 2.597899 4.473168 3.535534 3.535534 
C 4.473168 2.597899 5 1.326016 5 -0 
C 5 -1.326016 4.473168 -2.597899 3.535534 -3.535534 
C 2.597899 -4.473168 1.326016 -5 0 -5 
C -1.326016 -5 -2.597899 -4.473168 -3.535534 -3.535534 
C -4.473168 -2.597899 -5 -1.326016 -5 0 
C -5 1.326016 -4.473168 2.597899 -3.535534 3.535534 
C -2.597899 4.473168 -1.326016 5 0 5 
z
"/>
    </defs>
    <g clip-path="url(#pb4bb513f93)">
     <use xlink:href="#Cb_0_cf4fe1b1a1" x="234.009071" y="471.554417" style="fill: none; stroke: #808080; stroke-opacity: 0.3"/>
    </g>
    <g clip-path="url(#pb4bb513f93)">
     <use xlink:href="#Cb_0_cf4fe1b1a1" x="237.729071" y="473.448021" style="fill: none; stroke: #808080; stroke-opacity: 0.3"/>
    </g>
   </g>
   <g id="PathCollection_64">
    <path d="M 241.099071 463.611409 
L 251.099071 463.611409 
L 251.099071 453.611409 
L 241.099071 453.611409 
L 241.099071 463.611409 
z
" clip-path="url(#pb4bb513f93)" style="fill: none; stroke: #808080; stroke-opacity: 0.3"/>
    <path d="M 242.959071 467.063508 
L 252.959071 467.063508 
L 252.959071 457.063508 
L 242.959071 457.063508 
L 242.959071 467.063508 
z
" clip-path="url(#pb4bb513f93)" style="fill: none; stroke: #808080; stroke-opacity: 0.3"/>
   </g>
   <g id="PathCollection_65">
    <defs>
     <path id="Cc_0_b79a5e0329" d="M 0 5 
C 1.326016 5 2.597899 4.473168 3.535534 3.535534 
C 4.473168 2.597899 5 1.326016 5 -0 
C 5 -1.326016 4.473168 -2.597899 3.535534 -3.535534 
C 2.597899 -4.473168 1.326016 -5 0 -5 
C -1.326016 -5 -2.597899 -4.473168 -3.535534 -3.535534 
C -4.473168 -2.597899 -5 -1.326016 -5 0 
C -5 1.326016 -4.473168 2.597899 -3.535534 3.535534 
C -2.597899 4.473168 -1.326016 5 0 5 
z
"/>
    </defs>
    <g clip-path="url(#pb4bb513f93)">
     <use xlink:href="#Cc_0_b79a5e0329" x="237.729071" y="473.448021" style="fill: none; stroke: #808080; stroke-opacity: 0.3"/>
    </g>
    <g clip-path="url(#pb4bb513f93)">
     <use xlink:href="#Cc_0_b79a5e0329" x="243.309071" y="474.173365" style="fill: none; stroke: #808080; stroke-opacity: 0.3"/>
    </g>
   </g>
   <g id="PathCollection_66">
    <path d="M 242.959071 467.063508 
L 252.959071 467.063508 
L 252.959071 457.063508 
L 242.959071 457.063508 
L 242.959071 467.063508 
z
" clip-path="url(#pb4bb513f93)" style="fill: none; stroke: #808080; stroke-opacity: 0.3"/>
    <path d="M 244.819071 471.538312 
L 254.819071 471.538312 
L 254.819071 461.538312 
L 244.819071 461.538312 
L 244.819071 471.538312 
z
" clip-path="url(#pb4bb513f93)" style="fill: none; stroke: #808080; stroke-opacity: 0.3"/>
   </g>
   <g id="matplotlib.axis_1">
    <g id="xtick_1">
     <g id="line2d_1">
      <path d="M 193.089071 1116 
L 193.089071 7.2 
" clip-path="url(#pb4bb513f93)" style="fill: none; stroke-dasharray: 11.1,4.8; stroke-dashoffset: 0; stroke: #b0b0b0; stroke-width: 3"/>
     </g>
     <g id="line2d_2">
      <defs>
       <path id="mcf9f2aa2b9" d="M 0 0 
L 0 3.5 
" style="stroke: #000000; stroke-width: 0.8"/>
      </defs>
      <g>
       <use xlink:href="#mcf9f2aa2b9" x="193.089071" y="1116" style="stroke: #000000; stroke-width: 0.8"/>
      </g>
     </g>
     <g id="text_1">
      <!-- $\mathdefault{6600}$ -->
      <g transform="translate(138.260499 1164.511005) scale(0.6 -0.6)">
       <defs>
        <path id="CMR17-36" d="M 678 2198 
C 678 3712 1395 4076 1811 4076 
C 1946 4076 2272 4049 2400 3782 
C 2298 3782 2106 3782 2106 3558 
C 2106 3385 2246 3328 2336 3328 
C 2394 3328 2566 3353 2566 3571 
C 2566 3987 2246 4224 1805 4224 
C 1043 4224 243 3411 243 2011 
C 243 257 966 -128 1478 -128 
C 2099 -128 2688 431 2688 1295 
C 2688 2101 2170 2688 1517 2688 
C 1126 2688 838 2430 678 1979 
L 678 2198 
z
M 1478 25 
C 691 25 691 1212 691 1450 
C 691 1914 909 2585 1504 2585 
C 1613 2585 1926 2585 2138 2140 
C 2253 1889 2253 1624 2253 1302 
C 2253 954 2253 696 2118 438 
C 1978 173 1773 25 1478 25 
z
" transform="scale(0.015625)"/>
        <path id="CMR17-30" d="M 2688 2038 
C 2688 2430 2682 3099 2413 3613 
C 2176 4063 1798 4224 1466 4224 
C 1158 4224 768 4082 525 3620 
C 269 3137 243 2539 243 2038 
C 243 1671 250 1112 448 623 
C 723 -39 1216 -128 1466 -128 
C 1760 -128 2208 -7 2470 604 
C 2662 1048 2688 1568 2688 2038 
z
M 1466 -26 
C 1056 -26 813 328 723 816 
C 653 1196 653 1749 653 2109 
C 653 2604 653 3015 736 3407 
C 858 3954 1216 4121 1466 4121 
C 1728 4121 2067 3947 2189 3420 
C 2272 3054 2278 2623 2278 2109 
C 2278 1691 2278 1176 2202 797 
C 2067 96 1690 -26 1466 -26 
z
" transform="scale(0.015625)"/>
       </defs>
       <use xlink:href="#CMR17-36" transform="scale(0.996264)"/>
       <use xlink:href="#CMR17-36" transform="translate(45.690477 0) scale(0.996264)"/>
       <use xlink:href="#CMR17-30" transform="translate(91.380954 0) scale(0.996264)"/>
       <use xlink:href="#CMR17-30" transform="translate(137.071431 0) scale(0.996264)"/>
      </g>
     </g>
    </g>
    <g id="xtick_2">
     <g id="line2d_3">
      <path d="M 379.089071 1116 
L 379.089071 7.2 
" clip-path="url(#pb4bb513f93)" style="fill: none; stroke-dasharray: 11.1,4.8; stroke-dashoffset: 0; stroke: #b0b0b0; stroke-width: 3"/>
     </g>
     <g id="line2d_4">
      <g>
       <use xlink:href="#mcf9f2aa2b9" x="379.089071" y="1116" style="stroke: #000000; stroke-width: 0.8"/>
      </g>
     </g>
     <g id="text_2">
      <!-- $\mathdefault{6800}$ -->
      <g transform="translate(324.260499 1164.511005) scale(0.6 -0.6)">
       <defs>
        <path id="CMR17-38" d="M 1741 2289 
C 2144 2494 2554 2803 2554 3298 
C 2554 3884 1990 4224 1472 4224 
C 890 4224 378 3800 378 3215 
C 378 3054 416 2777 666 2533 
C 730 2469 998 2276 1171 2154 
C 883 2006 211 1652 211 945 
C 211 282 838 -128 1459 -128 
C 2144 -128 2720 366 2720 1022 
C 2720 1607 2330 1877 2074 2051 
L 1741 2289 
z
M 902 2855 
C 851 2887 595 3086 595 3388 
C 595 3781 998 4076 1459 4076 
C 1965 4076 2336 3716 2336 3298 
C 2336 2700 1670 2359 1638 2359 
C 1632 2359 1626 2359 1574 2398 
L 902 2855 
z
M 2080 1536 
C 2176 1466 2483 1253 2483 861 
C 2483 385 2010 25 1472 25 
C 890 25 448 443 448 951 
C 448 1459 838 1884 1280 2083 
L 2080 1536 
z
" transform="scale(0.015625)"/>
       </defs>
       <use xlink:href="#CMR17-36" transform="scale(0.996264)"/>
       <use xlink:href="#CMR17-38" transform="translate(45.690477 0) scale(0.996264)"/>
       <use xlink:href="#CMR17-30" transform="translate(91.380954 0) scale(0.996264)"/>
       <use xlink:href="#CMR17-30" transform="translate(137.071431 0) scale(0.996264)"/>
      </g>
     </g>
    </g>
    <g id="xtick_3">
     <g id="line2d_5">
      <path d="M 565.089071 1116 
L 565.089071 7.2 
" clip-path="url(#pb4bb513f93)" style="fill: none; stroke-dasharray: 11.1,4.8; stroke-dashoffset: 0; stroke: #b0b0b0; stroke-width: 3"/>
     </g>
     <g id="line2d_6">
      <g>
       <use xlink:href="#mcf9f2aa2b9" x="565.089071" y="1116" style="stroke: #000000; stroke-width: 0.8"/>
      </g>
     </g>
     <g id="text_3">
      <!-- $\mathdefault{7000}$ -->
      <g transform="translate(510.260499 1164.511005) scale(0.6 -0.6)">
       <defs>
        <path id="CMR17-37" d="M 2886 3955 
L 2886 4096 
L 1382 4096 
C 634 4096 621 4166 595 4288 
L 480 4288 
L 294 3104 
L 410 3104 
C 429 3226 474 3552 550 3673 
C 589 3724 1062 3724 1171 3724 
L 2579 3724 
L 1869 2670 
C 1395 1961 1069 1003 1069 166 
C 1069 89 1069 -128 1299 -128 
C 1530 -128 1530 89 1530 172 
L 1530 466 
C 1530 1514 1709 2204 2003 2644 
L 2886 3955 
z
" transform="scale(0.015625)"/>
       </defs>
       <use xlink:href="#CMR17-37" transform="scale(0.996264)"/>
       <use xlink:href="#CMR17-30" transform="translate(45.690477 0) scale(0.996264)"/>
       <use xlink:href="#CMR17-30" transform="translate(91.380954 0) scale(0.996264)"/>
       <use xlink:href="#CMR17-30" transform="translate(137.071431 0) scale(0.996264)"/>
      </g>
     </g>
    </g>
    <g id="xtick_4">
     <g id="line2d_7">
      <path d="M 751.089071 1116 
L 751.089071 7.2 
" clip-path="url(#pb4bb513f93)" style="fill: none; stroke-dasharray: 11.1,4.8; stroke-dashoffset: 0; stroke: #b0b0b0; stroke-width: 3"/>
     </g>
     <g id="line2d_8">
      <g>
       <use xlink:href="#mcf9f2aa2b9" x="751.089071" y="1116" style="stroke: #000000; stroke-width: 0.8"/>
      </g>
     </g>
     <g id="text_4">
      <!-- $\mathdefault{7200}$ -->
      <g transform="translate(696.260499 1164.511005) scale(0.6 -0.6)">
       <defs>
        <path id="CMR17-32" d="M 2669 990 
L 2554 990 
C 2490 537 2438 460 2413 422 
C 2381 371 1920 371 1830 371 
L 602 371 
C 832 620 1280 1073 1824 1596 
C 2214 1966 2669 2400 2669 3033 
C 2669 3788 2067 4224 1395 4224 
C 691 4224 262 3603 262 3027 
C 262 2777 448 2745 525 2745 
C 589 2745 781 2783 781 3007 
C 781 3206 614 3264 525 3264 
C 486 3264 448 3257 422 3244 
C 544 3788 915 4057 1306 4057 
C 1862 4057 2227 3616 2227 3033 
C 2227 2477 1901 1998 1536 1583 
L 262 147 
L 262 0 
L 2515 0 
L 2669 990 
z
" transform="scale(0.015625)"/>
       </defs>
       <use xlink:href="#CMR17-37" transform="scale(0.996264)"/>
       <use xlink:href="#CMR17-32" transform="translate(45.690477 0) scale(0.996264)"/>
       <use xlink:href="#CMR17-30" transform="translate(91.380954 0) scale(0.996264)"/>
       <use xlink:href="#CMR17-30" transform="translate(137.071431 0) scale(0.996264)"/>
      </g>
     </g>
    </g>
    <g id="xtick_5">
     <g id="line2d_9">
      <path d="M 937.089071 1116 
L 937.089071 7.2 
" clip-path="url(#pb4bb513f93)" style="fill: none; stroke-dasharray: 11.1,4.8; stroke-dashoffset: 0; stroke: #b0b0b0; stroke-width: 3"/>
     </g>
     <g id="line2d_10">
      <g>
       <use xlink:href="#mcf9f2aa2b9" x="937.089071" y="1116" style="stroke: #000000; stroke-width: 0.8"/>
      </g>
     </g>
     <g id="text_5">
      <!-- $\mathdefault{7400}$ -->
      <g transform="translate(882.260499 1164.511005) scale(0.6 -0.6)">
       <defs>
        <path id="CMR17-34" d="M 2150 4147 
C 2150 4281 2144 4288 2029 4288 
L 128 1254 
L 128 1088 
L 1779 1088 
L 1779 460 
C 1779 230 1766 166 1318 166 
L 1197 166 
L 1197 0 
C 1402 12 1747 12 1965 12 
C 2182 12 2528 12 2733 0 
L 2733 166 
L 2611 166 
C 2163 166 2150 230 2150 460 
L 2150 1088 
L 2803 1088 
L 2803 1254 
L 2150 1254 
L 2150 4147 
z
M 1798 3723 
L 1798 1254 
L 256 1254 
L 1798 3723 
z
" transform="scale(0.015625)"/>
       </defs>
       <use xlink:href="#CMR17-37" transform="scale(0.996264)"/>
       <use xlink:href="#CMR17-34" transform="translate(45.690477 0) scale(0.996264)"/>
       <use xlink:href="#CMR17-30" transform="translate(91.380954 0) scale(0.996264)"/>
       <use xlink:href="#CMR17-30" transform="translate(137.071431 0) scale(0.996264)"/>
      </g>
     </g>
    </g>
    <g id="xtick_6">
     <g id="line2d_11">
      <path d="M 1123.089071 1116 
L 1123.089071 7.2 
" clip-path="url(#pb4bb513f93)" style="fill: none; stroke-dasharray: 11.1,4.8; stroke-dashoffset: 0; stroke: #b0b0b0; stroke-width: 3"/>
     </g>
     <g id="line2d_12">
      <g>
       <use xlink:href="#mcf9f2aa2b9" x="1123.089071" y="1116" style="stroke: #000000; stroke-width: 0.8"/>
      </g>
     </g>
     <g id="text_6">
      <!-- $\mathdefault{7600}$ -->
      <g transform="translate(1068.260499 1164.511005) scale(0.6 -0.6)">
       <use xlink:href="#CMR17-37" transform="scale(0.996264)"/>
       <use xlink:href="#CMR17-36" transform="translate(45.690477 0) scale(0.996264)"/>
       <use xlink:href="#CMR17-30" transform="translate(91.380954 0) scale(0.996264)"/>
       <use xlink:href="#CMR17-30" transform="translate(137.071431 0) scale(0.996264)"/>
      </g>
     </g>
    </g>
    <g id="text_7">
     <!-- Time (s) -->
     <g transform="translate(624.271578 1224.915972) scale(0.6 -0.6)">
      <defs>
       <path id="CMR17-54" d="M 3981 4332 
L 288 4332 
L 179 2924 
L 294 2924 
C 378 3981 467 4166 1453 4166 
C 1568 4166 1754 4166 1805 4159 
C 1926 4140 1926 4064 1926 3917 
L 1926 465 
C 1926 236 1907 166 1376 166 
L 1197 166 
L 1197 0 
C 1504 6 1824 12 2138 12 
C 2451 12 2771 6 3078 0 
L 3078 166 
L 2899 166 
C 2368 166 2349 236 2349 465 
L 2349 3917 
C 2349 4057 2349 4134 2464 4159 
C 2515 4166 2701 4166 2816 4166 
C 3795 4166 3891 3981 3974 2924 
L 4090 2924 
L 3981 4332 
z
" transform="scale(0.015625)"/>
       <path id="CMR17-69" d="M 992 3961 
C 992 4102 877 4224 730 4224 
C 589 4224 467 4108 467 3961 
C 467 3820 582 3699 730 3699 
C 870 3699 992 3814 992 3961 
z
M 243 2745 
L 243 2579 
C 602 2579 653 2540 653 2231 
L 653 443 
C 653 198 627 166 218 166 
L 218 0 
C 371 12 646 12 806 12 
C 960 12 1222 12 1370 0 
L 1370 166 
C 992 166 979 205 979 436 
L 979 2816 
L 243 2745 
z
" transform="scale(0.015625)"/>
       <path id="CMR17-6d" d="M 4326 1954 
C 4326 2276 4269 2816 3507 2816 
C 3072 2816 2771 2520 2656 2173 
L 2650 2173 
C 2573 2700 2195 2816 1837 2816 
C 1331 2816 1069 2424 973 2166 
L 966 2166 
L 966 2816 
L 211 2745 
L 211 2578 
C 589 2578 646 2540 646 2231 
L 646 443 
C 646 198 621 166 211 166 
L 211 0 
C 365 12 646 12 813 12 
C 979 12 1267 12 1421 0 
L 1421 166 
C 1011 166 986 192 986 443 
L 986 1678 
C 986 2269 1344 2713 1792 2713 
C 2266 2713 2317 2289 2317 1980 
L 2317 443 
C 2317 198 2291 166 1882 166 
L 1882 0 
C 2035 12 2317 12 2483 12 
C 2650 12 2938 12 3091 0 
L 3091 166 
C 2682 166 2656 192 2656 443 
L 2656 1678 
C 2656 2269 3014 2713 3462 2713 
C 3936 2713 3987 2289 3987 1980 
L 3987 443 
C 3987 198 3962 166 3552 166 
L 3552 0 
C 3706 12 3987 12 4154 12 
C 4320 12 4608 12 4762 0 
L 4762 166 
C 4352 166 4326 192 4326 443 
L 4326 1954 
z
" transform="scale(0.015625)"/>
       <path id="CMR17-65" d="M 2438 1503 
C 2464 1529 2464 1542 2464 1606 
C 2464 2251 2118 2816 1389 2816 
C 710 2816 173 2175 173 1394 
C 173 554 781 -64 1459 -64 
C 2176 -64 2458 619 2458 755 
C 2458 800 2419 800 2406 800 
C 2362 800 2355 787 2330 709 
C 2189 270 1837 51 1504 51 
C 1229 51 954 206 781 490 
C 582 819 582 1200 582 1503 
L 2438 1503 
z
M 589 1600 
C 634 2511 1126 2713 1382 2713 
C 1818 2713 2112 2308 2118 1600 
L 589 1600 
z
" transform="scale(0.015625)"/>
       <path id="CMR17-28" d="M 1958 -1562 
C 1958 -1556 1958 -1543 1939 -1524 
C 1645 -1223 858 -403 858 1596 
C 858 3595 1632 4408 1946 4729 
C 1946 4735 1958 4748 1958 4767 
C 1958 4787 1939 4800 1914 4800 
C 1843 4800 1299 4325 986 3620 
C 666 2909 576 2218 576 1603 
C 576 1141 621 360 1005 -467 
C 1312 -1133 1837 -1600 1914 -1600 
C 1946 -1600 1958 -1588 1958 -1562 
z
" transform="scale(0.015625)"/>
       <path id="CMR17-73" d="M 1978 2688 
C 1978 2803 1971 2809 1933 2809 
C 1907 2809 1901 2803 1824 2707 
C 1805 2681 1747 2617 1728 2592 
C 1523 2809 1235 2816 1126 2816 
C 416 2816 160 2444 160 2073 
C 160 1497 813 1363 998 1324 
C 1402 1241 1542 1216 1677 1100 
C 1760 1024 1901 883 1901 652 
C 1901 384 1747 38 1158 38 
C 602 38 403 460 288 1024 
C 269 1113 269 1120 218 1120 
C 166 1120 160 1113 160 985 
L 160 64 
C 160 -52 166 -58 205 -58 
C 237 -58 243 -52 275 0 
C 314 57 410 211 448 275 
C 576 102 800 -64 1158 -64 
C 1792 -64 2131 281 2131 780 
C 2131 1107 1958 1280 1875 1356 
C 1683 1555 1459 1600 1190 1651 
C 838 1728 390 1817 390 2208 
C 390 2374 480 2726 1126 2726 
C 1811 2726 1850 2086 1862 1881 
C 1869 1849 1901 1843 1920 1843 
C 1978 1843 1978 1862 1978 1971 
L 1978 2688 
z
" transform="scale(0.015625)"/>
       <path id="CMR17-29" d="M 1683 1596 
C 1683 2057 1638 2839 1254 3665 
C 947 4332 422 4800 346 4800 
C 326 4800 301 4793 301 4761 
C 301 4748 307 4742 314 4729 
C 621 4408 1402 3595 1402 1603 
C 1402 -396 627 -1210 314 -1530 
C 307 -1543 301 -1549 301 -1562 
C 301 -1594 326 -1600 346 -1600 
C 416 -1600 960 -1127 1274 -422 
C 1594 289 1683 981 1683 1596 
z
" transform="scale(0.015625)"/>
      </defs>
      <use xlink:href="#CMR17-54" transform="scale(0.996264)"/>
      <use xlink:href="#CMR17-69" transform="translate(66.509881 0) scale(0.996264)"/>
      <use xlink:href="#CMR17-6d" transform="translate(91.380939 0) scale(0.996264)"/>
      <use xlink:href="#CMR17-65" transform="translate(168.300529 0) scale(0.996264)"/>
      <use xlink:href="#CMR17-28" transform="translate(238.862156 0) scale(0.996264)"/>
      <use xlink:href="#CMR17-73" transform="translate(274.142924 0) scale(0.996264)"/>
      <use xlink:href="#CMR17-29" transform="translate(309.944261 0) scale(0.996264)"/>
     </g>
    </g>
   </g>
   <g id="matplotlib.axis_2">
    <g id="ytick_1">
     <g id="line2d_13">
      <path d="M 169.839071 90.36 
L 1285.839071 90.36 
" clip-path="url(#pb4bb513f93)" style="fill: none; stroke-dasharray: 11.1,4.8; stroke-dashoffset: 0; stroke: #b0b0b0; stroke-width: 3"/>
     </g>
     <g id="line2d_14">
      <defs>
       <path id="m51be33eae0" d="M 0 0 
L -3.5 0 
" style="stroke: #000000; stroke-width: 0.8"/>
      </defs>
      <g>
       <use xlink:href="#m51be33eae0" x="169.839071" y="90.36" style="stroke: #000000; stroke-width: 0.8"/>
      </g>
     </g>
     <g id="text_8">
      <!-- $\mathdefault{59.0}$ -->
      <g transform="translate(64.337906 111.115503) scale(0.6 -0.6)">
       <defs>
        <path id="CMR17-35" d="M 730 3750 
C 794 3724 1056 3641 1325 3641 
C 1920 3641 2246 3961 2432 4140 
C 2432 4191 2432 4224 2394 4224 
C 2387 4224 2374 4224 2323 4198 
C 2099 4102 1837 4032 1517 4032 
C 1325 4032 1037 4055 723 4191 
C 653 4224 640 4224 634 4224 
C 602 4224 595 4217 595 4090 
L 595 2231 
C 595 2113 595 2080 659 2080 
C 691 2080 704 2093 736 2139 
C 941 2435 1222 2560 1542 2560 
C 1766 2560 2246 2415 2246 1293 
C 2246 1087 2246 716 2054 422 
C 1894 159 1645 25 1370 25 
C 947 25 518 319 403 812 
C 429 806 480 793 506 793 
C 589 793 749 838 749 1036 
C 749 1209 627 1280 506 1280 
C 358 1280 262 1190 262 1011 
C 262 454 704 -128 1382 -128 
C 2042 -128 2669 441 2669 1267 
C 2669 2054 2170 2662 1549 2662 
C 1222 2662 947 2540 730 2304 
L 730 3750 
z
" transform="scale(0.015625)"/>
        <path id="CMR17-39" d="M 2253 1871 
C 2253 448 1670 25 1190 25 
C 1043 25 685 43 538 281 
C 704 256 826 345 826 505 
C 826 678 685 736 595 736 
C 538 736 365 710 365 492 
C 365 68 742 -128 1203 -128 
C 1939 -128 2688 665 2688 2090 
C 2688 3857 1971 4224 1485 4224 
C 851 4224 243 3664 243 2800 
C 243 2000 762 1408 1414 1408 
C 1952 1408 2189 1910 2253 2122 
L 2253 1871 
z
M 1427 1510 
C 1254 1510 1011 1542 813 1929 
C 678 2181 678 2477 678 2793 
C 678 3174 678 3438 858 3722 
C 947 3857 1114 4076 1485 4076 
C 2240 4076 2240 2909 2240 2651 
C 2240 2193 2035 1510 1427 1510 
z
" transform="scale(0.015625)"/>
        <path id="CMMI12-3a" d="M 1178 307 
C 1178 492 1024 620 870 620 
C 685 620 557 467 557 313 
C 557 128 710 0 864 0 
C 1050 0 1178 153 1178 307 
z
" transform="scale(0.015625)"/>
       </defs>
       <use xlink:href="#CMR17-35" transform="scale(0.996264)"/>
       <use xlink:href="#CMR17-39" transform="translate(45.690477 0) scale(0.996264)"/>
       <use xlink:href="#CMMI12-3a" transform="translate(91.380954 0) scale(0.996264)"/>
       <use xlink:href="#CMR17-30" transform="translate(118.478131 0) scale(0.996264)"/>
      </g>
     </g>
    </g>
    <g id="ytick_2">
     <g id="line2d_15">
      <path d="M 169.839071 228.96 
L 1285.839071 228.96 
" clip-path="url(#pb4bb513f93)" style="fill: none; stroke-dasharray: 11.1,4.8; stroke-dashoffset: 0; stroke: #b0b0b0; stroke-width: 3"/>
     </g>
     <g id="line2d_16">
      <g>
       <use xlink:href="#m51be33eae0" x="169.839071" y="228.96" style="stroke: #000000; stroke-width: 0.8"/>
      </g>
     </g>
     <g id="text_9">
      <!-- $\mathdefault{59.5}$ -->
      <g transform="translate(64.337906 249.715503) scale(0.6 -0.6)">
       <use xlink:href="#CMR17-35" transform="scale(0.996264)"/>
       <use xlink:href="#CMR17-39" transform="translate(45.690477 0) scale(0.996264)"/>
       <use xlink:href="#CMMI12-3a" transform="translate(91.380954 0) scale(0.996264)"/>
       <use xlink:href="#CMR17-35" transform="translate(118.478131 0) scale(0.996264)"/>
      </g>
     </g>
    </g>
    <g id="ytick_3">
     <g id="line2d_17">
      <path d="M 169.839071 367.56 
L 1285.839071 367.56 
" clip-path="url(#pb4bb513f93)" style="fill: none; stroke-dasharray: 11.1,4.8; stroke-dashoffset: 0; stroke: #b0b0b0; stroke-width: 3"/>
     </g>
     <g id="line2d_18">
      <g>
       <use xlink:href="#m51be33eae0" x="169.839071" y="367.56" style="stroke: #000000; stroke-width: 0.8"/>
      </g>
     </g>
     <g id="text_10">
      <!-- $\mathdefault{60.0}$ -->
      <g transform="translate(64.337906 388.315503) scale(0.6 -0.6)">
       <use xlink:href="#CMR17-36" transform="scale(0.996264)"/>
       <use xlink:href="#CMR17-30" transform="translate(45.690477 0) scale(0.996264)"/>
       <use xlink:href="#CMMI12-3a" transform="translate(91.380954 0) scale(0.996264)"/>
       <use xlink:href="#CMR17-30" transform="translate(118.478131 0) scale(0.996264)"/>
      </g>
     </g>
    </g>
    <g id="ytick_4">
     <g id="line2d_19">
      <path d="M 169.839071 506.16 
L 1285.839071 506.16 
" clip-path="url(#pb4bb513f93)" style="fill: none; stroke-dasharray: 11.1,4.8; stroke-dashoffset: 0; stroke: #b0b0b0; stroke-width: 3"/>
     </g>
     <g id="line2d_20">
      <g>
       <use xlink:href="#m51be33eae0" x="169.839071" y="506.16" style="stroke: #000000; stroke-width: 0.8"/>
      </g>
     </g>
     <g id="text_11">
      <!-- $\mathdefault{60.5}$ -->
      <g transform="translate(64.337906 526.915503) scale(0.6 -0.6)">
       <use xlink:href="#CMR17-36" transform="scale(0.996264)"/>
       <use xlink:href="#CMR17-30" transform="translate(45.690477 0) scale(0.996264)"/>
       <use xlink:href="#CMMI12-3a" transform="translate(91.380954 0) scale(0.996264)"/>
       <use xlink:href="#CMR17-35" transform="translate(118.478131 0) scale(0.996264)"/>
      </g>
     </g>
    </g>
    <g id="ytick_5">
     <g id="line2d_21">
      <path d="M 169.839071 644.76 
L 1285.839071 644.76 
" clip-path="url(#pb4bb513f93)" style="fill: none; stroke-dasharray: 11.1,4.8; stroke-dashoffset: 0; stroke: #b0b0b0; stroke-width: 3"/>
     </g>
     <g id="line2d_22">
      <g>
       <use xlink:href="#m51be33eae0" x="169.839071" y="644.76" style="stroke: #000000; stroke-width: 0.8"/>
      </g>
     </g>
     <g id="text_12">
      <!-- $\mathdefault{61.0}$ -->
      <g transform="translate(64.337906 665.515503) scale(0.6 -0.6)">
       <defs>
        <path id="CMR17-31" d="M 1702 4083 
C 1702 4217 1696 4224 1606 4224 
C 1357 3927 979 3833 621 3820 
C 602 3820 570 3820 563 3808 
C 557 3795 557 3782 557 3648 
C 755 3648 1088 3686 1344 3839 
L 1344 467 
C 1344 243 1331 166 781 166 
L 589 166 
L 589 0 
C 896 6 1216 12 1523 12 
C 1830 12 2150 6 2458 0 
L 2458 166 
L 2266 166 
C 1715 166 1702 236 1702 467 
L 1702 4083 
z
" transform="scale(0.015625)"/>
       </defs>
       <use xlink:href="#CMR17-36" transform="scale(0.996264)"/>
       <use xlink:href="#CMR17-31" transform="translate(45.690477 0) scale(0.996264)"/>
       <use xlink:href="#CMMI12-3a" transform="translate(91.380954 0) scale(0.996264)"/>
       <use xlink:href="#CMR17-30" transform="translate(118.478131 0) scale(0.996264)"/>
      </g>
     </g>
    </g>
    <g id="ytick_6">
     <g id="line2d_23">
      <path d="M 169.839071 783.36 
L 1285.839071 783.36 
" clip-path="url(#pb4bb513f93)" style="fill: none; stroke-dasharray: 11.1,4.8; stroke-dashoffset: 0; stroke: #b0b0b0; stroke-width: 3"/>
     </g>
     <g id="line2d_24">
      <g>
       <use xlink:href="#m51be33eae0" x="169.839071" y="783.36" style="stroke: #000000; stroke-width: 0.8"/>
      </g>
     </g>
     <g id="text_13">
      <!-- $\mathdefault{61.5}$ -->
      <g transform="translate(64.337906 804.115503) scale(0.6 -0.6)">
       <use xlink:href="#CMR17-36" transform="scale(0.996264)"/>
       <use xlink:href="#CMR17-31" transform="translate(45.690477 0) scale(0.996264)"/>
       <use xlink:href="#CMMI12-3a" transform="translate(91.380954 0) scale(0.996264)"/>
       <use xlink:href="#CMR17-35" transform="translate(118.478131 0) scale(0.996264)"/>
      </g>
     </g>
    </g>
    <g id="ytick_7">
     <g id="line2d_25">
      <path d="M 169.839071 921.96 
L 1285.839071 921.96 
" clip-path="url(#pb4bb513f93)" style="fill: none; stroke-dasharray: 11.1,4.8; stroke-dashoffset: 0; stroke: #b0b0b0; stroke-width: 3"/>
     </g>
     <g id="line2d_26">
      <g>
       <use xlink:href="#m51be33eae0" x="169.839071" y="921.96" style="stroke: #000000; stroke-width: 0.8"/>
      </g>
     </g>
     <g id="text_14">
      <!-- $\mathdefault{62.0}$ -->
      <g transform="translate(64.337906 942.715503) scale(0.6 -0.6)">
       <use xlink:href="#CMR17-36" transform="scale(0.996264)"/>
       <use xlink:href="#CMR17-32" transform="translate(45.690477 0) scale(0.996264)"/>
       <use xlink:href="#CMMI12-3a" transform="translate(91.380954 0) scale(0.996264)"/>
       <use xlink:href="#CMR17-30" transform="translate(118.478131 0) scale(0.996264)"/>
      </g>
     </g>
    </g>
    <g id="ytick_8">
     <g id="line2d_27">
      <path d="M 169.839071 1060.56 
L 1285.839071 1060.56 
" clip-path="url(#pb4bb513f93)" style="fill: none; stroke-dasharray: 11.1,4.8; stroke-dashoffset: 0; stroke: #b0b0b0; stroke-width: 3"/>
     </g>
     <g id="line2d_28">
      <g>
       <use xlink:href="#m51be33eae0" x="169.839071" y="1060.56" style="stroke: #000000; stroke-width: 0.8"/>
      </g>
     </g>
     <g id="text_15">
      <!-- $\mathdefault{62.5}$ -->
      <g transform="translate(64.337906 1081.315503) scale(0.6 -0.6)">
       <use xlink:href="#CMR17-36" transform="scale(0.996264)"/>
       <use xlink:href="#CMR17-32" transform="translate(45.690477 0) scale(0.996264)"/>
       <use xlink:href="#CMMI12-3a" transform="translate(91.380954 0) scale(0.996264)"/>
       <use xlink:href="#CMR17-35" transform="translate(118.478131 0) scale(0.996264)"/>
      </g>
     </g>
    </g>
    <g id="text_16">
     <!-- Mile Marker -->
     <g transform="translate(48.711005 709.231707) rotate(-90) scale(0.6 -0.6)">
      <defs>
       <path id="CMR17-4d" d="M 1338 4249 
C 1299 4345 1293 4352 1158 4352 
L 339 4352 
L 339 4185 
C 781 4185 851 4185 851 3898 
L 851 624 
C 851 465 851 166 339 166 
L 339 0 
C 486 12 755 12 915 12 
C 1075 12 1344 12 1491 0 
L 1491 166 
C 979 166 979 465 979 624 
L 979 4159 
L 986 4159 
L 2490 102 
C 2515 38 2528 0 2579 0 
C 2630 0 2643 38 2669 102 
L 4186 4191 
L 4192 4191 
L 4192 453 
C 4192 166 4122 166 3680 166 
L 3680 0 
C 3853 12 4198 12 4384 12 
C 4570 12 4922 12 5094 0 
L 5094 166 
C 4653 166 4582 166 4582 453 
L 4582 3898 
C 4582 4185 4653 4185 5094 4185 
L 5094 4352 
L 4282 4352 
C 4147 4352 4141 4345 4102 4249 
L 2720 516 
L 1338 4249 
z
" transform="scale(0.015625)"/>
       <path id="CMR17-6c" d="M 979 4416 
L 218 4345 
L 218 4179 
C 595 4179 653 4141 653 3835 
L 653 439 
C 653 198 627 166 218 166 
L 218 0 
C 371 12 653 12 813 12 
C 979 12 1261 12 1414 0 
L 1414 166 
C 1005 166 979 191 979 439 
L 979 4416 
z
" transform="scale(0.015625)"/>
       <path id="CMR17-61" d="M 2304 1656 
C 2304 2048 2304 2275 2035 2534 
C 1798 2751 1523 2816 1306 2816 
C 800 2816 435 2408 435 1977 
C 435 1740 627 1728 666 1728 
C 749 1728 896 1779 896 1958 
C 896 2118 774 2188 666 2188 
C 640 2188 608 2182 589 2176 
C 723 2594 1069 2713 1293 2713 
C 1613 2713 1965 2421 1965 1875 
L 1965 1632 
C 1587 1619 1133 1568 774 1373 
C 371 1147 256 822 256 576 
C 256 77 832 -64 1171 -64 
C 1523 -64 1850 135 1990 505 
C 2003 219 2182 -39 2464 -39 
C 2598 -39 2938 51 2938 563 
L 2938 926 
L 2822 926 
L 2822 557 
C 2822 161 2650 109 2566 109 
C 2304 109 2304 446 2304 732 
L 2304 1656 
z
M 1965 887 
C 1965 323 1568 38 1216 38 
C 896 38 646 278 646 576 
C 646 771 730 1114 1101 1322 
C 1408 1497 1760 1523 1965 1536 
L 1965 887 
z
" transform="scale(0.015625)"/>
       <path id="CMR17-72" d="M 960 1517 
C 960 2134 1222 2713 1702 2713 
C 1747 2713 1792 2707 1837 2687 
C 1837 2687 1696 2642 1696 2475 
C 1696 2321 1818 2257 1914 2257 
C 1990 2257 2131 2302 2131 2482 
C 2131 2687 1926 2816 1709 2816 
C 1222 2816 1011 2340 947 2115 
L 941 2115 
L 941 2816 
L 198 2745 
L 198 2578 
C 576 2578 634 2540 634 2231 
L 634 443 
C 634 198 608 166 198 166 
L 198 0 
C 352 12 646 12 813 12 
C 998 12 1325 12 1498 0 
L 1498 166 
C 1037 166 960 166 960 455 
L 960 1517 
z
" transform="scale(0.015625)"/>
       <path id="CMR17-6b" d="M 1670 1679 
C 1664 1692 1632 1730 1632 1749 
C 1632 1762 2086 2175 2144 2226 
C 2509 2532 2739 2563 2906 2570 
L 2906 2735 
C 2867 2735 2854 2735 2848 2729 
L 2534 2722 
C 2355 2722 2080 2722 1907 2735 
L 1907 2570 
C 1997 2563 2061 2513 2061 2423 
C 2061 2296 1933 2175 1926 2175 
L 960 1298 
L 960 4416 
L 198 4345 
L 198 4179 
C 576 4179 634 4141 634 3835 
L 634 439 
C 634 198 608 166 198 166 
L 198 0 
C 352 12 634 12 794 12 
C 954 12 1235 12 1389 0 
L 1389 166 
C 979 166 954 191 954 439 
L 954 1139 
L 1395 1540 
L 2042 586 
C 2118 471 2182 382 2182 299 
C 2182 185 2067 166 1990 166 
L 1990 0 
C 2144 12 2419 12 2579 12 
C 2694 12 2931 6 3040 0 
L 3040 166 
C 2739 166 2669 223 2477 503 
L 1670 1679 
z
" transform="scale(0.015625)"/>
      </defs>
      <use xlink:href="#CMR17-4d" transform="scale(0.996264)"/>
      <use xlink:href="#CMR17-69" transform="translate(84.686941 0) scale(0.996264)"/>
      <use xlink:href="#CMR17-6c" transform="translate(109.557999 0) scale(0.996264)"/>
      <use xlink:href="#CMR17-65" transform="translate(134.429058 0) scale(0.996264)"/>
      <use xlink:href="#CMR17-4d" transform="translate(204.990684 0) scale(0.996264)"/>
      <use xlink:href="#CMR17-61" transform="translate(289.677625 0) scale(0.996264)"/>
      <use xlink:href="#CMR17-72" transform="translate(335.368102 0) scale(0.996264)"/>
      <use xlink:href="#CMR17-6b" transform="translate(370.64887 0) scale(0.996264)"/>
      <use xlink:href="#CMR17-65" transform="translate(416.339332 0) scale(0.996264)"/>
      <use xlink:href="#CMR17-72" transform="translate(456.824992 0) scale(0.996264)"/>
     </g>
    </g>
   </g>
   <g id="line2d_29">
    <path d="M 194.019071 444.31727 
L 201.924071 450.311835 
" clip-path="url(#pb4bb513f93)" style="fill: none; stroke: #0000ff; stroke-width: 5; stroke-linecap: square"/>
   </g>
   <g id="line2d_30">
    <path d="M 247.494071 398.188006 
L 247.494071 398.188006 
" clip-path="url(#pb4bb513f93)" style="fill: none; stroke: #0000ff; stroke-width: 5; stroke-linecap: square"/>
   </g>
   <g id="line2d_31">
    <path d="M 254.934071 388.953796 
L 254.934071 388.953796 
" clip-path="url(#pb4bb513f93)" style="fill: none; stroke: #0000ff; stroke-width: 5; stroke-linecap: square"/>
   </g>
   <g id="line2d_32">
    <path d="M 201.924071 450.311835 
L 204.714071 452.8094 
" clip-path="url(#pb4bb513f93)" style="fill: none; stroke: #0000ff; stroke-width: 5; stroke-linecap: square"/>
   </g>
   <g id="line2d_33">
    <path d="M 247.494071 398.188006 
L 247.494071 398.188006 
" clip-path="url(#pb4bb513f93)" style="fill: none; stroke: #0000ff; stroke-width: 5; stroke-linecap: square"/>
   </g>
   <g id="line2d_34">
    <path d="M 254.469071 396.516701 
L 254.469071 396.516701 
" clip-path="url(#pb4bb513f93)" style="fill: none; stroke: #0000ff; stroke-width: 5; stroke-linecap: square"/>
   </g>
   <g id="line2d_35">
    <path d="M 254.934071 388.953796 
L 254.934071 388.953796 
" clip-path="url(#pb4bb513f93)" style="fill: none; stroke: #0000ff; stroke-width: 5; stroke-linecap: square"/>
   </g>
   <g id="line2d_36">
    <path d="M 233.079071 425.383699 
L 233.079071 425.383699 
" clip-path="url(#pb4bb513f93)" style="fill: none; stroke: #0000ff; stroke-width: 5; stroke-linecap: square"/>
   </g>
   <g id="line2d_37">
    <path d="M 204.714071 452.8094 
L 204.714071 452.8094 
" clip-path="url(#pb4bb513f93)" style="fill: none; stroke: #0000ff; stroke-width: 5; stroke-linecap: square"/>
   </g>
   <g id="line2d_38">
    <path d="M 212.154071 449.865718 
L 212.154071 449.865718 
" clip-path="url(#pb4bb513f93)" style="fill: none; stroke: #0000ff; stroke-width: 5; stroke-linecap: square"/>
   </g>
   <g id="line2d_39">
    <path d="M 254.469071 396.516701 
L 254.469071 396.516701 
" clip-path="url(#pb4bb513f93)" style="fill: none; stroke: #0000ff; stroke-width: 5; stroke-linecap: square"/>
   </g>
   <g id="line2d_40">
    <path d="M 252.609071 405.472324 
L 252.609071 405.472324 
" clip-path="url(#pb4bb513f93)" style="fill: none; stroke: #0000ff; stroke-width: 5; stroke-linecap: square"/>
   </g>
   <g id="line2d_41">
    <path d="M 233.079071 425.383699 
L 233.079071 425.383699 
" clip-path="url(#pb4bb513f93)" style="fill: none; stroke: #0000ff; stroke-width: 5; stroke-linecap: square"/>
   </g>
   <g id="line2d_42">
    <path d="M 260.979071 395.32817 
L 260.979071 395.32817 
" clip-path="url(#pb4bb513f93)" style="fill: none; stroke: #0000ff; stroke-width: 5; stroke-linecap: square"/>
   </g>
   <g id="line2d_43">
    <path d="M 212.154071 449.865718 
L 220.059071 449.009871 
" clip-path="url(#pb4bb513f93)" style="fill: none; stroke: #0000ff; stroke-width: 5; stroke-linecap: square"/>
   </g>
   <g id="line2d_44">
    <path d="M 252.609071 405.472324 
L 255.864071 410.955189 
" clip-path="url(#pb4bb513f93)" style="fill: none; stroke: #0000ff; stroke-width: 5; stroke-linecap: square"/>
   </g>
   <g id="line2d_45">
    <path d="M 260.979071 395.32817 
L 260.979071 395.32817 
" clip-path="url(#pb4bb513f93)" style="fill: none; stroke: #0000ff; stroke-width: 5; stroke-linecap: square"/>
   </g>
   <g id="line2d_46">
    <path d="M 220.059071 449.009871 
L 228.429071 447.490822 
" clip-path="url(#pb4bb513f93)" style="fill: none; stroke: #0000ff; stroke-width: 5; stroke-linecap: square"/>
   </g>
   <g id="line2d_47">
    <path d="M 255.864071 410.955189 
L 257.259071 417.66371 
" clip-path="url(#pb4bb513f93)" style="fill: none; stroke: #0000ff; stroke-width: 5; stroke-linecap: square"/>
   </g>
   <g id="line2d_48">
    <path d="M 228.429071 447.490822 
L 228.429071 447.490822 
" clip-path="url(#pb4bb513f93)" style="fill: none; stroke: #0000ff; stroke-width: 5; stroke-linecap: square"/>
   </g>
   <g id="line2d_49">
    <path d="M 237.729071 441.578703 
L 237.729071 441.578703 
" clip-path="url(#pb4bb513f93)" style="fill: none; stroke: #0000ff; stroke-width: 5; stroke-linecap: square"/>
   </g>
   <g id="line2d_50">
    <path d="M 257.259071 417.66371 
L 257.259071 417.66371 
" clip-path="url(#pb4bb513f93)" style="fill: none; stroke: #0000ff; stroke-width: 5; stroke-linecap: square"/>
   </g>
   <g id="line2d_51">
    <path d="M 237.729071 441.578703 
L 237.729071 441.578703 
" clip-path="url(#pb4bb513f93)" style="fill: none; stroke: #0000ff; stroke-width: 5; stroke-linecap: square"/>
   </g>
   <g id="line2d_52">
    <path d="M 230.754071 454.807276 
L 230.754071 454.807276 
" clip-path="url(#pb4bb513f93)" style="fill: none; stroke: #0000ff; stroke-width: 5; stroke-linecap: square"/>
   </g>
   <g id="line2d_53">
    <path d="M 254.004071 429.981012 
L 254.004071 429.981012 
" clip-path="url(#pb4bb513f93)" style="fill: none; stroke: #0000ff; stroke-width: 5; stroke-linecap: square"/>
   </g>
   <g id="line2d_54">
    <path d="M 230.754071 454.807276 
L 233.544071 458.484181 
" clip-path="url(#pb4bb513f93)" style="fill: none; stroke: #0000ff; stroke-width: 5; stroke-linecap: square"/>
   </g>
   <g id="line2d_55">
    <path d="M 254.004071 429.981012 
L 259.584071 428.323591 
" clip-path="url(#pb4bb513f93)" style="fill: none; stroke: #0000ff; stroke-width: 5; stroke-linecap: square"/>
   </g>
   <g id="line2d_56">
    <path d="M 233.544071 458.484181 
L 237.264071 462.109831 
" clip-path="url(#pb4bb513f93)" style="fill: none; stroke: #0000ff; stroke-width: 5; stroke-linecap: square"/>
   </g>
   <g id="line2d_57">
    <path d="M 259.584071 428.323591 
L 262.839071 430.615261 
" clip-path="url(#pb4bb513f93)" style="fill: none; stroke: #0000ff; stroke-width: 5; stroke-linecap: square"/>
   </g>
   <g id="line2d_58">
    <path d="M 237.264071 462.109831 
L 240.054071 465.082913 
" clip-path="url(#pb4bb513f93)" style="fill: none; stroke: #0000ff; stroke-width: 5; stroke-linecap: square"/>
   </g>
   <g id="line2d_59">
    <path d="M 262.839071 430.615261 
L 262.839071 430.615261 
" clip-path="url(#pb4bb513f93)" style="fill: none; stroke: #0000ff; stroke-width: 5; stroke-linecap: square"/>
   </g>
   <g id="line2d_60">
    <path d="M 240.054071 465.082913 
L 242.844071 467.755765 
" clip-path="url(#pb4bb513f93)" style="fill: none; stroke: #0000ff; stroke-width: 5; stroke-linecap: square"/>
   </g>
   <g id="line2d_61">
    <path d="M 242.844071 467.755765 
L 246.564071 470.355839 
" clip-path="url(#pb4bb513f93)" style="fill: none; stroke: #0000ff; stroke-width: 5; stroke-linecap: square"/>
   </g>
   <g id="line2d_62">
    <path d="M 194.019071 444.31727 
L 201.924071 450.311835 
" clip-path="url(#pb4bb513f93)" style="fill: none; stroke: #0000ff; stroke-width: 5; stroke-linecap: square"/>
   </g>
   <g id="line2d_63">
    <path d="M 194.019071 444.31727 
L 201.924071 450.311835 
" clip-path="url(#pb4bb513f93)" style="fill: none; stroke: #0000ff; stroke-width: 5; stroke-linecap: square"/>
   </g>
   <g id="line2d_64">
    <path d="M 201.924071 450.311835 
L 204.714071 452.8094 
" clip-path="url(#pb4bb513f93)" style="fill: none; stroke: #0000ff; stroke-width: 5; stroke-linecap: square"/>
   </g>
   <g id="line2d_65">
    <path d="M 247.494071 398.188006 
L 254.469071 396.516701 
" clip-path="url(#pb4bb513f93)" style="fill: none; stroke: #0000ff; stroke-width: 5; stroke-linecap: square"/>
   </g>
   <g id="line2d_66">
    <path d="M 201.924071 450.311835 
L 204.714071 452.8094 
" clip-path="url(#pb4bb513f93)" style="fill: none; stroke: #0000ff; stroke-width: 5; stroke-linecap: square"/>
   </g>
   <g id="line2d_67">
    <path d="M 254.934071 388.953796 
L 254.469071 396.516701 
" clip-path="url(#pb4bb513f93)" style="fill: none; stroke: #0000ff; stroke-width: 5; stroke-linecap: square"/>
   </g>
   <g id="line2d_68">
    <path d="M 204.714071 452.8094 
L 212.154071 449.865718 
" clip-path="url(#pb4bb513f93)" style="fill: none; stroke: #0000ff; stroke-width: 5; stroke-linecap: square"/>
   </g>
   <g id="line2d_69">
    <path d="M 254.469071 396.516701 
L 252.609071 405.472324 
" clip-path="url(#pb4bb513f93)" style="fill: none; stroke: #0000ff; stroke-width: 5; stroke-linecap: square"/>
   </g>
   <g id="line2d_70">
    <path d="M 233.079071 425.383699 
L 212.154071 449.865718 
" clip-path="url(#pb4bb513f93)" style="fill: none; stroke: #0000ff; stroke-width: 5; stroke-linecap: square"/>
   </g>
   <g id="line2d_71">
    <path d="M 254.469071 396.516701 
L 260.979071 395.32817 
" clip-path="url(#pb4bb513f93)" style="fill: none; stroke: #0000ff; stroke-width: 5; stroke-linecap: square"/>
   </g>
   <g id="line2d_72">
    <path d="M 212.154071 449.865718 
L 220.059071 449.009871 
" clip-path="url(#pb4bb513f93)" style="fill: none; stroke: #0000ff; stroke-width: 5; stroke-linecap: square"/>
   </g>
   <g id="line2d_73">
    <path d="M 252.609071 405.472324 
L 255.864071 410.955189 
" clip-path="url(#pb4bb513f93)" style="fill: none; stroke: #0000ff; stroke-width: 5; stroke-linecap: square"/>
   </g>
   <g id="line2d_74">
    <path d="M 212.154071 449.865718 
L 220.059071 449.009871 
" clip-path="url(#pb4bb513f93)" style="fill: none; stroke: #0000ff; stroke-width: 5; stroke-linecap: square"/>
   </g>
   <g id="line2d_75">
    <path d="M 252.609071 405.472324 
L 255.864071 410.955189 
" clip-path="url(#pb4bb513f93)" style="fill: none; stroke: #0000ff; stroke-width: 5; stroke-linecap: square"/>
   </g>
   <g id="line2d_76">
    <path d="M 228.429071 447.490822 
L 237.729071 441.578703 
" clip-path="url(#pb4bb513f93)" style="fill: none; stroke: #0000ff; stroke-width: 5; stroke-linecap: square"/>
   </g>
   <g id="line2d_77">
    <path d="M 257.259071 417.66371 
L 237.729071 441.578703 
" clip-path="url(#pb4bb513f93)" style="fill: none; stroke: #0000ff; stroke-width: 5; stroke-linecap: square"/>
   </g>
   <g id="line2d_78">
    <path d="M 237.729071 441.578703 
L 230.754071 454.807276 
" clip-path="url(#pb4bb513f93)" style="fill: none; stroke: #0000ff; stroke-width: 5; stroke-linecap: square"/>
   </g>
   <g id="line2d_79">
    <path d="M 237.729071 441.578703 
L 254.004071 429.981012 
" clip-path="url(#pb4bb513f93)" style="fill: none; stroke: #0000ff; stroke-width: 5; stroke-linecap: square"/>
   </g>
   <g id="line2d_80">
    <path d="M 237.264071 462.109831 
L 240.054071 465.082913 
" clip-path="url(#pb4bb513f93)" style="fill: none; stroke: #0000ff; stroke-width: 5; stroke-linecap: square"/>
   </g>
   <g id="line2d_81">
    <path d="M 237.264071 462.109831 
L 240.054071 465.082913 
" clip-path="url(#pb4bb513f93)" style="fill: none; stroke: #0000ff; stroke-width: 5; stroke-linecap: square"/>
   </g>
   <g id="patch_3">
    <path d="M 169.839071 1116 
L 169.839071 7.2 
" style="fill: none; stroke: #000000; stroke-width: 0.8; stroke-linejoin: miter; stroke-linecap: square"/>
   </g>
   <g id="patch_4">
    <path d="M 1285.839071 1116 
L 1285.839071 7.2 
" style="fill: none; stroke: #000000; stroke-width: 0.8; stroke-linejoin: miter; stroke-linecap: square"/>
   </g>
   <g id="patch_5">
    <path d="M 169.839071 1116 
L 1285.839071 1116 
" style="fill: none; stroke: #000000; stroke-width: 0.8; stroke-linejoin: miter; stroke-linecap: square"/>
   </g>
   <g id="patch_6">
    <path d="M 169.839071 7.2 
L 1285.839071 7.2 
" style="fill: none; stroke: #000000; stroke-width: 0.8; stroke-linejoin: miter; stroke-linecap: square"/>
   </g>
   <g id="legend_1">
    <g id="patch_7">
     <path d="M 588.140654 306.080702 
L 1243.839071 306.080702 
Q 1255.839071 306.080702 1255.839071 294.080702 
L 1255.839071 49.2 
Q 1255.839071 37.2 1243.839071 37.2 
L 588.140654 37.2 
Q 576.140654 37.2 576.140654 49.2 
L 576.140654 294.080702 
Q 576.140654 306.080702 588.140654 306.080702 
z
" style="fill: #ffffff; opacity: 0.8; stroke: #cccccc; stroke-linejoin: miter"/>
    </g>
    <g id="PathCollection_67">
     <path d="M 660.140654 92.45 
C 661.46667 92.45 662.738553 91.923168 663.676188 90.985534 
C 664.613823 90.047899 665.140654 88.776016 665.140654 87.45 
C 665.140654 86.123985 664.613823 84.852101 663.676188 83.914466 
C 662.738553 82.976832 661.46667 82.45 660.140654 82.45 
C 658.814639 82.45 657.542755 82.976832 656.60512 83.914466 
C 655.667486 84.852101 655.140654 86.123985 655.140654 87.45 
C 655.140654 88.776016 655.667486 90.047899 656.60512 90.985534 
C 657.542755 91.923168 658.814639 92.45 660.140654 92.45 
L 660.140654 92.45 
z
" style="fill: none; stroke: #808080; stroke-opacity: 0.3"/>
    </g>
    <g id="text_17">
     <!-- Wave front points -->
     <g transform="translate(768.140654 103.2) scale(0.6 -0.6)">
      <defs>
       <path id="CMR17-57" d="M 5523 3775 
C 5581 3948 5677 4173 6048 4185 
L 6048 4352 
C 5939 4345 5715 4339 5600 4339 
C 5440 4339 5158 4339 5005 4352 
L 5005 4185 
C 5293 4179 5414 4019 5414 3865 
C 5414 3820 5408 3794 5382 3724 
L 4390 557 
L 3347 3890 
C 3328 3955 3322 3980 3322 4006 
C 3322 4185 3603 4185 3725 4185 
L 3725 4352 
C 3539 4339 3219 4339 3021 4339 
C 2861 4339 2573 4339 2426 4352 
L 2426 4185 
C 2720 4185 2797 4166 2861 4051 
C 2886 3993 2989 3660 2989 3640 
C 2989 3615 2976 3576 2970 3557 
L 2029 564 
L 986 3890 
C 954 3980 954 3993 954 4006 
C 954 4185 1235 4185 1363 4185 
L 1363 4352 
C 1178 4339 858 4339 659 4339 
C 493 4339 211 4339 58 4352 
L 58 4185 
C 442 4185 467 4147 531 3942 
L 1779 -20 
C 1811 -116 1811 -128 1869 -128 
C 1920 -128 1939 -116 1965 -26 
L 3053 3448 
L 4141 -26 
C 4166 -116 4186 -128 4237 -128 
C 4294 -128 4294 -116 4326 -20 
L 5523 3775 
z
" transform="scale(0.015625)"/>
       <path id="CMR17-76" d="M 2502 2173 
C 2560 2315 2662 2572 3034 2585 
L 3034 2752 
C 2912 2745 2752 2739 2630 2739 
C 2496 2739 2285 2739 2157 2752 
L 2157 2585 
C 2317 2572 2406 2495 2406 2328 
C 2406 2270 2406 2257 2368 2167 
L 1664 379 
L 902 2308 
C 864 2392 864 2405 864 2431 
C 864 2585 1075 2585 1171 2585 
L 1171 2752 
C 1018 2739 736 2739 576 2739 
C 403 2739 205 2739 64 2752 
L 64 2585 
C 307 2585 442 2585 518 2386 
L 1446 44 
C 1485 -52 1491 -64 1549 -64 
C 1606 -64 1613 -52 1651 44 
L 2502 2173 
z
" transform="scale(0.015625)"/>
       <path id="CMR17-66" d="M 979 2585 
L 1709 2585 
L 1709 2752 
L 966 2752 
L 966 3539 
C 966 4076 1235 4377 1510 4377 
C 1594 4377 1690 4363 1754 4339 
C 1702 4326 1568 4281 1568 4121 
C 1568 3955 1696 3904 1786 3904 
C 1875 3904 2003 3955 2003 4121 
C 2003 4353 1773 4480 1517 4480 
C 1152 4480 653 4211 653 3526 
L 653 2752 
L 141 2752 
L 141 2585 
L 653 2585 
L 653 441 
C 653 198 627 166 218 166 
L 218 0 
C 371 12 666 12 832 12 
C 1018 12 1344 12 1517 0 
L 1517 166 
C 1056 166 979 166 979 454 
L 979 2585 
z
" transform="scale(0.015625)"/>
       <path id="CMR17-6f" d="M 2758 1356 
C 2758 2176 2163 2816 1466 2816 
C 768 2816 173 2176 173 1356 
C 173 550 768 -64 1466 -64 
C 2163 -64 2758 550 2758 1356 
z
M 1466 51 
C 1165 51 909 230 762 480 
C 602 768 582 1126 582 1408 
C 582 1676 595 2009 762 2297 
C 890 2508 1139 2713 1466 2713 
C 1754 2713 1997 2553 2150 2329 
C 2349 2028 2349 1606 2349 1408 
C 2349 1158 2336 774 2163 467 
C 1984 172 1709 51 1466 51 
z
" transform="scale(0.015625)"/>
       <path id="CMR17-6e" d="M 2656 1954 
C 2656 2282 2592 2816 1837 2816 
C 1331 2816 1069 2424 973 2166 
L 966 2166 
L 966 2816 
L 211 2745 
L 211 2578 
C 589 2578 646 2540 646 2231 
L 646 443 
C 646 198 621 166 211 166 
L 211 0 
C 365 12 646 12 813 12 
C 979 12 1267 12 1421 0 
L 1421 166 
C 1011 166 986 192 986 443 
L 986 1678 
C 986 2269 1344 2713 1792 2713 
C 2266 2713 2317 2289 2317 1980 
L 2317 443 
C 2317 198 2291 166 1882 166 
L 1882 0 
C 2035 12 2317 12 2483 12 
C 2650 12 2938 12 3091 0 
L 3091 166 
C 2682 166 2656 192 2656 443 
L 2656 1954 
z
" transform="scale(0.015625)"/>
       <path id="CMR17-74" d="M 966 2585 
L 1862 2585 
L 1862 2752 
L 966 2752 
L 966 3968 
L 851 3968 
C 838 3292 614 2700 70 2687 
L 70 2585 
L 627 2585 
L 627 778 
C 627 655 627 -64 1370 -64 
C 1747 -64 1965 308 1965 784 
L 1965 1151 
L 1850 1151 
L 1850 790 
C 1850 347 1677 51 1408 51 
C 1222 51 966 179 966 765 
L 966 2585 
z
" transform="scale(0.015625)"/>
       <path id="CMR17-70" d="M 1408 -1114 
C 998 -1114 973 -1088 973 -834 
L 973 380 
C 1158 109 1427 -64 1766 -64 
C 2406 -64 3053 503 3053 1382 
C 3053 2196 2496 2816 1837 2816 
C 1453 2816 1139 2603 960 2345 
L 960 2816 
L 198 2745 
L 198 2577 
C 576 2577 634 2539 634 2228 
L 634 -834 
C 634 -1081 608 -1114 198 -1114 
L 198 -1280 
C 352 -1268 634 -1268 800 -1268 
C 966 -1268 1254 -1268 1408 -1280 
L 1408 -1114 
z
M 973 2015 
C 973 2106 973 2241 1222 2481 
C 1254 2506 1472 2700 1792 2700 
C 2259 2700 2643 2112 2643 1376 
C 2643 639 2234 38 1728 38 
C 1498 38 1248 148 1056 451 
C 973 594 973 632 973 736 
L 973 2015 
z
" transform="scale(0.015625)"/>
      </defs>
      <use xlink:href="#CMR17-57" transform="scale(0.996264)"/>
      <use xlink:href="#CMR17-61" transform="translate(87.289395 0) scale(0.996264)"/>
      <use xlink:href="#CMR17-76" transform="translate(130.377418 0) scale(0.996264)"/>
      <use xlink:href="#CMR17-65" transform="translate(176.06788 0) scale(0.996264)"/>
      <use xlink:href="#CMR17-66" transform="translate(246.629506 0) scale(0.996264)"/>
      <use xlink:href="#CMR17-72" transform="translate(274.103019 0) scale(0.996264)"/>
      <use xlink:href="#CMR17-6f" transform="translate(309.383787 0) scale(0.996264)"/>
      <use xlink:href="#CMR17-6e" transform="translate(355.074264 0) scale(0.996264)"/>
      <use xlink:href="#CMR17-74" transform="translate(403.36718 0) scale(0.996264)"/>
      <use xlink:href="#CMR17-70" transform="translate(468.723914 0) scale(0.996264)"/>
      <use xlink:href="#CMR17-6f" transform="translate(522.221722 0) scale(0.996264)"/>
      <use xlink:href="#CMR17-69" transform="translate(567.912199 0) scale(0.996264)"/>
      <use xlink:href="#CMR17-6e" transform="translate(592.783258 0) scale(0.996264)"/>
      <use xlink:href="#CMR17-74" transform="translate(641.076174 0) scale(0.996264)"/>
      <use xlink:href="#CMR17-73" transform="translate(676.356941 0) scale(0.996264)"/>
     </g>
    </g>
    <g id="PathCollection_68">
     <path d="M 655.140654 176.076901 
L 665.140654 176.076901 
L 665.140654 166.076901 
L 655.140654 166.076901 
L 655.140654 176.076901 
z
" style="fill: none; stroke: #808080; stroke-opacity: 0.3"/>
    </g>
    <g id="text_18">
     <!-- Wave tail points -->
     <g transform="translate(768.140654 186.826901) scale(0.6 -0.6)">
      <use xlink:href="#CMR17-57" transform="scale(0.996264)"/>
      <use xlink:href="#CMR17-61" transform="translate(87.289395 0) scale(0.996264)"/>
      <use xlink:href="#CMR17-76" transform="translate(130.377418 0) scale(0.996264)"/>
      <use xlink:href="#CMR17-65" transform="translate(176.06788 0) scale(0.996264)"/>
      <use xlink:href="#CMR17-74" transform="translate(246.629506 0) scale(0.996264)"/>
      <use xlink:href="#CMR17-61" transform="translate(281.910274 0) scale(0.996264)"/>
      <use xlink:href="#CMR17-69" transform="translate(327.600751 0) scale(0.996264)"/>
      <use xlink:href="#CMR17-6c" transform="translate(352.47181 0) scale(0.996264)"/>
      <use xlink:href="#CMR17-70" transform="translate(407.418835 0) scale(0.996264)"/>
      <use xlink:href="#CMR17-6f" transform="translate(460.916643 0) scale(0.996264)"/>
      <use xlink:href="#CMR17-69" transform="translate(506.60712 0) scale(0.996264)"/>
      <use xlink:href="#CMR17-6e" transform="translate(531.478179 0) scale(0.996264)"/>
      <use xlink:href="#CMR17-74" transform="translate(579.771095 0) scale(0.996264)"/>
      <use xlink:href="#CMR17-73" transform="translate(615.051862 0) scale(0.996264)"/>
     </g>
    </g>
    <g id="line2d_82">
     <path d="M 600.140654 249.453802 
L 660.140654 249.453802 
L 720.140654 249.453802 
" style="fill: none; stroke: #0000ff; stroke-width: 5; stroke-linecap: square"/>
    </g>
    <g id="text_19">
     <!-- Wave skeleton lines -->
     <g transform="translate(768.140654 270.453802) scale(0.6 -0.6)">
      <use xlink:href="#CMR17-57" transform="scale(0.996264)"/>
      <use xlink:href="#CMR17-61" transform="translate(87.289395 0) scale(0.996264)"/>
      <use xlink:href="#CMR17-76" transform="translate(130.377418 0) scale(0.996264)"/>
      <use xlink:href="#CMR17-65" transform="translate(176.06788 0) scale(0.996264)"/>
      <use xlink:href="#CMR17-73" transform="translate(246.629506 0) scale(0.996264)"/>
      <use xlink:href="#CMR17-6b" transform="translate(282.430844 0) scale(0.996264)"/>
      <use xlink:href="#CMR17-65" transform="translate(328.121306 0) scale(0.996264)"/>
      <use xlink:href="#CMR17-6c" transform="translate(368.606966 0) scale(0.996264)"/>
      <use xlink:href="#CMR17-65" transform="translate(393.478025 0) scale(0.996264)"/>
      <use xlink:href="#CMR17-74" transform="translate(433.963685 0) scale(0.996264)"/>
      <use xlink:href="#CMR17-6f" transform="translate(469.244453 0) scale(0.996264)"/>
      <use xlink:href="#CMR17-6e" transform="translate(514.93493 0) scale(0.996264)"/>
      <use xlink:href="#CMR17-6c" transform="translate(595.906266 0) scale(0.996264)"/>
      <use xlink:href="#CMR17-69" transform="translate(620.777325 0) scale(0.996264)"/>
      <use xlink:href="#CMR17-6e" transform="translate(645.648383 0) scale(0.996264)"/>
      <use xlink:href="#CMR17-65" transform="translate(696.543753 0) scale(0.996264)"/>
      <use xlink:href="#CMR17-73" transform="translate(737.029414 0) scale(0.996264)"/>
     </g>
    </g>
   </g>
  </g>
 </g>
 <defs>
  <clipPath id="pb4bb513f93">
   <rect x="169.839071" y="7.2" width="1116" height="1108.8"/>
  </clipPath>
 </defs>
</svg>
