<?xml version="1.0" encoding="utf-8" standalone="no"?>
<!DOCTYPE svg PUBLIC "-//W3C//DTD SVG 1.1//EN"
  "http://www.w3.org/Graphics/SVG/1.1/DTD/svg11.dtd">
<svg xmlns:xlink="http://www.w3.org/1999/xlink" width="1293.039071pt" height="1247.009934pt" viewBox="0 0 1293.039071 1247.009934" xmlns="http://www.w3.org/2000/svg" version="1.1">
 <metadata>
  <rdf:RDF xmlns:dc="http://purl.org/dc/elements/1.1/" xmlns:cc="http://creativecommons.org/ns#" xmlns:rdf="http://www.w3.org/1999/02/22-rdf-syntax-ns#">
   <cc:Work>
    <dc:type rdf:resource="http://purl.org/dc/dcmitype/StillImage"/>
    <dc:date>2024-12-29T14:19:07.078082</dc:date>
    <dc:format>image/svg+xml</dc:format>
    <dc:creator>
     <cc:Agent>
      <dc:title>Matplotlib v3.9.2, https://matplotlib.org/</dc:title>
     </cc:Agent>
    </dc:creator>
   </cc:Work>
  </rdf:RDF>
 </metadata>
 <defs>
  <style type="text/css">*{stroke-linejoin: round; stroke-linecap: butt}</style>
 </defs>
 <g id="figure_1">
  <g id="patch_1">
   <path d="M 0 1247.009934 
L 1293.039071 1247.009934 
L 1293.039071 0 
L 0 0 
z
" style="fill: #ffffff"/>
  </g>
  <g id="axes_1">
   <g id="patch_2">
    <path d="M 169.839071 1116 
L 1285.839071 1116 
L 1285.839071 7.2 
L 169.839071 7.2 
L 169.839071 1116 
z
" style="fill: none; opacity: 0"/>
   </g>
   <g id="PathCollection_1">
    <defs>
     <path id="C0_0_d60a47b1f3" d="M 0 5 
C 1.326016 5 2.597899 4.473168 3.535534 3.535534 
C 4.473168 2.597899 5 1.326016 5 -0 
C 5 -1.326016 4.473168 -2.597899 3.535534 -3.535534 
C 2.597899 -4.473168 1.326016 -5 0 -5 
C -1.326016 -5 -2.597899 -4.473168 -3.535534 -3.535534 
C -4.473168 -2.597899 -5 -1.326016 -5 0 
C -5 1.326016 -4.473168 2.597899 -3.535534 3.535534 
C -2.597899 4.473168 -1.326016 5 0 5 
z
"/>
    </defs>
    <g clip-path="url(#p1d465d9a6f)">
     <use xlink:href="#C0_0_d60a47b1f3" x="169.839071" y="466.683676" style="fill: none; stroke: #ff0000; stroke-opacity: 0.3"/>
    </g>
    <g clip-path="url(#p1d465d9a6f)">
     <use xlink:href="#C0_0_d60a47b1f3" x="176.535071" y="471.860893" style="fill: none; stroke: #ff0000; stroke-opacity: 0.3"/>
    </g>
   </g>
   <g id="PathCollection_2">
    <path d="M 203.527071 426.950864 
L 213.527071 426.950864 
L 213.527071 416.950864 
L 203.527071 416.950864 
L 203.527071 426.950864 
z
" clip-path="url(#p1d465d9a6f)" style="fill: none; stroke: #008000; stroke-opacity: 0.3"/>
    <path d="M 209.479071 433.762778 
L 219.479071 433.762778 
L 219.479071 423.762778 
L 209.479071 423.762778 
L 209.479071 433.762778 
z
" clip-path="url(#p1d465d9a6f)" style="fill: none; stroke: #008000; stroke-opacity: 0.3"/>
   </g>
   <g id="PathCollection_3">
    <path d="M 230.103071 406.015533 
C 231.429087 406.015533 232.700971 405.488702 233.638605 404.551067 
C 234.57624 403.613433 235.103071 402.341549 235.103071 401.015533 
C 235.103071 399.689518 234.57624 398.417634 233.638605 397.479999 
C 232.700971 396.542365 231.429087 396.015533 230.103071 396.015533 
C 228.777056 396.015533 227.505172 396.542365 226.567537 397.479999 
C 225.629903 398.417634 225.103071 399.689518 225.103071 401.015533 
C 225.103071 402.341549 225.629903 403.613433 226.567537 404.551067 
C 227.505172 405.488702 228.777056 406.015533 230.103071 406.015533 
L 230.103071 406.015533 
z
" clip-path="url(#p1d465d9a6f)" style="fill: none; stroke: #ff0000; stroke-opacity: 0.3"/>
   </g>
   <g id="PathCollection_4">
    <path d="M 228.823071 400.360478 
L 238.823071 400.360478 
L 238.823071 390.360478 
L 228.823071 390.360478 
L 228.823071 400.360478 
z
" clip-path="url(#p1d465d9a6f)" style="fill: none; stroke: #008000; stroke-opacity: 0.3"/>
   </g>
   <g id="PathCollection_5">
    <path d="M 237.543071 394.529703 
C 238.869087 394.529703 240.140971 394.002871 241.078605 393.065237 
C 242.01624 392.127602 242.543071 390.855718 242.543071 389.529703 
C 242.543071 388.203687 242.01624 386.931804 241.078605 385.994169 
C 240.140971 385.056534 238.869087 384.529703 237.543071 384.529703 
C 236.217056 384.529703 234.945172 385.056534 234.007537 385.994169 
C 233.069903 386.931804 232.543071 388.203687 232.543071 389.529703 
C 232.543071 390.855718 233.069903 392.127602 234.007537 393.065237 
C 234.945172 394.002871 236.217056 394.529703 237.543071 394.529703 
L 237.543071 394.529703 
z
" clip-path="url(#p1d465d9a6f)" style="fill: none; stroke: #ff0000; stroke-opacity: 0.3"/>
   </g>
   <g id="PathCollection_6">
    <path d="M 233.287071 393.37789 
L 243.287071 393.37789 
L 243.287071 383.37789 
L 233.287071 383.37789 
L 233.287071 393.37789 
z
" clip-path="url(#p1d465d9a6f)" style="fill: none; stroke: #008000; stroke-opacity: 0.3"/>
   </g>
   <g id="PathCollection_7">
    <defs>
     <path id="C1_0_6f0638f4aa" d="M 0 5 
C 1.326016 5 2.597899 4.473168 3.535534 3.535534 
C 4.473168 2.597899 5 1.326016 5 -0 
C 5 -1.326016 4.473168 -2.597899 3.535534 -3.535534 
C 2.597899 -4.473168 1.326016 -5 0 -5 
C -1.326016 -5 -2.597899 -4.473168 -3.535534 -3.535534 
C -4.473168 -2.597899 -5 -1.326016 -5 0 
C -5 1.326016 -4.473168 2.597899 -3.535534 3.535534 
C -2.597899 4.473168 -1.326016 5 0 5 
z
"/>
    </defs>
    <g clip-path="url(#p1d465d9a6f)">
     <use xlink:href="#C1_0_6f0638f4aa" x="176.535071" y="471.860893" style="fill: none; stroke: #ff0000; stroke-opacity: 0.3"/>
    </g>
    <g clip-path="url(#p1d465d9a6f)">
     <use xlink:href="#C1_0_6f0638f4aa" x="178.767071" y="474.464065" style="fill: none; stroke: #ff0000; stroke-opacity: 0.3"/>
    </g>
   </g>
   <g id="PathCollection_8">
    <path d="M 209.479071 433.762778 
L 219.479071 433.762778 
L 219.479071 423.762778 
L 209.479071 423.762778 
L 209.479071 433.762778 
z
" clip-path="url(#p1d465d9a6f)" style="fill: none; stroke: #008000; stroke-opacity: 0.3"/>
    <path d="M 211.711071 436.154736 
L 221.711071 436.154736 
L 221.711071 426.154736 
L 211.711071 426.154736 
L 211.711071 436.154736 
z
" clip-path="url(#p1d465d9a6f)" style="fill: none; stroke: #008000; stroke-opacity: 0.3"/>
   </g>
   <g id="PathCollection_9">
    <path d="M 230.103071 406.015533 
C 231.429087 406.015533 232.700971 405.488702 233.638605 404.551067 
C 234.57624 403.613433 235.103071 402.341549 235.103071 401.015533 
C 235.103071 399.689518 234.57624 398.417634 233.638605 397.479999 
C 232.700971 396.542365 231.429087 396.015533 230.103071 396.015533 
C 228.777056 396.015533 227.505172 396.542365 226.567537 397.479999 
C 225.629903 398.417634 225.103071 399.689518 225.103071 401.015533 
C 225.103071 402.341549 225.629903 403.613433 226.567537 404.551067 
C 227.505172 405.488702 228.777056 406.015533 230.103071 406.015533 
L 230.103071 406.015533 
z
" clip-path="url(#p1d465d9a6f)" style="fill: none; stroke: #ff0000; stroke-opacity: 0.3"/>
   </g>
   <g id="PathCollection_10">
    <path d="M 228.823071 400.360478 
L 238.823071 400.360478 
L 238.823071 390.360478 
L 228.823071 390.360478 
L 228.823071 400.360478 
z
" clip-path="url(#p1d465d9a6f)" style="fill: none; stroke: #008000; stroke-opacity: 0.3"/>
   </g>
   <g id="PathCollection_11">
    <path d="M 231.591071 410.514959 
C 232.917087 410.514959 234.188971 409.988128 235.126605 409.050493 
C 236.06424 408.112859 236.591071 406.840975 236.591071 405.514959 
C 236.591071 404.188944 236.06424 402.91706 235.126605 401.979426 
C 234.188971 401.041791 232.917087 400.514959 231.591071 400.514959 
C 230.265056 400.514959 228.993172 401.041791 228.055537 401.979426 
C 227.117903 402.91706 226.591071 404.188944 226.591071 405.514959 
C 226.591071 406.840975 227.117903 408.112859 228.055537 409.050493 
C 228.993172 409.988128 230.265056 410.514959 231.591071 410.514959 
L 231.591071 410.514959 
z
" clip-path="url(#p1d465d9a6f)" style="fill: none; stroke: #ff0000; stroke-opacity: 0.3"/>
   </g>
   <g id="PathCollection_12">
    <path d="M 238.495071 392.518443 
L 248.495071 392.518443 
L 248.495071 382.518443 
L 238.495071 382.518443 
L 238.495071 392.518443 
z
" clip-path="url(#p1d465d9a6f)" style="fill: none; stroke: #008000; stroke-opacity: 0.3"/>
   </g>
   <g id="PathCollection_13">
    <path d="M 237.543071 394.529703 
C 238.869087 394.529703 240.140971 394.002871 241.078605 393.065237 
C 242.01624 392.127602 242.543071 390.855718 242.543071 389.529703 
C 242.543071 388.203687 242.01624 386.931804 241.078605 385.994169 
C 240.140971 385.056534 238.869087 384.529703 237.543071 384.529703 
C 236.217056 384.529703 234.945172 385.056534 234.007537 385.994169 
C 233.069903 386.931804 232.543071 388.203687 232.543071 389.529703 
C 232.543071 390.855718 233.069903 392.127602 234.007537 393.065237 
C 234.945172 394.002871 236.217056 394.529703 237.543071 394.529703 
L 237.543071 394.529703 
z
" clip-path="url(#p1d465d9a6f)" style="fill: none; stroke: #ff0000; stroke-opacity: 0.3"/>
   </g>
   <g id="PathCollection_14">
    <path d="M 233.287071 393.37789 
L 243.287071 393.37789 
L 243.287071 383.37789 
L 233.287071 383.37789 
L 233.287071 393.37789 
z
" clip-path="url(#p1d465d9a6f)" style="fill: none; stroke: #008000; stroke-opacity: 0.3"/>
   </g>
   <g id="PathCollection_15">
    <path d="M 218.943071 432.63725 
C 220.269087 432.63725 221.540971 432.110418 222.478605 431.172784 
C 223.41624 430.235149 223.943071 428.963265 223.943071 427.63725 
C 223.943071 426.311234 223.41624 425.039351 222.478605 424.101716 
C 221.540971 423.164082 220.269087 422.63725 218.943071 422.63725 
C 217.617056 422.63725 216.345172 423.164082 215.407537 424.101716 
C 214.469903 425.039351 213.943071 426.311234 213.943071 427.63725 
C 213.943071 428.963265 214.469903 430.235149 215.407537 431.172784 
C 216.345172 432.110418 217.617056 432.63725 218.943071 432.63725 
L 218.943071 432.63725 
z
" clip-path="url(#p1d465d9a6f)" style="fill: none; stroke: #ff0000; stroke-opacity: 0.3"/>
   </g>
   <g id="PathCollection_16">
    <path d="M 216.919071 428.130148 
L 226.919071 428.130148 
L 226.919071 418.130148 
L 216.919071 418.130148 
L 216.919071 428.130148 
z
" clip-path="url(#p1d465d9a6f)" style="fill: none; stroke: #008000; stroke-opacity: 0.3"/>
   </g>
   <g id="PathCollection_17">
    <path d="M 178.767071 479.464065 
C 180.093087 479.464065 181.364971 478.937234 182.302605 477.999599 
C 183.24024 477.061965 183.767071 475.790081 183.767071 474.464065 
C 183.767071 473.13805 183.24024 471.866166 182.302605 470.928532 
C 181.364971 469.990897 180.093087 469.464065 178.767071 469.464065 
C 177.441056 469.464065 176.169172 469.990897 175.231537 470.928532 
C 174.293903 471.866166 173.767071 473.13805 173.767071 474.464065 
C 173.767071 475.790081 174.293903 477.061965 175.231537 477.999599 
C 176.169172 478.937234 177.441056 479.464065 178.767071 479.464065 
L 178.767071 479.464065 
z
" clip-path="url(#p1d465d9a6f)" style="fill: none; stroke: #ff0000; stroke-opacity: 0.3"/>
   </g>
   <g id="PathCollection_18">
    <path d="M 211.711071 436.154736 
L 221.711071 436.154736 
L 221.711071 426.154736 
L 211.711071 426.154736 
L 211.711071 436.154736 
z
" clip-path="url(#p1d465d9a6f)" style="fill: none; stroke: #008000; stroke-opacity: 0.3"/>
   </g>
   <g id="PathCollection_19">
    <path d="M 182.487071 480.105204 
C 183.813087 480.105204 185.084971 479.578373 186.022605 478.640738 
C 186.96024 477.703104 187.487071 476.43122 187.487071 475.105204 
C 187.487071 473.779189 186.96024 472.507305 186.022605 471.56967 
C 185.084971 470.632036 183.813087 470.105204 182.487071 470.105204 
C 181.161056 470.105204 179.889172 470.632036 178.951537 471.56967 
C 178.013903 472.507305 177.487071 473.779189 177.487071 475.105204 
C 177.487071 476.43122 178.013903 477.703104 178.951537 478.640738 
C 179.889172 479.578373 181.161056 480.105204 182.487071 480.105204 
L 182.487071 480.105204 
z
" clip-path="url(#p1d465d9a6f)" style="fill: none; stroke: #ff0000; stroke-opacity: 0.3"/>
   </g>
   <g id="PathCollection_20">
    <path d="M 219.895071 429.626232 
L 229.895071 429.626232 
L 229.895071 419.626232 
L 219.895071 419.626232 
L 219.895071 429.626232 
z
" clip-path="url(#p1d465d9a6f)" style="fill: none; stroke: #008000; stroke-opacity: 0.3"/>
   </g>
   <g id="PathCollection_21">
    <path d="M 231.591071 410.514959 
C 232.917087 410.514959 234.188971 409.988128 235.126605 409.050493 
C 236.06424 408.112859 236.591071 406.840975 236.591071 405.514959 
C 236.591071 404.188944 236.06424 402.91706 235.126605 401.979426 
C 234.188971 401.041791 232.917087 400.514959 231.591071 400.514959 
C 230.265056 400.514959 228.993172 401.041791 228.055537 401.979426 
C 227.117903 402.91706 226.591071 404.188944 226.591071 405.514959 
C 226.591071 406.840975 227.117903 408.112859 228.055537 409.050493 
C 228.993172 409.988128 230.265056 410.514959 231.591071 410.514959 
L 231.591071 410.514959 
z
" clip-path="url(#p1d465d9a6f)" style="fill: none; stroke: #ff0000; stroke-opacity: 0.3"/>
   </g>
   <g id="PathCollection_22">
    <path d="M 238.495071 392.518443 
L 248.495071 392.518443 
L 248.495071 382.518443 
L 238.495071 382.518443 
L 238.495071 392.518443 
z
" clip-path="url(#p1d465d9a6f)" style="fill: none; stroke: #008000; stroke-opacity: 0.3"/>
   </g>
   <g id="PathCollection_23">
    <path d="M 233.079071 414.90389 
C 234.405087 414.90389 235.676971 414.377058 236.614605 413.439424 
C 237.55224 412.501789 238.079071 411.229905 238.079071 409.90389 
C 238.079071 408.577874 237.55224 407.30599 236.614605 406.368356 
C 235.676971 405.430721 234.405087 404.90389 233.079071 404.90389 
C 231.753056 404.90389 230.481172 405.430721 229.543537 406.368356 
C 228.605903 407.30599 228.079071 408.577874 228.079071 409.90389 
C 228.079071 411.229905 228.605903 412.501789 229.543537 413.439424 
C 230.481172 414.377058 231.753056 414.90389 233.079071 414.90389 
L 233.079071 414.90389 
z
" clip-path="url(#p1d465d9a6f)" style="fill: none; stroke: #ff0000; stroke-opacity: 0.3"/>
   </g>
   <g id="PathCollection_24">
    <path d="M 234.031071 406.040758 
L 244.031071 406.040758 
L 244.031071 396.040758 
L 234.031071 396.040758 
L 234.031071 406.040758 
z
" clip-path="url(#p1d465d9a6f)" style="fill: none; stroke: #008000; stroke-opacity: 0.3"/>
   </g>
   <g id="PathCollection_25">
    <path d="M 218.943071 432.63725 
C 220.269087 432.63725 221.540971 432.110418 222.478605 431.172784 
C 223.41624 430.235149 223.943071 428.963265 223.943071 427.63725 
C 223.943071 426.311234 223.41624 425.039351 222.478605 424.101716 
C 221.540971 423.164082 220.269087 422.63725 218.943071 422.63725 
C 217.617056 422.63725 216.345172 423.164082 215.407537 424.101716 
C 214.469903 425.039351 213.943071 426.311234 213.943071 427.63725 
C 213.943071 428.963265 214.469903 430.235149 215.407537 431.172784 
C 216.345172 432.110418 217.617056 432.63725 218.943071 432.63725 
L 218.943071 432.63725 
z
" clip-path="url(#p1d465d9a6f)" style="fill: none; stroke: #ff0000; stroke-opacity: 0.3"/>
   </g>
   <g id="PathCollection_26">
    <path d="M 216.919071 428.130148 
L 226.919071 428.130148 
L 226.919071 418.130148 
L 216.919071 418.130148 
L 216.919071 428.130148 
z
" clip-path="url(#p1d465d9a6f)" style="fill: none; stroke: #008000; stroke-opacity: 0.3"/>
   </g>
   <g id="PathCollection_27">
    <path d="M 240.519071 403.722752 
C 241.845087 403.722752 243.116971 403.195921 244.054605 402.258286 
C 244.99224 401.320652 245.519071 400.048768 245.519071 398.722752 
C 245.519071 397.396737 244.99224 396.124853 244.054605 395.187218 
C 243.116971 394.249584 241.845087 393.722752 240.519071 393.722752 
C 239.193056 393.722752 237.921172 394.249584 236.983537 395.187218 
C 236.045903 396.124853 235.519071 397.396737 235.519071 398.722752 
C 235.519071 400.048768 236.045903 401.320652 236.983537 402.258286 
C 237.921172 403.195921 239.193056 403.722752 240.519071 403.722752 
L 240.519071 403.722752 
z
" clip-path="url(#p1d465d9a6f)" style="fill: none; stroke: #ff0000; stroke-opacity: 0.3"/>
   </g>
   <g id="PathCollection_28">
    <path d="M 239.983071 396.933588 
L 249.983071 396.933588 
L 249.983071 386.933588 
L 239.983071 386.933588 
L 239.983071 396.933588 
z
" clip-path="url(#p1d465d9a6f)" style="fill: none; stroke: #008000; stroke-opacity: 0.3"/>
   </g>
   <g id="PathCollection_29">
    <defs>
     <path id="C2_0_4528da98f8" d="M 0 5 
C 1.326016 5 2.597899 4.473168 3.535534 3.535534 
C 4.473168 2.597899 5 1.326016 5 -0 
C 5 -1.326016 4.473168 -2.597899 3.535534 -3.535534 
C 2.597899 -4.473168 1.326016 -5 0 -5 
C -1.326016 -5 -2.597899 -4.473168 -3.535534 -3.535534 
C -4.473168 -2.597899 -5 -1.326016 -5 0 
C -5 1.326016 -4.473168 2.597899 -3.535534 3.535534 
C -2.597899 4.473168 -1.326016 5 0 5 
z
"/>
    </defs>
    <g clip-path="url(#p1d465d9a6f)">
     <use xlink:href="#C2_0_4528da98f8" x="182.487071" y="475.105204" style="fill: none; stroke: #ff0000; stroke-opacity: 0.3"/>
    </g>
    <g clip-path="url(#p1d465d9a6f)">
     <use xlink:href="#C2_0_4528da98f8" x="191.415071" y="470.479591" style="fill: none; stroke: #ff0000; stroke-opacity: 0.3"/>
    </g>
   </g>
   <g id="PathCollection_30">
    <path d="M 219.895071 429.626232 
L 229.895071 429.626232 
L 229.895071 419.626232 
L 219.895071 419.626232 
L 219.895071 429.626232 
z
" clip-path="url(#p1d465d9a6f)" style="fill: none; stroke: #008000; stroke-opacity: 0.3"/>
    <path d="M 223.615071 432.54015 
L 233.615071 432.54015 
L 233.615071 422.54015 
L 223.615071 422.54015 
L 223.615071 432.54015 
z
" clip-path="url(#p1d465d9a6f)" style="fill: none; stroke: #008000; stroke-opacity: 0.3"/>
   </g>
   <g id="PathCollection_31">
    <defs>
     <path id="C3_0_848db4cd69" d="M 0 5 
C 1.326016 5 2.597899 4.473168 3.535534 3.535534 
C 4.473168 2.597899 5 1.326016 5 -0 
C 5 -1.326016 4.473168 -2.597899 3.535534 -3.535534 
C 2.597899 -4.473168 1.326016 -5 0 -5 
C -1.326016 -5 -2.597899 -4.473168 -3.535534 -3.535534 
C -4.473168 -2.597899 -5 -1.326016 -5 0 
C -5 1.326016 -4.473168 2.597899 -3.535534 3.535534 
C -2.597899 4.473168 -1.326016 5 0 5 
z
"/>
    </defs>
    <g clip-path="url(#p1d465d9a6f)">
     <use xlink:href="#C3_0_848db4cd69" x="233.079071" y="409.90389" style="fill: none; stroke: #ff0000; stroke-opacity: 0.3"/>
    </g>
    <g clip-path="url(#p1d465d9a6f)">
     <use xlink:href="#C3_0_848db4cd69" x="236.055071" y="414.866714" style="fill: none; stroke: #ff0000; stroke-opacity: 0.3"/>
    </g>
   </g>
   <g id="PathCollection_32">
    <path d="M 234.031071 406.040758 
L 244.031071 406.040758 
L 244.031071 396.040758 
L 234.031071 396.040758 
L 234.031071 406.040758 
z
" clip-path="url(#p1d465d9a6f)" style="fill: none; stroke: #008000; stroke-opacity: 0.3"/>
    <path d="M 236.263071 412.043664 
L 246.263071 412.043664 
L 246.263071 402.043664 
L 236.263071 402.043664 
L 236.263071 412.043664 
z
" clip-path="url(#p1d465d9a6f)" style="fill: none; stroke: #008000; stroke-opacity: 0.3"/>
   </g>
   <g id="PathCollection_33">
    <path d="M 240.519071 403.722752 
C 241.845087 403.722752 243.116971 403.195921 244.054605 402.258286 
C 244.99224 401.320652 245.519071 400.048768 245.519071 398.722752 
C 245.519071 397.396737 244.99224 396.124853 244.054605 395.187218 
C 243.116971 394.249584 241.845087 393.722752 240.519071 393.722752 
C 239.193056 393.722752 237.921172 394.249584 236.983537 395.187218 
C 236.045903 396.124853 235.519071 397.396737 235.519071 398.722752 
C 235.519071 400.048768 236.045903 401.320652 236.983537 402.258286 
C 237.921172 403.195921 239.193056 403.722752 240.519071 403.722752 
L 240.519071 403.722752 
z
" clip-path="url(#p1d465d9a6f)" style="fill: none; stroke: #ff0000; stroke-opacity: 0.3"/>
   </g>
   <g id="PathCollection_34">
    <path d="M 239.983071 396.933588 
L 249.983071 396.933588 
L 249.983071 386.933588 
L 239.983071 386.933588 
L 239.983071 396.933588 
z
" clip-path="url(#p1d465d9a6f)" style="fill: none; stroke: #008000; stroke-opacity: 0.3"/>
   </g>
   <g id="PathCollection_35">
    <defs>
     <path id="C4_0_95801ec6b1" d="M 0 5 
C 1.326016 5 2.597899 4.473168 3.535534 3.535534 
C 4.473168 2.597899 5 1.326016 5 -0 
C 5 -1.326016 4.473168 -2.597899 3.535534 -3.535534 
C 2.597899 -4.473168 1.326016 -5 0 -5 
C -1.326016 -5 -2.597899 -4.473168 -3.535534 -3.535534 
C -4.473168 -2.597899 -5 -1.326016 -5 0 
C -5 1.326016 -4.473168 2.597899 -3.535534 3.535534 
C -2.597899 4.473168 -1.326016 5 0 5 
z
"/>
    </defs>
    <g clip-path="url(#p1d465d9a6f)">
     <use xlink:href="#C4_0_95801ec6b1" x="191.415071" y="470.479591" style="fill: none; stroke: #ff0000; stroke-opacity: 0.3"/>
    </g>
    <g clip-path="url(#p1d465d9a6f)">
     <use xlink:href="#C4_0_95801ec6b1" x="200.343071" y="466.875988" style="fill: none; stroke: #ff0000; stroke-opacity: 0.3"/>
    </g>
   </g>
   <g id="PathCollection_36">
    <path d="M 223.615071 432.54015 
L 233.615071 432.54015 
L 233.615071 422.54015 
L 223.615071 422.54015 
L 223.615071 432.54015 
z
" clip-path="url(#p1d465d9a6f)" style="fill: none; stroke: #008000; stroke-opacity: 0.3"/>
    <path d="M 228.079071 433.105656 
L 238.079071 433.105656 
L 238.079071 423.105656 
L 228.079071 423.105656 
L 228.079071 433.105656 
z
" clip-path="url(#p1d465d9a6f)" style="fill: none; stroke: #008000; stroke-opacity: 0.3"/>
   </g>
   <g id="PathCollection_37">
    <defs>
     <path id="C5_0_c6565c8320" d="M 0 5 
C 1.326016 5 2.597899 4.473168 3.535534 3.535534 
C 4.473168 2.597899 5 1.326016 5 -0 
C 5 -1.326016 4.473168 -2.597899 3.535534 -3.535534 
C 2.597899 -4.473168 1.326016 -5 0 -5 
C -1.326016 -5 -2.597899 -4.473168 -3.535534 -3.535534 
C -4.473168 -2.597899 -5 -1.326016 -5 0 
C -5 1.326016 -4.473168 2.597899 -3.535534 3.535534 
C -2.597899 4.473168 -1.326016 5 0 5 
z
"/>
    </defs>
    <g clip-path="url(#p1d465d9a6f)">
     <use xlink:href="#C5_0_c6565c8320" x="236.055071" y="414.866714" style="fill: none; stroke: #ff0000; stroke-opacity: 0.3"/>
    </g>
    <g clip-path="url(#p1d465d9a6f)">
     <use xlink:href="#C5_0_c6565c8320" x="237.543071" y="421.045561" style="fill: none; stroke: #ff0000; stroke-opacity: 0.3"/>
    </g>
   </g>
   <g id="PathCollection_38">
    <path d="M 236.263071 412.043664 
L 246.263071 412.043664 
L 246.263071 402.043664 
L 236.263071 402.043664 
L 236.263071 412.043664 
z
" clip-path="url(#p1d465d9a6f)" style="fill: none; stroke: #008000; stroke-opacity: 0.3"/>
    <path d="M 237.007071 419.281858 
L 247.007071 419.281858 
L 247.007071 409.281858 
L 237.007071 409.281858 
L 237.007071 419.281858 
z
" clip-path="url(#p1d465d9a6f)" style="fill: none; stroke: #008000; stroke-opacity: 0.3"/>
   </g>
   <g id="PathCollection_39">
    <path d="M 200.343071 471.875988 
C 201.669087 471.875988 202.940971 471.349156 203.878605 470.411522 
C 204.81624 469.473887 205.343071 468.202003 205.343071 466.875988 
C 205.343071 465.549972 204.81624 464.278088 203.878605 463.340454 
C 202.940971 462.402819 201.669087 461.875988 200.343071 461.875988 
C 199.017056 461.875988 197.745172 462.402819 196.807537 463.340454 
C 195.869903 464.278088 195.343071 465.549972 195.343071 466.875988 
C 195.343071 468.202003 195.869903 469.473887 196.807537 470.411522 
C 197.745172 471.349156 199.017056 471.875988 200.343071 471.875988 
L 200.343071 471.875988 
z
" clip-path="url(#p1d465d9a6f)" style="fill: none; stroke: #ff0000; stroke-opacity: 0.3"/>
   </g>
   <g id="PathCollection_40">
    <path d="M 228.079071 433.105656 
L 238.079071 433.105656 
L 238.079071 423.105656 
L 228.079071 423.105656 
L 228.079071 433.105656 
z
" clip-path="url(#p1d465d9a6f)" style="fill: none; stroke: #008000; stroke-opacity: 0.3"/>
   </g>
   <g id="PathCollection_41">
    <path d="M 205.551071 470.366799 
C 206.877087 470.366799 208.148971 469.839967 209.086605 468.902333 
C 210.02424 467.964698 210.551071 466.692814 210.551071 465.366799 
C 210.551071 464.040783 210.02424 462.768899 209.086605 461.831265 
C 208.148971 460.89363 206.877087 460.366799 205.551071 460.366799 
C 204.225056 460.366799 202.953172 460.89363 202.015537 461.831265 
C 201.077903 462.768899 200.551071 464.040783 200.551071 465.366799 
C 200.551071 466.692814 201.077903 467.964698 202.015537 468.902333 
C 202.953172 469.839967 204.225056 470.366799 205.551071 470.366799 
L 205.551071 470.366799 
z
" clip-path="url(#p1d465d9a6f)" style="fill: none; stroke: #ff0000; stroke-opacity: 0.3"/>
   </g>
   <g id="PathCollection_42">
    <path d="M 237.751071 422.790608 
L 247.751071 422.790608 
L 247.751071 412.790608 
L 237.751071 412.790608 
L 237.751071 422.790608 
z
" clip-path="url(#p1d465d9a6f)" style="fill: none; stroke: #008000; stroke-opacity: 0.3"/>
   </g>
   <g id="PathCollection_43">
    <path d="M 237.543071 426.045561 
C 238.869087 426.045561 240.140971 425.51873 241.078605 424.581095 
C 242.01624 423.643461 242.543071 422.371577 242.543071 421.045561 
C 242.543071 419.719546 242.01624 418.447662 241.078605 417.510027 
C 240.140971 416.572393 238.869087 416.045561 237.543071 416.045561 
C 236.217056 416.045561 234.945172 416.572393 234.007537 417.510027 
C 233.069903 418.447662 232.543071 419.719546 232.543071 421.045561 
C 232.543071 422.371577 233.069903 423.643461 234.007537 424.581095 
C 234.945172 425.51873 236.217056 426.045561 237.543071 426.045561 
L 237.543071 426.045561 
z
" clip-path="url(#p1d465d9a6f)" style="fill: none; stroke: #ff0000; stroke-opacity: 0.3"/>
   </g>
   <g id="PathCollection_44">
    <path d="M 237.007071 419.281858 
L 247.007071 419.281858 
L 247.007071 409.281858 
L 237.007071 409.281858 
L 237.007071 419.281858 
z
" clip-path="url(#p1d465d9a6f)" style="fill: none; stroke: #008000; stroke-opacity: 0.3"/>
   </g>
   <g id="PathCollection_45">
    <path d="M 205.551071 470.366799 
C 206.877087 470.366799 208.148971 469.839967 209.086605 468.902333 
C 210.02424 467.964698 210.551071 466.692814 210.551071 465.366799 
C 210.551071 464.040783 210.02424 462.768899 209.086605 461.831265 
C 208.148971 460.89363 206.877087 460.366799 205.551071 460.366799 
C 204.225056 460.366799 202.953172 460.89363 202.015537 461.831265 
C 201.077903 462.768899 200.551071 464.040783 200.551071 465.366799 
C 200.551071 466.692814 201.077903 467.964698 202.015537 468.902333 
C 202.953172 469.839967 204.225056 470.366799 205.551071 470.366799 
L 205.551071 470.366799 
z
" clip-path="url(#p1d465d9a6f)" style="fill: none; stroke: #ff0000; stroke-opacity: 0.3"/>
   </g>
   <g id="PathCollection_46">
    <path d="M 237.751071 422.790608 
L 247.751071 422.790608 
L 247.751071 412.790608 
L 237.751071 412.790608 
L 237.751071 422.790608 
z
" clip-path="url(#p1d465d9a6f)" style="fill: none; stroke: #008000; stroke-opacity: 0.3"/>
   </g>
   <g id="PathCollection_47">
    <path d="M 209.271071 470.365816 
C 210.597087 470.365816 211.868971 469.838984 212.806605 468.90135 
C 213.74424 467.963715 214.271071 466.691831 214.271071 465.365816 
C 214.271071 464.0398 213.74424 462.767916 212.806605 461.830282 
C 211.868971 460.892647 210.597087 460.365816 209.271071 460.365816 
C 207.945056 460.365816 206.673172 460.892647 205.735537 461.830282 
C 204.797903 462.767916 204.271071 464.0398 204.271071 465.365816 
C 204.271071 466.691831 204.797903 467.963715 205.735537 468.90135 
C 206.673172 469.838984 207.945056 470.365816 209.271071 470.365816 
L 209.271071 470.365816 
z
" clip-path="url(#p1d465d9a6f)" style="fill: none; stroke: #ff0000; stroke-opacity: 0.3"/>
   </g>
   <g id="PathCollection_48">
    <path d="M 222.871071 449.248736 
L 232.871071 449.248736 
L 232.871071 439.248736 
L 222.871071 439.248736 
L 222.871071 449.248736 
z
" clip-path="url(#p1d465d9a6f)" style="fill: none; stroke: #008000; stroke-opacity: 0.3"/>
   </g>
   <g id="PathCollection_49">
    <path d="M 230.847071 444.61038 
C 232.173087 444.61038 233.444971 444.083548 234.382605 443.145914 
C 235.32024 442.208279 235.847071 440.936396 235.847071 439.61038 
C 235.847071 438.284365 235.32024 437.012481 234.382605 436.074846 
C 233.444971 435.137212 232.173087 434.61038 230.847071 434.61038 
C 229.521056 434.61038 228.249172 435.137212 227.311537 436.074846 
C 226.373903 437.012481 225.847071 438.284365 225.847071 439.61038 
C 225.847071 440.936396 226.373903 442.208279 227.311537 443.145914 
C 228.249172 444.083548 229.521056 444.61038 230.847071 444.61038 
L 230.847071 444.61038 
z
" clip-path="url(#p1d465d9a6f)" style="fill: none; stroke: #ff0000; stroke-opacity: 0.3"/>
   </g>
   <g id="PathCollection_50">
    <path d="M 238.495071 425.351645 
L 248.495071 425.351645 
L 248.495071 415.351645 
L 238.495071 415.351645 
L 238.495071 425.351645 
z
" clip-path="url(#p1d465d9a6f)" style="fill: none; stroke: #008000; stroke-opacity: 0.3"/>
   </g>
   <g id="PathCollection_51">
    <defs>
     <path id="C6_0_1b72415d24" d="M 0 5 
C 1.326016 5 2.597899 4.473168 3.535534 3.535534 
C 4.473168 2.597899 5 1.326016 5 -0 
C 5 -1.326016 4.473168 -2.597899 3.535534 -3.535534 
C 2.597899 -4.473168 1.326016 -5 0 -5 
C -1.326016 -5 -2.597899 -4.473168 -3.535534 -3.535534 
C -4.473168 -2.597899 -5 -1.326016 -5 0 
C -5 1.326016 -4.473168 2.597899 -3.535534 3.535534 
C -2.597899 4.473168 -1.326016 5 0 5 
z
"/>
    </defs>
    <g clip-path="url(#p1d465d9a6f)">
     <use xlink:href="#C6_0_1b72415d24" x="209.271071" y="465.365816" style="fill: none; stroke: #ff0000; stroke-opacity: 0.3"/>
    </g>
    <g clip-path="url(#p1d465d9a6f)">
     <use xlink:href="#C6_0_1b72415d24" x="213.735071" y="466.720169" style="fill: none; stroke: #ff0000; stroke-opacity: 0.3"/>
    </g>
   </g>
   <g id="PathCollection_52">
    <path d="M 222.871071 449.248736 
L 232.871071 449.248736 
L 232.871071 439.248736 
L 222.871071 439.248736 
L 222.871071 449.248736 
z
" clip-path="url(#p1d465d9a6f)" style="fill: none; stroke: #008000; stroke-opacity: 0.3"/>
    <path d="M 222.871071 455.248192 
L 232.871071 455.248192 
L 232.871071 445.248192 
L 222.871071 445.248192 
L 222.871071 455.248192 
z
" clip-path="url(#p1d465d9a6f)" style="fill: none; stroke: #008000; stroke-opacity: 0.3"/>
   </g>
   <g id="PathCollection_53">
    <defs>
     <path id="C7_0_65f70d5e18" d="M 0 5 
C 1.326016 5 2.597899 4.473168 3.535534 3.535534 
C 4.473168 2.597899 5 1.326016 5 -0 
C 5 -1.326016 4.473168 -2.597899 3.535534 -3.535534 
C 2.597899 -4.473168 1.326016 -5 0 -5 
C -1.326016 -5 -2.597899 -4.473168 -3.535534 -3.535534 
C -4.473168 -2.597899 -5 -1.326016 -5 0 
C -5 1.326016 -4.473168 2.597899 -3.535534 3.535534 
C -2.597899 4.473168 -1.326016 5 0 5 
z
"/>
    </defs>
    <g clip-path="url(#p1d465d9a6f)">
     <use xlink:href="#C7_0_65f70d5e18" x="230.847071" y="439.61038" style="fill: none; stroke: #ff0000; stroke-opacity: 0.3"/>
    </g>
    <g clip-path="url(#p1d465d9a6f)">
     <use xlink:href="#C7_0_65f70d5e18" x="237.543071" y="434.557673" style="fill: none; stroke: #ff0000; stroke-opacity: 0.3"/>
    </g>
   </g>
   <g id="PathCollection_54">
    <path d="M 238.495071 425.351645 
L 248.495071 425.351645 
L 248.495071 415.351645 
L 238.495071 415.351645 
L 238.495071 425.351645 
z
" clip-path="url(#p1d465d9a6f)" style="fill: none; stroke: #008000; stroke-opacity: 0.3"/>
    <path d="M 240.727071 427.089509 
L 250.727071 427.089509 
L 250.727071 417.089509 
L 240.727071 417.089509 
L 240.727071 427.089509 
z
" clip-path="url(#p1d465d9a6f)" style="fill: none; stroke: #008000; stroke-opacity: 0.3"/>
   </g>
   <g id="PathCollection_55">
    <defs>
     <path id="C8_0_c57ee84488" d="M 0 5 
C 1.326016 5 2.597899 4.473168 3.535534 3.535534 
C 4.473168 2.597899 5 1.326016 5 -0 
C 5 -1.326016 4.473168 -2.597899 3.535534 -3.535534 
C 2.597899 -4.473168 1.326016 -5 0 -5 
C -1.326016 -5 -2.597899 -4.473168 -3.535534 -3.535534 
C -4.473168 -2.597899 -5 -1.326016 -5 0 
C -5 1.326016 -4.473168 2.597899 -3.535534 3.535534 
C -2.597899 4.473168 -1.326016 5 0 5 
z
"/>
    </defs>
    <g clip-path="url(#p1d465d9a6f)">
     <use xlink:href="#C8_0_c57ee84488" x="213.735071" y="466.720169" style="fill: none; stroke: #ff0000; stroke-opacity: 0.3"/>
    </g>
    <g clip-path="url(#p1d465d9a6f)">
     <use xlink:href="#C8_0_c57ee84488" x="218.199071" y="469.180096" style="fill: none; stroke: #ff0000; stroke-opacity: 0.3"/>
    </g>
   </g>
   <g id="PathCollection_56">
    <path d="M 222.871071 455.248192 
L 232.871071 455.248192 
L 232.871071 445.248192 
L 222.871071 445.248192 
L 222.871071 455.248192 
z
" clip-path="url(#p1d465d9a6f)" style="fill: none; stroke: #008000; stroke-opacity: 0.3"/>
    <path d="M 224.359071 460.039566 
L 234.359071 460.039566 
L 234.359071 450.039566 
L 224.359071 450.039566 
L 224.359071 460.039566 
z
" clip-path="url(#p1d465d9a6f)" style="fill: none; stroke: #008000; stroke-opacity: 0.3"/>
   </g>
   <g id="PathCollection_57">
    <defs>
     <path id="C9_0_bacac0f8fe" d="M 0 5 
C 1.326016 5 2.597899 4.473168 3.535534 3.535534 
C 4.473168 2.597899 5 1.326016 5 -0 
C 5 -1.326016 4.473168 -2.597899 3.535534 -3.535534 
C 2.597899 -4.473168 1.326016 -5 0 -5 
C -1.326016 -5 -2.597899 -4.473168 -3.535534 -3.535534 
C -4.473168 -2.597899 -5 -1.326016 -5 0 
C -5 1.326016 -4.473168 2.597899 -3.535534 3.535534 
C -2.597899 4.473168 -1.326016 5 0 5 
z
"/>
    </defs>
    <g clip-path="url(#p1d465d9a6f)">
     <use xlink:href="#C9_0_bacac0f8fe" x="237.543071" y="434.557673" style="fill: none; stroke: #ff0000; stroke-opacity: 0.3"/>
    </g>
    <g clip-path="url(#p1d465d9a6f)">
     <use xlink:href="#C9_0_bacac0f8fe" x="242.007071" y="434.049384" style="fill: none; stroke: #ff0000; stroke-opacity: 0.3"/>
    </g>
   </g>
   <g id="PathCollection_58">
    <path d="M 240.727071 427.089509 
L 250.727071 427.089509 
L 250.727071 417.089509 
L 240.727071 417.089509 
L 240.727071 427.089509 
z
" clip-path="url(#p1d465d9a6f)" style="fill: none; stroke: #008000; stroke-opacity: 0.3"/>
    <path d="M 241.471071 432.181139 
L 251.471071 432.181139 
L 251.471071 422.181139 
L 241.471071 422.181139 
L 241.471071 432.181139 
z
" clip-path="url(#p1d465d9a6f)" style="fill: none; stroke: #008000; stroke-opacity: 0.3"/>
   </g>
   <g id="PathCollection_59">
    <defs>
     <path id="Ca_0_8f56846e47" d="M 0 5 
C 1.326016 5 2.597899 4.473168 3.535534 3.535534 
C 4.473168 2.597899 5 1.326016 5 -0 
C 5 -1.326016 4.473168 -2.597899 3.535534 -3.535534 
C 2.597899 -4.473168 1.326016 -5 0 -5 
C -1.326016 -5 -2.597899 -4.473168 -3.535534 -3.535534 
C -4.473168 -2.597899 -5 -1.326016 -5 0 
C -5 1.326016 -4.473168 2.597899 -3.535534 3.535534 
C -2.597899 4.473168 -1.326016 5 0 5 
z
"/>
    </defs>
    <g clip-path="url(#p1d465d9a6f)">
     <use xlink:href="#Ca_0_8f56846e47" x="218.199071" y="469.180096" style="fill: none; stroke: #ff0000; stroke-opacity: 0.3"/>
    </g>
    <g clip-path="url(#p1d465d9a6f)">
     <use xlink:href="#Ca_0_8f56846e47" x="221.175071" y="471.554417" style="fill: none; stroke: #ff0000; stroke-opacity: 0.3"/>
    </g>
   </g>
   <g id="PathCollection_60">
    <path d="M 224.359071 460.039566 
L 234.359071 460.039566 
L 234.359071 450.039566 
L 224.359071 450.039566 
L 224.359071 460.039566 
z
" clip-path="url(#p1d465d9a6f)" style="fill: none; stroke: #008000; stroke-opacity: 0.3"/>
    <path d="M 225.847071 463.611409 
L 235.847071 463.611409 
L 235.847071 453.611409 
L 225.847071 453.611409 
L 225.847071 463.611409 
z
" clip-path="url(#p1d465d9a6f)" style="fill: none; stroke: #008000; stroke-opacity: 0.3"/>
   </g>
   <g id="PathCollection_61">
    <path d="M 242.007071 439.049384 
C 243.333087 439.049384 244.604971 438.522552 245.542605 437.584918 
C 246.48024 436.647283 247.007071 435.375399 247.007071 434.049384 
C 247.007071 432.723368 246.48024 431.451484 245.542605 430.51385 
C 244.604971 429.576215 243.333087 429.049384 242.007071 429.049384 
C 240.681056 429.049384 239.409172 429.576215 238.471537 430.51385 
C 237.533903 431.451484 237.007071 432.723368 237.007071 434.049384 
C 237.007071 435.375399 237.533903 436.647283 238.471537 437.584918 
C 239.409172 438.522552 240.681056 439.049384 242.007071 439.049384 
L 242.007071 439.049384 
z
" clip-path="url(#p1d465d9a6f)" style="fill: none; stroke: #ff0000; stroke-opacity: 0.3"/>
   </g>
   <g id="PathCollection_62">
    <path d="M 241.471071 432.181139 
L 251.471071 432.181139 
L 251.471071 422.181139 
L 241.471071 422.181139 
L 241.471071 432.181139 
z
" clip-path="url(#p1d465d9a6f)" style="fill: none; stroke: #008000; stroke-opacity: 0.3"/>
   </g>
   <g id="PathCollection_63">
    <defs>
     <path id="Cb_0_154d79f7ad" d="M 0 5 
C 1.326016 5 2.597899 4.473168 3.535534 3.535534 
C 4.473168 2.597899 5 1.326016 5 -0 
C 5 -1.326016 4.473168 -2.597899 3.535534 -3.535534 
C 2.597899 -4.473168 1.326016 -5 0 -5 
C -1.326016 -5 -2.597899 -4.473168 -3.535534 -3.535534 
C -4.473168 -2.597899 -5 -1.326016 -5 0 
C -5 1.326016 -4.473168 2.597899 -3.535534 3.535534 
C -2.597899 4.473168 -1.326016 5 0 5 
z
"/>
    </defs>
    <g clip-path="url(#p1d465d9a6f)">
     <use xlink:href="#Cb_0_154d79f7ad" x="221.175071" y="471.554417" style="fill: none; stroke: #ff0000; stroke-opacity: 0.3"/>
    </g>
    <g clip-path="url(#p1d465d9a6f)">
     <use xlink:href="#Cb_0_154d79f7ad" x="224.151071" y="473.448021" style="fill: none; stroke: #ff0000; stroke-opacity: 0.3"/>
    </g>
   </g>
   <g id="PathCollection_64">
    <path d="M 225.847071 463.611409 
L 235.847071 463.611409 
L 235.847071 453.611409 
L 225.847071 453.611409 
L 225.847071 463.611409 
z
" clip-path="url(#p1d465d9a6f)" style="fill: none; stroke: #008000; stroke-opacity: 0.3"/>
    <path d="M 227.335071 467.063508 
L 237.335071 467.063508 
L 237.335071 457.063508 
L 227.335071 457.063508 
L 227.335071 467.063508 
z
" clip-path="url(#p1d465d9a6f)" style="fill: none; stroke: #008000; stroke-opacity: 0.3"/>
   </g>
   <g id="PathCollection_65">
    <defs>
     <path id="Cc_0_6697f689a7" d="M 0 5 
C 1.326016 5 2.597899 4.473168 3.535534 3.535534 
C 4.473168 2.597899 5 1.326016 5 -0 
C 5 -1.326016 4.473168 -2.597899 3.535534 -3.535534 
C 2.597899 -4.473168 1.326016 -5 0 -5 
C -1.326016 -5 -2.597899 -4.473168 -3.535534 -3.535534 
C -4.473168 -2.597899 -5 -1.326016 -5 0 
C -5 1.326016 -4.473168 2.597899 -3.535534 3.535534 
C -2.597899 4.473168 -1.326016 5 0 5 
z
"/>
    </defs>
    <g clip-path="url(#p1d465d9a6f)">
     <use xlink:href="#Cc_0_6697f689a7" x="224.151071" y="473.448021" style="fill: none; stroke: #ff0000; stroke-opacity: 0.3"/>
    </g>
    <g clip-path="url(#p1d465d9a6f)">
     <use xlink:href="#Cc_0_6697f689a7" x="228.615071" y="474.173365" style="fill: none; stroke: #ff0000; stroke-opacity: 0.3"/>
    </g>
   </g>
   <g id="PathCollection_66">
    <path d="M 227.335071 467.063508 
L 237.335071 467.063508 
L 237.335071 457.063508 
L 227.335071 457.063508 
L 227.335071 467.063508 
z
" clip-path="url(#p1d465d9a6f)" style="fill: none; stroke: #008000; stroke-opacity: 0.3"/>
    <path d="M 228.823071 471.538312 
L 238.823071 471.538312 
L 238.823071 461.538312 
L 228.823071 461.538312 
L 228.823071 471.538312 
z
" clip-path="url(#p1d465d9a6f)" style="fill: none; stroke: #008000; stroke-opacity: 0.3"/>
   </g>
   <g id="matplotlib.axis_1">
    <g id="xtick_1">
     <g id="line2d_1">
      <path d="M 300.039071 1116 
L 300.039071 7.2 
" clip-path="url(#p1d465d9a6f)" style="fill: none; stroke-dasharray: 11.1,4.8; stroke-dashoffset: 0; stroke: #b0b0b0; stroke-width: 3"/>
     </g>
     <g id="line2d_2">
      <defs>
       <path id="m159569ef16" d="M 0 0 
L 0 3.5 
" style="stroke: #000000; stroke-width: 0.8"/>
      </defs>
      <g>
       <use xlink:href="#m159569ef16" x="300.039071" y="1116" style="stroke: #000000; stroke-width: 0.8"/>
      </g>
     </g>
     <g id="text_1">
      <!-- $\mathdefault{6750}$ -->
      <g transform="translate(245.210499 1164.511005) scale(0.6 -0.6)">
       <defs>
        <path id="CMR17-36" d="M 678 2198 
C 678 3712 1395 4076 1811 4076 
C 1946 4076 2272 4049 2400 3782 
C 2298 3782 2106 3782 2106 3558 
C 2106 3385 2246 3328 2336 3328 
C 2394 3328 2566 3353 2566 3571 
C 2566 3987 2246 4224 1805 4224 
C 1043 4224 243 3411 243 2011 
C 243 257 966 -128 1478 -128 
C 2099 -128 2688 431 2688 1295 
C 2688 2101 2170 2688 1517 2688 
C 1126 2688 838 2430 678 1979 
L 678 2198 
z
M 1478 25 
C 691 25 691 1212 691 1450 
C 691 1914 909 2585 1504 2585 
C 1613 2585 1926 2585 2138 2140 
C 2253 1889 2253 1624 2253 1302 
C 2253 954 2253 696 2118 438 
C 1978 173 1773 25 1478 25 
z
" transform="scale(0.015625)"/>
        <path id="CMR17-37" d="M 2886 3955 
L 2886 4096 
L 1382 4096 
C 634 4096 621 4166 595 4288 
L 480 4288 
L 294 3104 
L 410 3104 
C 429 3226 474 3552 550 3673 
C 589 3724 1062 3724 1171 3724 
L 2579 3724 
L 1869 2670 
C 1395 1961 1069 1003 1069 166 
C 1069 89 1069 -128 1299 -128 
C 1530 -128 1530 89 1530 172 
L 1530 466 
C 1530 1514 1709 2204 2003 2644 
L 2886 3955 
z
" transform="scale(0.015625)"/>
        <path id="CMR17-35" d="M 730 3750 
C 794 3724 1056 3641 1325 3641 
C 1920 3641 2246 3961 2432 4140 
C 2432 4191 2432 4224 2394 4224 
C 2387 4224 2374 4224 2323 4198 
C 2099 4102 1837 4032 1517 4032 
C 1325 4032 1037 4055 723 4191 
C 653 4224 640 4224 634 4224 
C 602 4224 595 4217 595 4090 
L 595 2231 
C 595 2113 595 2080 659 2080 
C 691 2080 704 2093 736 2139 
C 941 2435 1222 2560 1542 2560 
C 1766 2560 2246 2415 2246 1293 
C 2246 1087 2246 716 2054 422 
C 1894 159 1645 25 1370 25 
C 947 25 518 319 403 812 
C 429 806 480 793 506 793 
C 589 793 749 838 749 1036 
C 749 1209 627 1280 506 1280 
C 358 1280 262 1190 262 1011 
C 262 454 704 -128 1382 -128 
C 2042 -128 2669 441 2669 1267 
C 2669 2054 2170 2662 1549 2662 
C 1222 2662 947 2540 730 2304 
L 730 3750 
z
" transform="scale(0.015625)"/>
        <path id="CMR17-30" d="M 2688 2038 
C 2688 2430 2682 3099 2413 3613 
C 2176 4063 1798 4224 1466 4224 
C 1158 4224 768 4082 525 3620 
C 269 3137 243 2539 243 2038 
C 243 1671 250 1112 448 623 
C 723 -39 1216 -128 1466 -128 
C 1760 -128 2208 -7 2470 604 
C 2662 1048 2688 1568 2688 2038 
z
M 1466 -26 
C 1056 -26 813 328 723 816 
C 653 1196 653 1749 653 2109 
C 653 2604 653 3015 736 3407 
C 858 3954 1216 4121 1466 4121 
C 1728 4121 2067 3947 2189 3420 
C 2272 3054 2278 2623 2278 2109 
C 2278 1691 2278 1176 2202 797 
C 2067 96 1690 -26 1466 -26 
z
" transform="scale(0.015625)"/>
       </defs>
       <use xlink:href="#CMR17-36" transform="scale(0.996264)"/>
       <use xlink:href="#CMR17-37" transform="translate(45.690477 0) scale(0.996264)"/>
       <use xlink:href="#CMR17-35" transform="translate(91.380954 0) scale(0.996264)"/>
       <use xlink:href="#CMR17-30" transform="translate(137.071431 0) scale(0.996264)"/>
      </g>
     </g>
    </g>
    <g id="xtick_2">
     <g id="line2d_3">
      <path d="M 486.039071 1116 
L 486.039071 7.2 
" clip-path="url(#p1d465d9a6f)" style="fill: none; stroke-dasharray: 11.1,4.8; stroke-dashoffset: 0; stroke: #b0b0b0; stroke-width: 3"/>
     </g>
     <g id="line2d_4">
      <g>
       <use xlink:href="#m159569ef16" x="486.039071" y="1116" style="stroke: #000000; stroke-width: 0.8"/>
      </g>
     </g>
     <g id="text_2">
      <!-- $\mathdefault{7000}$ -->
      <g transform="translate(431.210499 1164.511005) scale(0.6 -0.6)">
       <use xlink:href="#CMR17-37" transform="scale(0.996264)"/>
       <use xlink:href="#CMR17-30" transform="translate(45.690477 0) scale(0.996264)"/>
       <use xlink:href="#CMR17-30" transform="translate(91.380954 0) scale(0.996264)"/>
       <use xlink:href="#CMR17-30" transform="translate(137.071431 0) scale(0.996264)"/>
      </g>
     </g>
    </g>
    <g id="xtick_3">
     <g id="line2d_5">
      <path d="M 672.039071 1116 
L 672.039071 7.2 
" clip-path="url(#p1d465d9a6f)" style="fill: none; stroke-dasharray: 11.1,4.8; stroke-dashoffset: 0; stroke: #b0b0b0; stroke-width: 3"/>
     </g>
     <g id="line2d_6">
      <g>
       <use xlink:href="#m159569ef16" x="672.039071" y="1116" style="stroke: #000000; stroke-width: 0.8"/>
      </g>
     </g>
     <g id="text_3">
      <!-- $\mathdefault{7250}$ -->
      <g transform="translate(617.210499 1164.511005) scale(0.6 -0.6)">
       <defs>
        <path id="CMR17-32" d="M 2669 990 
L 2554 990 
C 2490 537 2438 460 2413 422 
C 2381 371 1920 371 1830 371 
L 602 371 
C 832 620 1280 1073 1824 1596 
C 2214 1966 2669 2400 2669 3033 
C 2669 3788 2067 4224 1395 4224 
C 691 4224 262 3603 262 3027 
C 262 2777 448 2745 525 2745 
C 589 2745 781 2783 781 3007 
C 781 3206 614 3264 525 3264 
C 486 3264 448 3257 422 3244 
C 544 3788 915 4057 1306 4057 
C 1862 4057 2227 3616 2227 3033 
C 2227 2477 1901 1998 1536 1583 
L 262 147 
L 262 0 
L 2515 0 
L 2669 990 
z
" transform="scale(0.015625)"/>
       </defs>
       <use xlink:href="#CMR17-37" transform="scale(0.996264)"/>
       <use xlink:href="#CMR17-32" transform="translate(45.690477 0) scale(0.996264)"/>
       <use xlink:href="#CMR17-35" transform="translate(91.380954 0) scale(0.996264)"/>
       <use xlink:href="#CMR17-30" transform="translate(137.071431 0) scale(0.996264)"/>
      </g>
     </g>
    </g>
    <g id="xtick_4">
     <g id="line2d_7">
      <path d="M 858.039071 1116 
L 858.039071 7.2 
" clip-path="url(#p1d465d9a6f)" style="fill: none; stroke-dasharray: 11.1,4.8; stroke-dashoffset: 0; stroke: #b0b0b0; stroke-width: 3"/>
     </g>
     <g id="line2d_8">
      <g>
       <use xlink:href="#m159569ef16" x="858.039071" y="1116" style="stroke: #000000; stroke-width: 0.8"/>
      </g>
     </g>
     <g id="text_4">
      <!-- $\mathdefault{7500}$ -->
      <g transform="translate(803.210499 1164.511005) scale(0.6 -0.6)">
       <use xlink:href="#CMR17-37" transform="scale(0.996264)"/>
       <use xlink:href="#CMR17-35" transform="translate(45.690477 0) scale(0.996264)"/>
       <use xlink:href="#CMR17-30" transform="translate(91.380954 0) scale(0.996264)"/>
       <use xlink:href="#CMR17-30" transform="translate(137.071431 0) scale(0.996264)"/>
      </g>
     </g>
    </g>
    <g id="xtick_5">
     <g id="line2d_9">
      <path d="M 1044.039071 1116 
L 1044.039071 7.2 
" clip-path="url(#p1d465d9a6f)" style="fill: none; stroke-dasharray: 11.1,4.8; stroke-dashoffset: 0; stroke: #b0b0b0; stroke-width: 3"/>
     </g>
     <g id="line2d_10">
      <g>
       <use xlink:href="#m159569ef16" x="1044.039071" y="1116" style="stroke: #000000; stroke-width: 0.8"/>
      </g>
     </g>
     <g id="text_5">
      <!-- $\mathdefault{7750}$ -->
      <g transform="translate(989.210499 1164.511005) scale(0.6 -0.6)">
       <use xlink:href="#CMR17-37" transform="scale(0.996264)"/>
       <use xlink:href="#CMR17-37" transform="translate(45.690477 0) scale(0.996264)"/>
       <use xlink:href="#CMR17-35" transform="translate(91.380954 0) scale(0.996264)"/>
       <use xlink:href="#CMR17-30" transform="translate(137.071431 0) scale(0.996264)"/>
      </g>
     </g>
    </g>
    <g id="xtick_6">
     <g id="line2d_11">
      <path d="M 1230.039071 1116 
L 1230.039071 7.2 
" clip-path="url(#p1d465d9a6f)" style="fill: none; stroke-dasharray: 11.1,4.8; stroke-dashoffset: 0; stroke: #b0b0b0; stroke-width: 3"/>
     </g>
     <g id="line2d_12">
      <g>
       <use xlink:href="#m159569ef16" x="1230.039071" y="1116" style="stroke: #000000; stroke-width: 0.8"/>
      </g>
     </g>
     <g id="text_6">
      <!-- $\mathdefault{8000}$ -->
      <g transform="translate(1175.210499 1164.511005) scale(0.6 -0.6)">
       <defs>
        <path id="CMR17-38" d="M 1741 2289 
C 2144 2494 2554 2803 2554 3298 
C 2554 3884 1990 4224 1472 4224 
C 890 4224 378 3800 378 3215 
C 378 3054 416 2777 666 2533 
C 730 2469 998 2276 1171 2154 
C 883 2006 211 1652 211 945 
C 211 282 838 -128 1459 -128 
C 2144 -128 2720 366 2720 1022 
C 2720 1607 2330 1877 2074 2051 
L 1741 2289 
z
M 902 2855 
C 851 2887 595 3086 595 3388 
C 595 3781 998 4076 1459 4076 
C 1965 4076 2336 3716 2336 3298 
C 2336 2700 1670 2359 1638 2359 
C 1632 2359 1626 2359 1574 2398 
L 902 2855 
z
M 2080 1536 
C 2176 1466 2483 1253 2483 861 
C 2483 385 2010 25 1472 25 
C 890 25 448 443 448 951 
C 448 1459 838 1884 1280 2083 
L 2080 1536 
z
" transform="scale(0.015625)"/>
       </defs>
       <use xlink:href="#CMR17-38" transform="scale(0.996264)"/>
       <use xlink:href="#CMR17-30" transform="translate(45.690477 0) scale(0.996264)"/>
       <use xlink:href="#CMR17-30" transform="translate(91.380954 0) scale(0.996264)"/>
       <use xlink:href="#CMR17-30" transform="translate(137.071431 0) scale(0.996264)"/>
      </g>
     </g>
    </g>
    <g id="text_7">
     <!-- Time (s) -->
     <g transform="translate(624.271578 1224.915972) scale(0.6 -0.6)">
      <defs>
       <path id="CMR17-54" d="M 3981 4332 
L 288 4332 
L 179 2924 
L 294 2924 
C 378 3981 467 4166 1453 4166 
C 1568 4166 1754 4166 1805 4159 
C 1926 4140 1926 4064 1926 3917 
L 1926 465 
C 1926 236 1907 166 1376 166 
L 1197 166 
L 1197 0 
C 1504 6 1824 12 2138 12 
C 2451 12 2771 6 3078 0 
L 3078 166 
L 2899 166 
C 2368 166 2349 236 2349 465 
L 2349 3917 
C 2349 4057 2349 4134 2464 4159 
C 2515 4166 2701 4166 2816 4166 
C 3795 4166 3891 3981 3974 2924 
L 4090 2924 
L 3981 4332 
z
" transform="scale(0.015625)"/>
       <path id="CMR17-69" d="M 992 3961 
C 992 4102 877 4224 730 4224 
C 589 4224 467 4108 467 3961 
C 467 3820 582 3699 730 3699 
C 870 3699 992 3814 992 3961 
z
M 243 2745 
L 243 2579 
C 602 2579 653 2540 653 2231 
L 653 443 
C 653 198 627 166 218 166 
L 218 0 
C 371 12 646 12 806 12 
C 960 12 1222 12 1370 0 
L 1370 166 
C 992 166 979 205 979 436 
L 979 2816 
L 243 2745 
z
" transform="scale(0.015625)"/>
       <path id="CMR17-6d" d="M 4326 1954 
C 4326 2276 4269 2816 3507 2816 
C 3072 2816 2771 2520 2656 2173 
L 2650 2173 
C 2573 2700 2195 2816 1837 2816 
C 1331 2816 1069 2424 973 2166 
L 966 2166 
L 966 2816 
L 211 2745 
L 211 2578 
C 589 2578 646 2540 646 2231 
L 646 443 
C 646 198 621 166 211 166 
L 211 0 
C 365 12 646 12 813 12 
C 979 12 1267 12 1421 0 
L 1421 166 
C 1011 166 986 192 986 443 
L 986 1678 
C 986 2269 1344 2713 1792 2713 
C 2266 2713 2317 2289 2317 1980 
L 2317 443 
C 2317 198 2291 166 1882 166 
L 1882 0 
C 2035 12 2317 12 2483 12 
C 2650 12 2938 12 3091 0 
L 3091 166 
C 2682 166 2656 192 2656 443 
L 2656 1678 
C 2656 2269 3014 2713 3462 2713 
C 3936 2713 3987 2289 3987 1980 
L 3987 443 
C 3987 198 3962 166 3552 166 
L 3552 0 
C 3706 12 3987 12 4154 12 
C 4320 12 4608 12 4762 0 
L 4762 166 
C 4352 166 4326 192 4326 443 
L 4326 1954 
z
" transform="scale(0.015625)"/>
       <path id="CMR17-65" d="M 2438 1503 
C 2464 1529 2464 1542 2464 1606 
C 2464 2251 2118 2816 1389 2816 
C 710 2816 173 2175 173 1394 
C 173 554 781 -64 1459 -64 
C 2176 -64 2458 619 2458 755 
C 2458 800 2419 800 2406 800 
C 2362 800 2355 787 2330 709 
C 2189 270 1837 51 1504 51 
C 1229 51 954 206 781 490 
C 582 819 582 1200 582 1503 
L 2438 1503 
z
M 589 1600 
C 634 2511 1126 2713 1382 2713 
C 1818 2713 2112 2308 2118 1600 
L 589 1600 
z
" transform="scale(0.015625)"/>
       <path id="CMR17-28" d="M 1958 -1562 
C 1958 -1556 1958 -1543 1939 -1524 
C 1645 -1223 858 -403 858 1596 
C 858 3595 1632 4408 1946 4729 
C 1946 4735 1958 4748 1958 4767 
C 1958 4787 1939 4800 1914 4800 
C 1843 4800 1299 4325 986 3620 
C 666 2909 576 2218 576 1603 
C 576 1141 621 360 1005 -467 
C 1312 -1133 1837 -1600 1914 -1600 
C 1946 -1600 1958 -1588 1958 -1562 
z
" transform="scale(0.015625)"/>
       <path id="CMR17-73" d="M 1978 2688 
C 1978 2803 1971 2809 1933 2809 
C 1907 2809 1901 2803 1824 2707 
C 1805 2681 1747 2617 1728 2592 
C 1523 2809 1235 2816 1126 2816 
C 416 2816 160 2444 160 2073 
C 160 1497 813 1363 998 1324 
C 1402 1241 1542 1216 1677 1100 
C 1760 1024 1901 883 1901 652 
C 1901 384 1747 38 1158 38 
C 602 38 403 460 288 1024 
C 269 1113 269 1120 218 1120 
C 166 1120 160 1113 160 985 
L 160 64 
C 160 -52 166 -58 205 -58 
C 237 -58 243 -52 275 0 
C 314 57 410 211 448 275 
C 576 102 800 -64 1158 -64 
C 1792 -64 2131 281 2131 780 
C 2131 1107 1958 1280 1875 1356 
C 1683 1555 1459 1600 1190 1651 
C 838 1728 390 1817 390 2208 
C 390 2374 480 2726 1126 2726 
C 1811 2726 1850 2086 1862 1881 
C 1869 1849 1901 1843 1920 1843 
C 1978 1843 1978 1862 1978 1971 
L 1978 2688 
z
" transform="scale(0.015625)"/>
       <path id="CMR17-29" d="M 1683 1596 
C 1683 2057 1638 2839 1254 3665 
C 947 4332 422 4800 346 4800 
C 326 4800 301 4793 301 4761 
C 301 4748 307 4742 314 4729 
C 621 4408 1402 3595 1402 1603 
C 1402 -396 627 -1210 314 -1530 
C 307 -1543 301 -1549 301 -1562 
C 301 -1594 326 -1600 346 -1600 
C 416 -1600 960 -1127 1274 -422 
C 1594 289 1683 981 1683 1596 
z
" transform="scale(0.015625)"/>
      </defs>
      <use xlink:href="#CMR17-54" transform="scale(0.996264)"/>
      <use xlink:href="#CMR17-69" transform="translate(66.509881 0) scale(0.996264)"/>
      <use xlink:href="#CMR17-6d" transform="translate(91.380939 0) scale(0.996264)"/>
      <use xlink:href="#CMR17-65" transform="translate(168.300529 0) scale(0.996264)"/>
      <use xlink:href="#CMR17-28" transform="translate(238.862156 0) scale(0.996264)"/>
      <use xlink:href="#CMR17-73" transform="translate(274.142924 0) scale(0.996264)"/>
      <use xlink:href="#CMR17-29" transform="translate(309.944261 0) scale(0.996264)"/>
     </g>
    </g>
   </g>
   <g id="matplotlib.axis_2">
    <g id="ytick_1">
     <g id="line2d_13">
      <path d="M 169.839071 90.36 
L 1285.839071 90.36 
" clip-path="url(#p1d465d9a6f)" style="fill: none; stroke-dasharray: 11.1,4.8; stroke-dashoffset: 0; stroke: #b0b0b0; stroke-width: 3"/>
     </g>
     <g id="line2d_14">
      <defs>
       <path id="mcd4dd48050" d="M 0 0 
L -3.5 0 
" style="stroke: #000000; stroke-width: 0.8"/>
      </defs>
      <g>
       <use xlink:href="#mcd4dd48050" x="169.839071" y="90.36" style="stroke: #000000; stroke-width: 0.8"/>
      </g>
     </g>
     <g id="text_8">
      <!-- $\mathdefault{59.0}$ -->
      <g transform="translate(64.337906 111.115503) scale(0.6 -0.6)">
       <defs>
        <path id="CMR17-39" d="M 2253 1871 
C 2253 448 1670 25 1190 25 
C 1043 25 685 43 538 281 
C 704 256 826 345 826 505 
C 826 678 685 736 595 736 
C 538 736 365 710 365 492 
C 365 68 742 -128 1203 -128 
C 1939 -128 2688 665 2688 2090 
C 2688 3857 1971 4224 1485 4224 
C 851 4224 243 3664 243 2800 
C 243 2000 762 1408 1414 1408 
C 1952 1408 2189 1910 2253 2122 
L 2253 1871 
z
M 1427 1510 
C 1254 1510 1011 1542 813 1929 
C 678 2181 678 2477 678 2793 
C 678 3174 678 3438 858 3722 
C 947 3857 1114 4076 1485 4076 
C 2240 4076 2240 2909 2240 2651 
C 2240 2193 2035 1510 1427 1510 
z
" transform="scale(0.015625)"/>
        <path id="CMMI12-3a" d="M 1178 307 
C 1178 492 1024 620 870 620 
C 685 620 557 467 557 313 
C 557 128 710 0 864 0 
C 1050 0 1178 153 1178 307 
z
" transform="scale(0.015625)"/>
       </defs>
       <use xlink:href="#CMR17-35" transform="scale(0.996264)"/>
       <use xlink:href="#CMR17-39" transform="translate(45.690477 0) scale(0.996264)"/>
       <use xlink:href="#CMMI12-3a" transform="translate(91.380954 0) scale(0.996264)"/>
       <use xlink:href="#CMR17-30" transform="translate(118.478131 0) scale(0.996264)"/>
      </g>
     </g>
    </g>
    <g id="ytick_2">
     <g id="line2d_15">
      <path d="M 169.839071 228.96 
L 1285.839071 228.96 
" clip-path="url(#p1d465d9a6f)" style="fill: none; stroke-dasharray: 11.1,4.8; stroke-dashoffset: 0; stroke: #b0b0b0; stroke-width: 3"/>
     </g>
     <g id="line2d_16">
      <g>
       <use xlink:href="#mcd4dd48050" x="169.839071" y="228.96" style="stroke: #000000; stroke-width: 0.8"/>
      </g>
     </g>
     <g id="text_9">
      <!-- $\mathdefault{59.5}$ -->
      <g transform="translate(64.337906 249.715503) scale(0.6 -0.6)">
       <use xlink:href="#CMR17-35" transform="scale(0.996264)"/>
       <use xlink:href="#CMR17-39" transform="translate(45.690477 0) scale(0.996264)"/>
       <use xlink:href="#CMMI12-3a" transform="translate(91.380954 0) scale(0.996264)"/>
       <use xlink:href="#CMR17-35" transform="translate(118.478131 0) scale(0.996264)"/>
      </g>
     </g>
    </g>
    <g id="ytick_3">
     <g id="line2d_17">
      <path d="M 169.839071 367.56 
L 1285.839071 367.56 
" clip-path="url(#p1d465d9a6f)" style="fill: none; stroke-dasharray: 11.1,4.8; stroke-dashoffset: 0; stroke: #b0b0b0; stroke-width: 3"/>
     </g>
     <g id="line2d_18">
      <g>
       <use xlink:href="#mcd4dd48050" x="169.839071" y="367.56" style="stroke: #000000; stroke-width: 0.8"/>
      </g>
     </g>
     <g id="text_10">
      <!-- $\mathdefault{60.0}$ -->
      <g transform="translate(64.337906 388.315503) scale(0.6 -0.6)">
       <use xlink:href="#CMR17-36" transform="scale(0.996264)"/>
       <use xlink:href="#CMR17-30" transform="translate(45.690477 0) scale(0.996264)"/>
       <use xlink:href="#CMMI12-3a" transform="translate(91.380954 0) scale(0.996264)"/>
       <use xlink:href="#CMR17-30" transform="translate(118.478131 0) scale(0.996264)"/>
      </g>
     </g>
    </g>
    <g id="ytick_4">
     <g id="line2d_19">
      <path d="M 169.839071 506.16 
L 1285.839071 506.16 
" clip-path="url(#p1d465d9a6f)" style="fill: none; stroke-dasharray: 11.1,4.8; stroke-dashoffset: 0; stroke: #b0b0b0; stroke-width: 3"/>
     </g>
     <g id="line2d_20">
      <g>
       <use xlink:href="#mcd4dd48050" x="169.839071" y="506.16" style="stroke: #000000; stroke-width: 0.8"/>
      </g>
     </g>
     <g id="text_11">
      <!-- $\mathdefault{60.5}$ -->
      <g transform="translate(64.337906 526.915503) scale(0.6 -0.6)">
       <use xlink:href="#CMR17-36" transform="scale(0.996264)"/>
       <use xlink:href="#CMR17-30" transform="translate(45.690477 0) scale(0.996264)"/>
       <use xlink:href="#CMMI12-3a" transform="translate(91.380954 0) scale(0.996264)"/>
       <use xlink:href="#CMR17-35" transform="translate(118.478131 0) scale(0.996264)"/>
      </g>
     </g>
    </g>
    <g id="ytick_5">
     <g id="line2d_21">
      <path d="M 169.839071 644.76 
L 1285.839071 644.76 
" clip-path="url(#p1d465d9a6f)" style="fill: none; stroke-dasharray: 11.1,4.8; stroke-dashoffset: 0; stroke: #b0b0b0; stroke-width: 3"/>
     </g>
     <g id="line2d_22">
      <g>
       <use xlink:href="#mcd4dd48050" x="169.839071" y="644.76" style="stroke: #000000; stroke-width: 0.8"/>
      </g>
     </g>
     <g id="text_12">
      <!-- $\mathdefault{61.0}$ -->
      <g transform="translate(64.337906 665.515503) scale(0.6 -0.6)">
       <defs>
        <path id="CMR17-31" d="M 1702 4083 
C 1702 4217 1696 4224 1606 4224 
C 1357 3927 979 3833 621 3820 
C 602 3820 570 3820 563 3808 
C 557 3795 557 3782 557 3648 
C 755 3648 1088 3686 1344 3839 
L 1344 467 
C 1344 243 1331 166 781 166 
L 589 166 
L 589 0 
C 896 6 1216 12 1523 12 
C 1830 12 2150 6 2458 0 
L 2458 166 
L 2266 166 
C 1715 166 1702 236 1702 467 
L 1702 4083 
z
" transform="scale(0.015625)"/>
       </defs>
       <use xlink:href="#CMR17-36" transform="scale(0.996264)"/>
       <use xlink:href="#CMR17-31" transform="translate(45.690477 0) scale(0.996264)"/>
       <use xlink:href="#CMMI12-3a" transform="translate(91.380954 0) scale(0.996264)"/>
       <use xlink:href="#CMR17-30" transform="translate(118.478131 0) scale(0.996264)"/>
      </g>
     </g>
    </g>
    <g id="ytick_6">
     <g id="line2d_23">
      <path d="M 169.839071 783.36 
L 1285.839071 783.36 
" clip-path="url(#p1d465d9a6f)" style="fill: none; stroke-dasharray: 11.1,4.8; stroke-dashoffset: 0; stroke: #b0b0b0; stroke-width: 3"/>
     </g>
     <g id="line2d_24">
      <g>
       <use xlink:href="#mcd4dd48050" x="169.839071" y="783.36" style="stroke: #000000; stroke-width: 0.8"/>
      </g>
     </g>
     <g id="text_13">
      <!-- $\mathdefault{61.5}$ -->
      <g transform="translate(64.337906 804.115503) scale(0.6 -0.6)">
       <use xlink:href="#CMR17-36" transform="scale(0.996264)"/>
       <use xlink:href="#CMR17-31" transform="translate(45.690477 0) scale(0.996264)"/>
       <use xlink:href="#CMMI12-3a" transform="translate(91.380954 0) scale(0.996264)"/>
       <use xlink:href="#CMR17-35" transform="translate(118.478131 0) scale(0.996264)"/>
      </g>
     </g>
    </g>
    <g id="ytick_7">
     <g id="line2d_25">
      <path d="M 169.839071 921.96 
L 1285.839071 921.96 
" clip-path="url(#p1d465d9a6f)" style="fill: none; stroke-dasharray: 11.1,4.8; stroke-dashoffset: 0; stroke: #b0b0b0; stroke-width: 3"/>
     </g>
     <g id="line2d_26">
      <g>
       <use xlink:href="#mcd4dd48050" x="169.839071" y="921.96" style="stroke: #000000; stroke-width: 0.8"/>
      </g>
     </g>
     <g id="text_14">
      <!-- $\mathdefault{62.0}$ -->
      <g transform="translate(64.337906 942.715503) scale(0.6 -0.6)">
       <use xlink:href="#CMR17-36" transform="scale(0.996264)"/>
       <use xlink:href="#CMR17-32" transform="translate(45.690477 0) scale(0.996264)"/>
       <use xlink:href="#CMMI12-3a" transform="translate(91.380954 0) scale(0.996264)"/>
       <use xlink:href="#CMR17-30" transform="translate(118.478131 0) scale(0.996264)"/>
      </g>
     </g>
    </g>
    <g id="ytick_8">
     <g id="line2d_27">
      <path d="M 169.839071 1060.56 
L 1285.839071 1060.56 
" clip-path="url(#p1d465d9a6f)" style="fill: none; stroke-dasharray: 11.1,4.8; stroke-dashoffset: 0; stroke: #b0b0b0; stroke-width: 3"/>
     </g>
     <g id="line2d_28">
      <g>
       <use xlink:href="#mcd4dd48050" x="169.839071" y="1060.56" style="stroke: #000000; stroke-width: 0.8"/>
      </g>
     </g>
     <g id="text_15">
      <!-- $\mathdefault{62.5}$ -->
      <g transform="translate(64.337906 1081.315503) scale(0.6 -0.6)">
       <use xlink:href="#CMR17-36" transform="scale(0.996264)"/>
       <use xlink:href="#CMR17-32" transform="translate(45.690477 0) scale(0.996264)"/>
       <use xlink:href="#CMMI12-3a" transform="translate(91.380954 0) scale(0.996264)"/>
       <use xlink:href="#CMR17-35" transform="translate(118.478131 0) scale(0.996264)"/>
      </g>
     </g>
    </g>
    <g id="text_16">
     <!-- Mile Marker -->
     <g transform="translate(48.711005 709.231707) rotate(-90) scale(0.6 -0.6)">
      <defs>
       <path id="CMR17-4d" d="M 1338 4249 
C 1299 4345 1293 4352 1158 4352 
L 339 4352 
L 339 4185 
C 781 4185 851 4185 851 3898 
L 851 624 
C 851 465 851 166 339 166 
L 339 0 
C 486 12 755 12 915 12 
C 1075 12 1344 12 1491 0 
L 1491 166 
C 979 166 979 465 979 624 
L 979 4159 
L 986 4159 
L 2490 102 
C 2515 38 2528 0 2579 0 
C 2630 0 2643 38 2669 102 
L 4186 4191 
L 4192 4191 
L 4192 453 
C 4192 166 4122 166 3680 166 
L 3680 0 
C 3853 12 4198 12 4384 12 
C 4570 12 4922 12 5094 0 
L 5094 166 
C 4653 166 4582 166 4582 453 
L 4582 3898 
C 4582 4185 4653 4185 5094 4185 
L 5094 4352 
L 4282 4352 
C 4147 4352 4141 4345 4102 4249 
L 2720 516 
L 1338 4249 
z
" transform="scale(0.015625)"/>
       <path id="CMR17-6c" d="M 979 4416 
L 218 4345 
L 218 4179 
C 595 4179 653 4141 653 3835 
L 653 439 
C 653 198 627 166 218 166 
L 218 0 
C 371 12 653 12 813 12 
C 979 12 1261 12 1414 0 
L 1414 166 
C 1005 166 979 191 979 439 
L 979 4416 
z
" transform="scale(0.015625)"/>
       <path id="CMR17-61" d="M 2304 1656 
C 2304 2048 2304 2275 2035 2534 
C 1798 2751 1523 2816 1306 2816 
C 800 2816 435 2408 435 1977 
C 435 1740 627 1728 666 1728 
C 749 1728 896 1779 896 1958 
C 896 2118 774 2188 666 2188 
C 640 2188 608 2182 589 2176 
C 723 2594 1069 2713 1293 2713 
C 1613 2713 1965 2421 1965 1875 
L 1965 1632 
C 1587 1619 1133 1568 774 1373 
C 371 1147 256 822 256 576 
C 256 77 832 -64 1171 -64 
C 1523 -64 1850 135 1990 505 
C 2003 219 2182 -39 2464 -39 
C 2598 -39 2938 51 2938 563 
L 2938 926 
L 2822 926 
L 2822 557 
C 2822 161 2650 109 2566 109 
C 2304 109 2304 446 2304 732 
L 2304 1656 
z
M 1965 887 
C 1965 323 1568 38 1216 38 
C 896 38 646 278 646 576 
C 646 771 730 1114 1101 1322 
C 1408 1497 1760 1523 1965 1536 
L 1965 887 
z
" transform="scale(0.015625)"/>
       <path id="CMR17-72" d="M 960 1517 
C 960 2134 1222 2713 1702 2713 
C 1747 2713 1792 2707 1837 2687 
C 1837 2687 1696 2642 1696 2475 
C 1696 2321 1818 2257 1914 2257 
C 1990 2257 2131 2302 2131 2482 
C 2131 2687 1926 2816 1709 2816 
C 1222 2816 1011 2340 947 2115 
L 941 2115 
L 941 2816 
L 198 2745 
L 198 2578 
C 576 2578 634 2540 634 2231 
L 634 443 
C 634 198 608 166 198 166 
L 198 0 
C 352 12 646 12 813 12 
C 998 12 1325 12 1498 0 
L 1498 166 
C 1037 166 960 166 960 455 
L 960 1517 
z
" transform="scale(0.015625)"/>
       <path id="CMR17-6b" d="M 1670 1679 
C 1664 1692 1632 1730 1632 1749 
C 1632 1762 2086 2175 2144 2226 
C 2509 2532 2739 2563 2906 2570 
L 2906 2735 
C 2867 2735 2854 2735 2848 2729 
L 2534 2722 
C 2355 2722 2080 2722 1907 2735 
L 1907 2570 
C 1997 2563 2061 2513 2061 2423 
C 2061 2296 1933 2175 1926 2175 
L 960 1298 
L 960 4416 
L 198 4345 
L 198 4179 
C 576 4179 634 4141 634 3835 
L 634 439 
C 634 198 608 166 198 166 
L 198 0 
C 352 12 634 12 794 12 
C 954 12 1235 12 1389 0 
L 1389 166 
C 979 166 954 191 954 439 
L 954 1139 
L 1395 1540 
L 2042 586 
C 2118 471 2182 382 2182 299 
C 2182 185 2067 166 1990 166 
L 1990 0 
C 2144 12 2419 12 2579 12 
C 2694 12 2931 6 3040 0 
L 3040 166 
C 2739 166 2669 223 2477 503 
L 1670 1679 
z
" transform="scale(0.015625)"/>
      </defs>
      <use xlink:href="#CMR17-4d" transform="scale(0.996264)"/>
      <use xlink:href="#CMR17-69" transform="translate(84.686941 0) scale(0.996264)"/>
      <use xlink:href="#CMR17-6c" transform="translate(109.557999 0) scale(0.996264)"/>
      <use xlink:href="#CMR17-65" transform="translate(134.429058 0) scale(0.996264)"/>
      <use xlink:href="#CMR17-4d" transform="translate(204.990684 0) scale(0.996264)"/>
      <use xlink:href="#CMR17-61" transform="translate(289.677625 0) scale(0.996264)"/>
      <use xlink:href="#CMR17-72" transform="translate(335.368102 0) scale(0.996264)"/>
      <use xlink:href="#CMR17-6b" transform="translate(370.64887 0) scale(0.996264)"/>
      <use xlink:href="#CMR17-65" transform="translate(416.339332 0) scale(0.996264)"/>
      <use xlink:href="#CMR17-72" transform="translate(456.824992 0) scale(0.996264)"/>
     </g>
    </g>
   </g>
   <g id="line2d_29">
    <path d="M 189.183071 444.31727 
L 195.507071 450.311835 
" clip-path="url(#p1d465d9a6f)" style="fill: none; stroke: #0000ff; stroke-width: 5; stroke-linecap: square"/>
   </g>
   <g id="line2d_30">
    <path d="M 231.963071 398.188006 
L 231.963071 398.188006 
" clip-path="url(#p1d465d9a6f)" style="fill: none; stroke: #0000ff; stroke-width: 5; stroke-linecap: square"/>
   </g>
   <g id="line2d_31">
    <path d="M 237.915071 388.953796 
L 237.915071 388.953796 
" clip-path="url(#p1d465d9a6f)" style="fill: none; stroke: #0000ff; stroke-width: 5; stroke-linecap: square"/>
   </g>
   <g id="line2d_32">
    <path d="M 195.507071 450.311835 
L 197.739071 452.8094 
" clip-path="url(#p1d465d9a6f)" style="fill: none; stroke: #0000ff; stroke-width: 5; stroke-linecap: square"/>
   </g>
   <g id="line2d_33">
    <path d="M 231.963071 398.188006 
L 231.963071 398.188006 
" clip-path="url(#p1d465d9a6f)" style="fill: none; stroke: #0000ff; stroke-width: 5; stroke-linecap: square"/>
   </g>
   <g id="line2d_34">
    <path d="M 237.543071 396.516701 
L 237.543071 396.516701 
" clip-path="url(#p1d465d9a6f)" style="fill: none; stroke: #0000ff; stroke-width: 5; stroke-linecap: square"/>
   </g>
   <g id="line2d_35">
    <path d="M 237.915071 388.953796 
L 237.915071 388.953796 
" clip-path="url(#p1d465d9a6f)" style="fill: none; stroke: #0000ff; stroke-width: 5; stroke-linecap: square"/>
   </g>
   <g id="line2d_36">
    <path d="M 220.431071 425.383699 
L 220.431071 425.383699 
" clip-path="url(#p1d465d9a6f)" style="fill: none; stroke: #0000ff; stroke-width: 5; stroke-linecap: square"/>
   </g>
   <g id="line2d_37">
    <path d="M 197.739071 452.8094 
L 197.739071 452.8094 
" clip-path="url(#p1d465d9a6f)" style="fill: none; stroke: #0000ff; stroke-width: 5; stroke-linecap: square"/>
   </g>
   <g id="line2d_38">
    <path d="M 203.691071 449.865718 
L 203.691071 449.865718 
" clip-path="url(#p1d465d9a6f)" style="fill: none; stroke: #0000ff; stroke-width: 5; stroke-linecap: square"/>
   </g>
   <g id="line2d_39">
    <path d="M 237.543071 396.516701 
L 237.543071 396.516701 
" clip-path="url(#p1d465d9a6f)" style="fill: none; stroke: #0000ff; stroke-width: 5; stroke-linecap: square"/>
   </g>
   <g id="line2d_40">
    <path d="M 236.055071 405.472324 
L 236.055071 405.472324 
" clip-path="url(#p1d465d9a6f)" style="fill: none; stroke: #0000ff; stroke-width: 5; stroke-linecap: square"/>
   </g>
   <g id="line2d_41">
    <path d="M 220.431071 425.383699 
L 220.431071 425.383699 
" clip-path="url(#p1d465d9a6f)" style="fill: none; stroke: #0000ff; stroke-width: 5; stroke-linecap: square"/>
   </g>
   <g id="line2d_42">
    <path d="M 242.751071 395.32817 
L 242.751071 395.32817 
" clip-path="url(#p1d465d9a6f)" style="fill: none; stroke: #0000ff; stroke-width: 5; stroke-linecap: square"/>
   </g>
   <g id="line2d_43">
    <path d="M 203.691071 449.865718 
L 210.015071 449.009871 
" clip-path="url(#p1d465d9a6f)" style="fill: none; stroke: #0000ff; stroke-width: 5; stroke-linecap: square"/>
   </g>
   <g id="line2d_44">
    <path d="M 236.055071 405.472324 
L 238.659071 410.955189 
" clip-path="url(#p1d465d9a6f)" style="fill: none; stroke: #0000ff; stroke-width: 5; stroke-linecap: square"/>
   </g>
   <g id="line2d_45">
    <path d="M 242.751071 395.32817 
L 242.751071 395.32817 
" clip-path="url(#p1d465d9a6f)" style="fill: none; stroke: #0000ff; stroke-width: 5; stroke-linecap: square"/>
   </g>
   <g id="line2d_46">
    <path d="M 210.015071 449.009871 
L 216.711071 447.490822 
" clip-path="url(#p1d465d9a6f)" style="fill: none; stroke: #0000ff; stroke-width: 5; stroke-linecap: square"/>
   </g>
   <g id="line2d_47">
    <path d="M 238.659071 410.955189 
L 239.775071 417.66371 
" clip-path="url(#p1d465d9a6f)" style="fill: none; stroke: #0000ff; stroke-width: 5; stroke-linecap: square"/>
   </g>
   <g id="line2d_48">
    <path d="M 216.711071 447.490822 
L 216.711071 447.490822 
" clip-path="url(#p1d465d9a6f)" style="fill: none; stroke: #0000ff; stroke-width: 5; stroke-linecap: square"/>
   </g>
   <g id="line2d_49">
    <path d="M 224.151071 441.578703 
L 224.151071 441.578703 
" clip-path="url(#p1d465d9a6f)" style="fill: none; stroke: #0000ff; stroke-width: 5; stroke-linecap: square"/>
   </g>
   <g id="line2d_50">
    <path d="M 239.775071 417.66371 
L 239.775071 417.66371 
" clip-path="url(#p1d465d9a6f)" style="fill: none; stroke: #0000ff; stroke-width: 5; stroke-linecap: square"/>
   </g>
   <g id="line2d_51">
    <path d="M 224.151071 441.578703 
L 224.151071 441.578703 
" clip-path="url(#p1d465d9a6f)" style="fill: none; stroke: #0000ff; stroke-width: 5; stroke-linecap: square"/>
   </g>
   <g id="line2d_52">
    <path d="M 218.571071 454.807276 
L 218.571071 454.807276 
" clip-path="url(#p1d465d9a6f)" style="fill: none; stroke: #0000ff; stroke-width: 5; stroke-linecap: square"/>
   </g>
   <g id="line2d_53">
    <path d="M 237.171071 429.981012 
L 237.171071 429.981012 
" clip-path="url(#p1d465d9a6f)" style="fill: none; stroke: #0000ff; stroke-width: 5; stroke-linecap: square"/>
   </g>
   <g id="line2d_54">
    <path d="M 218.571071 454.807276 
L 220.803071 458.484181 
" clip-path="url(#p1d465d9a6f)" style="fill: none; stroke: #0000ff; stroke-width: 5; stroke-linecap: square"/>
   </g>
   <g id="line2d_55">
    <path d="M 237.171071 429.981012 
L 241.635071 428.323591 
" clip-path="url(#p1d465d9a6f)" style="fill: none; stroke: #0000ff; stroke-width: 5; stroke-linecap: square"/>
   </g>
   <g id="line2d_56">
    <path d="M 220.803071 458.484181 
L 223.779071 462.109831 
" clip-path="url(#p1d465d9a6f)" style="fill: none; stroke: #0000ff; stroke-width: 5; stroke-linecap: square"/>
   </g>
   <g id="line2d_57">
    <path d="M 241.635071 428.323591 
L 244.239071 430.615261 
" clip-path="url(#p1d465d9a6f)" style="fill: none; stroke: #0000ff; stroke-width: 5; stroke-linecap: square"/>
   </g>
   <g id="line2d_58">
    <path d="M 223.779071 462.109831 
L 226.011071 465.082913 
" clip-path="url(#p1d465d9a6f)" style="fill: none; stroke: #0000ff; stroke-width: 5; stroke-linecap: square"/>
   </g>
   <g id="line2d_59">
    <path d="M 244.239071 430.615261 
L 244.239071 430.615261 
" clip-path="url(#p1d465d9a6f)" style="fill: none; stroke: #0000ff; stroke-width: 5; stroke-linecap: square"/>
   </g>
   <g id="line2d_60">
    <path d="M 226.011071 465.082913 
L 228.243071 467.755765 
" clip-path="url(#p1d465d9a6f)" style="fill: none; stroke: #0000ff; stroke-width: 5; stroke-linecap: square"/>
   </g>
   <g id="line2d_61">
    <path d="M 228.243071 467.755765 
L 231.219071 470.355839 
" clip-path="url(#p1d465d9a6f)" style="fill: none; stroke: #0000ff; stroke-width: 5; stroke-linecap: square"/>
   </g>
   <g id="line2d_62">
    <path d="M 189.183071 444.31727 
L 195.507071 450.311835 
" clip-path="url(#p1d465d9a6f)" style="fill: none; stroke: #0000ff; stroke-width: 5; stroke-linecap: square"/>
   </g>
   <g id="line2d_63">
    <path d="M 189.183071 444.31727 
L 195.507071 450.311835 
" clip-path="url(#p1d465d9a6f)" style="fill: none; stroke: #0000ff; stroke-width: 5; stroke-linecap: square"/>
   </g>
   <g id="line2d_64">
    <path d="M 195.507071 450.311835 
L 197.739071 452.8094 
" clip-path="url(#p1d465d9a6f)" style="fill: none; stroke: #0000ff; stroke-width: 5; stroke-linecap: square"/>
   </g>
   <g id="line2d_65">
    <path d="M 231.963071 398.188006 
L 237.543071 396.516701 
" clip-path="url(#p1d465d9a6f)" style="fill: none; stroke: #0000ff; stroke-width: 5; stroke-linecap: square"/>
   </g>
   <g id="line2d_66">
    <path d="M 195.507071 450.311835 
L 197.739071 452.8094 
" clip-path="url(#p1d465d9a6f)" style="fill: none; stroke: #0000ff; stroke-width: 5; stroke-linecap: square"/>
   </g>
   <g id="line2d_67">
    <path d="M 237.915071 388.953796 
L 237.543071 396.516701 
" clip-path="url(#p1d465d9a6f)" style="fill: none; stroke: #0000ff; stroke-width: 5; stroke-linecap: square"/>
   </g>
   <g id="line2d_68">
    <path d="M 197.739071 452.8094 
L 203.691071 449.865718 
" clip-path="url(#p1d465d9a6f)" style="fill: none; stroke: #0000ff; stroke-width: 5; stroke-linecap: square"/>
   </g>
   <g id="line2d_69">
    <path d="M 237.543071 396.516701 
L 236.055071 405.472324 
" clip-path="url(#p1d465d9a6f)" style="fill: none; stroke: #0000ff; stroke-width: 5; stroke-linecap: square"/>
   </g>
   <g id="line2d_70">
    <path d="M 220.431071 425.383699 
L 203.691071 449.865718 
" clip-path="url(#p1d465d9a6f)" style="fill: none; stroke: #0000ff; stroke-width: 5; stroke-linecap: square"/>
   </g>
   <g id="line2d_71">
    <path d="M 237.543071 396.516701 
L 242.751071 395.32817 
" clip-path="url(#p1d465d9a6f)" style="fill: none; stroke: #0000ff; stroke-width: 5; stroke-linecap: square"/>
   </g>
   <g id="line2d_72">
    <path d="M 203.691071 449.865718 
L 210.015071 449.009871 
" clip-path="url(#p1d465d9a6f)" style="fill: none; stroke: #0000ff; stroke-width: 5; stroke-linecap: square"/>
   </g>
   <g id="line2d_73">
    <path d="M 236.055071 405.472324 
L 238.659071 410.955189 
" clip-path="url(#p1d465d9a6f)" style="fill: none; stroke: #0000ff; stroke-width: 5; stroke-linecap: square"/>
   </g>
   <g id="line2d_74">
    <path d="M 203.691071 449.865718 
L 210.015071 449.009871 
" clip-path="url(#p1d465d9a6f)" style="fill: none; stroke: #0000ff; stroke-width: 5; stroke-linecap: square"/>
   </g>
   <g id="line2d_75">
    <path d="M 236.055071 405.472324 
L 238.659071 410.955189 
" clip-path="url(#p1d465d9a6f)" style="fill: none; stroke: #0000ff; stroke-width: 5; stroke-linecap: square"/>
   </g>
   <g id="line2d_76">
    <path d="M 216.711071 447.490822 
L 224.151071 441.578703 
" clip-path="url(#p1d465d9a6f)" style="fill: none; stroke: #0000ff; stroke-width: 5; stroke-linecap: square"/>
   </g>
   <g id="line2d_77">
    <path d="M 239.775071 417.66371 
L 224.151071 441.578703 
" clip-path="url(#p1d465d9a6f)" style="fill: none; stroke: #0000ff; stroke-width: 5; stroke-linecap: square"/>
   </g>
   <g id="line2d_78">
    <path d="M 224.151071 441.578703 
L 218.571071 454.807276 
" clip-path="url(#p1d465d9a6f)" style="fill: none; stroke: #0000ff; stroke-width: 5; stroke-linecap: square"/>
   </g>
   <g id="line2d_79">
    <path d="M 224.151071 441.578703 
L 237.171071 429.981012 
" clip-path="url(#p1d465d9a6f)" style="fill: none; stroke: #0000ff; stroke-width: 5; stroke-linecap: square"/>
   </g>
   <g id="line2d_80">
    <path d="M 223.779071 462.109831 
L 226.011071 465.082913 
" clip-path="url(#p1d465d9a6f)" style="fill: none; stroke: #0000ff; stroke-width: 5; stroke-linecap: square"/>
   </g>
   <g id="line2d_81">
    <path d="M 223.779071 462.109831 
L 226.011071 465.082913 
" clip-path="url(#p1d465d9a6f)" style="fill: none; stroke: #0000ff; stroke-width: 5; stroke-linecap: square"/>
   </g>
   <g id="patch_3">
    <path d="M 169.839071 1116 
L 169.839071 7.2 
" style="fill: none; stroke: #000000; stroke-width: 0.8; stroke-linejoin: miter; stroke-linecap: square"/>
   </g>
   <g id="patch_4">
    <path d="M 1285.839071 1116 
L 1285.839071 7.2 
" style="fill: none; stroke: #000000; stroke-width: 0.8; stroke-linejoin: miter; stroke-linecap: square"/>
   </g>
   <g id="patch_5">
    <path d="M 169.839071 1116 
L 1285.839071 1116 
" style="fill: none; stroke: #000000; stroke-width: 0.8; stroke-linejoin: miter; stroke-linecap: square"/>
   </g>
   <g id="patch_6">
    <path d="M 169.839071 7.2 
L 1285.839071 7.2 
" style="fill: none; stroke: #000000; stroke-width: 0.8; stroke-linejoin: miter; stroke-linecap: square"/>
   </g>
   <g id="legend_1">
    <g id="patch_7">
     <path d="M 588.140654 306.080702 
L 1243.839071 306.080702 
Q 1255.839071 306.080702 1255.839071 294.080702 
L 1255.839071 49.2 
Q 1255.839071 37.2 1243.839071 37.2 
L 588.140654 37.2 
Q 576.140654 37.2 576.140654 49.2 
L 576.140654 294.080702 
Q 576.140654 306.080702 588.140654 306.080702 
z
" style="fill: #ffffff; opacity: 0.8; stroke: #cccccc; stroke-linejoin: miter"/>
    </g>
    <g id="PathCollection_67">
     <path d="M 660.140654 92.45 
C 661.46667 92.45 662.738553 91.923168 663.676188 90.985534 
C 664.613823 90.047899 665.140654 88.776016 665.140654 87.45 
C 665.140654 86.123985 664.613823 84.852101 663.676188 83.914466 
C 662.738553 82.976832 661.46667 82.45 660.140654 82.45 
C 658.814639 82.45 657.542755 82.976832 656.60512 83.914466 
C 655.667486 84.852101 655.140654 86.123985 655.140654 87.45 
C 655.140654 88.776016 655.667486 90.047899 656.60512 90.985534 
C 657.542755 91.923168 658.814639 92.45 660.140654 92.45 
L 660.140654 92.45 
z
" style="fill: none; stroke: #ff0000; stroke-opacity: 0.3"/>
    </g>
    <g id="text_17">
     <!-- Wave front points -->
     <g transform="translate(768.140654 103.2) scale(0.6 -0.6)">
      <defs>
       <path id="CMR17-57" d="M 5523 3775 
C 5581 3948 5677 4173 6048 4185 
L 6048 4352 
C 5939 4345 5715 4339 5600 4339 
C 5440 4339 5158 4339 5005 4352 
L 5005 4185 
C 5293 4179 5414 4019 5414 3865 
C 5414 3820 5408 3794 5382 3724 
L 4390 557 
L 3347 3890 
C 3328 3955 3322 3980 3322 4006 
C 3322 4185 3603 4185 3725 4185 
L 3725 4352 
C 3539 4339 3219 4339 3021 4339 
C 2861 4339 2573 4339 2426 4352 
L 2426 4185 
C 2720 4185 2797 4166 2861 4051 
C 2886 3993 2989 3660 2989 3640 
C 2989 3615 2976 3576 2970 3557 
L 2029 564 
L 986 3890 
C 954 3980 954 3993 954 4006 
C 954 4185 1235 4185 1363 4185 
L 1363 4352 
C 1178 4339 858 4339 659 4339 
C 493 4339 211 4339 58 4352 
L 58 4185 
C 442 4185 467 4147 531 3942 
L 1779 -20 
C 1811 -116 1811 -128 1869 -128 
C 1920 -128 1939 -116 1965 -26 
L 3053 3448 
L 4141 -26 
C 4166 -116 4186 -128 4237 -128 
C 4294 -128 4294 -116 4326 -20 
L 5523 3775 
z
" transform="scale(0.015625)"/>
       <path id="CMR17-76" d="M 2502 2173 
C 2560 2315 2662 2572 3034 2585 
L 3034 2752 
C 2912 2745 2752 2739 2630 2739 
C 2496 2739 2285 2739 2157 2752 
L 2157 2585 
C 2317 2572 2406 2495 2406 2328 
C 2406 2270 2406 2257 2368 2167 
L 1664 379 
L 902 2308 
C 864 2392 864 2405 864 2431 
C 864 2585 1075 2585 1171 2585 
L 1171 2752 
C 1018 2739 736 2739 576 2739 
C 403 2739 205 2739 64 2752 
L 64 2585 
C 307 2585 442 2585 518 2386 
L 1446 44 
C 1485 -52 1491 -64 1549 -64 
C 1606 -64 1613 -52 1651 44 
L 2502 2173 
z
" transform="scale(0.015625)"/>
       <path id="CMR17-66" d="M 979 2585 
L 1709 2585 
L 1709 2752 
L 966 2752 
L 966 3539 
C 966 4076 1235 4377 1510 4377 
C 1594 4377 1690 4363 1754 4339 
C 1702 4326 1568 4281 1568 4121 
C 1568 3955 1696 3904 1786 3904 
C 1875 3904 2003 3955 2003 4121 
C 2003 4353 1773 4480 1517 4480 
C 1152 4480 653 4211 653 3526 
L 653 2752 
L 141 2752 
L 141 2585 
L 653 2585 
L 653 441 
C 653 198 627 166 218 166 
L 218 0 
C 371 12 666 12 832 12 
C 1018 12 1344 12 1517 0 
L 1517 166 
C 1056 166 979 166 979 454 
L 979 2585 
z
" transform="scale(0.015625)"/>
       <path id="CMR17-6f" d="M 2758 1356 
C 2758 2176 2163 2816 1466 2816 
C 768 2816 173 2176 173 1356 
C 173 550 768 -64 1466 -64 
C 2163 -64 2758 550 2758 1356 
z
M 1466 51 
C 1165 51 909 230 762 480 
C 602 768 582 1126 582 1408 
C 582 1676 595 2009 762 2297 
C 890 2508 1139 2713 1466 2713 
C 1754 2713 1997 2553 2150 2329 
C 2349 2028 2349 1606 2349 1408 
C 2349 1158 2336 774 2163 467 
C 1984 172 1709 51 1466 51 
z
" transform="scale(0.015625)"/>
       <path id="CMR17-6e" d="M 2656 1954 
C 2656 2282 2592 2816 1837 2816 
C 1331 2816 1069 2424 973 2166 
L 966 2166 
L 966 2816 
L 211 2745 
L 211 2578 
C 589 2578 646 2540 646 2231 
L 646 443 
C 646 198 621 166 211 166 
L 211 0 
C 365 12 646 12 813 12 
C 979 12 1267 12 1421 0 
L 1421 166 
C 1011 166 986 192 986 443 
L 986 1678 
C 986 2269 1344 2713 1792 2713 
C 2266 2713 2317 2289 2317 1980 
L 2317 443 
C 2317 198 2291 166 1882 166 
L 1882 0 
C 2035 12 2317 12 2483 12 
C 2650 12 2938 12 3091 0 
L 3091 166 
C 2682 166 2656 192 2656 443 
L 2656 1954 
z
" transform="scale(0.015625)"/>
       <path id="CMR17-74" d="M 966 2585 
L 1862 2585 
L 1862 2752 
L 966 2752 
L 966 3968 
L 851 3968 
C 838 3292 614 2700 70 2687 
L 70 2585 
L 627 2585 
L 627 778 
C 627 655 627 -64 1370 -64 
C 1747 -64 1965 308 1965 784 
L 1965 1151 
L 1850 1151 
L 1850 790 
C 1850 347 1677 51 1408 51 
C 1222 51 966 179 966 765 
L 966 2585 
z
" transform="scale(0.015625)"/>
       <path id="CMR17-70" d="M 1408 -1114 
C 998 -1114 973 -1088 973 -834 
L 973 380 
C 1158 109 1427 -64 1766 -64 
C 2406 -64 3053 503 3053 1382 
C 3053 2196 2496 2816 1837 2816 
C 1453 2816 1139 2603 960 2345 
L 960 2816 
L 198 2745 
L 198 2577 
C 576 2577 634 2539 634 2228 
L 634 -834 
C 634 -1081 608 -1114 198 -1114 
L 198 -1280 
C 352 -1268 634 -1268 800 -1268 
C 966 -1268 1254 -1268 1408 -1280 
L 1408 -1114 
z
M 973 2015 
C 973 2106 973 2241 1222 2481 
C 1254 2506 1472 2700 1792 2700 
C 2259 2700 2643 2112 2643 1376 
C 2643 639 2234 38 1728 38 
C 1498 38 1248 148 1056 451 
C 973 594 973 632 973 736 
L 973 2015 
z
" transform="scale(0.015625)"/>
      </defs>
      <use xlink:href="#CMR17-57" transform="scale(0.996264)"/>
      <use xlink:href="#CMR17-61" transform="translate(87.289395 0) scale(0.996264)"/>
      <use xlink:href="#CMR17-76" transform="translate(130.377418 0) scale(0.996264)"/>
      <use xlink:href="#CMR17-65" transform="translate(176.06788 0) scale(0.996264)"/>
      <use xlink:href="#CMR17-66" transform="translate(246.629506 0) scale(0.996264)"/>
      <use xlink:href="#CMR17-72" transform="translate(274.103019 0) scale(0.996264)"/>
      <use xlink:href="#CMR17-6f" transform="translate(309.383787 0) scale(0.996264)"/>
      <use xlink:href="#CMR17-6e" transform="translate(355.074264 0) scale(0.996264)"/>
      <use xlink:href="#CMR17-74" transform="translate(403.36718 0) scale(0.996264)"/>
      <use xlink:href="#CMR17-70" transform="translate(468.723914 0) scale(0.996264)"/>
      <use xlink:href="#CMR17-6f" transform="translate(522.221722 0) scale(0.996264)"/>
      <use xlink:href="#CMR17-69" transform="translate(567.912199 0) scale(0.996264)"/>
      <use xlink:href="#CMR17-6e" transform="translate(592.783258 0) scale(0.996264)"/>
      <use xlink:href="#CMR17-74" transform="translate(641.076174 0) scale(0.996264)"/>
      <use xlink:href="#CMR17-73" transform="translate(676.356941 0) scale(0.996264)"/>
     </g>
    </g>
    <g id="PathCollection_68">
     <path d="M 655.140654 176.076901 
L 665.140654 176.076901 
L 665.140654 166.076901 
L 655.140654 166.076901 
L 655.140654 176.076901 
z
" style="fill: none; stroke: #008000; stroke-opacity: 0.3"/>
    </g>
    <g id="text_18">
     <!-- Wave tail points -->
     <g transform="translate(768.140654 186.826901) scale(0.6 -0.6)">
      <use xlink:href="#CMR17-57" transform="scale(0.996264)"/>
      <use xlink:href="#CMR17-61" transform="translate(87.289395 0) scale(0.996264)"/>
      <use xlink:href="#CMR17-76" transform="translate(130.377418 0) scale(0.996264)"/>
      <use xlink:href="#CMR17-65" transform="translate(176.06788 0) scale(0.996264)"/>
      <use xlink:href="#CMR17-74" transform="translate(246.629506 0) scale(0.996264)"/>
      <use xlink:href="#CMR17-61" transform="translate(281.910274 0) scale(0.996264)"/>
      <use xlink:href="#CMR17-69" transform="translate(327.600751 0) scale(0.996264)"/>
      <use xlink:href="#CMR17-6c" transform="translate(352.47181 0) scale(0.996264)"/>
      <use xlink:href="#CMR17-70" transform="translate(407.418835 0) scale(0.996264)"/>
      <use xlink:href="#CMR17-6f" transform="translate(460.916643 0) scale(0.996264)"/>
      <use xlink:href="#CMR17-69" transform="translate(506.60712 0) scale(0.996264)"/>
      <use xlink:href="#CMR17-6e" transform="translate(531.478179 0) scale(0.996264)"/>
      <use xlink:href="#CMR17-74" transform="translate(579.771095 0) scale(0.996264)"/>
      <use xlink:href="#CMR17-73" transform="translate(615.051862 0) scale(0.996264)"/>
     </g>
    </g>
    <g id="line2d_82">
     <path d="M 600.140654 249.453802 
L 660.140654 249.453802 
L 720.140654 249.453802 
" style="fill: none; stroke: #0000ff; stroke-width: 5; stroke-linecap: square"/>
    </g>
    <g id="text_19">
     <!-- Wave skeleton lines -->
     <g transform="translate(768.140654 270.453802) scale(0.6 -0.6)">
      <use xlink:href="#CMR17-57" transform="scale(0.996264)"/>
      <use xlink:href="#CMR17-61" transform="translate(87.289395 0) scale(0.996264)"/>
      <use xlink:href="#CMR17-76" transform="translate(130.377418 0) scale(0.996264)"/>
      <use xlink:href="#CMR17-65" transform="translate(176.06788 0) scale(0.996264)"/>
      <use xlink:href="#CMR17-73" transform="translate(246.629506 0) scale(0.996264)"/>
      <use xlink:href="#CMR17-6b" transform="translate(282.430844 0) scale(0.996264)"/>
      <use xlink:href="#CMR17-65" transform="translate(328.121306 0) scale(0.996264)"/>
      <use xlink:href="#CMR17-6c" transform="translate(368.606966 0) scale(0.996264)"/>
      <use xlink:href="#CMR17-65" transform="translate(393.478025 0) scale(0.996264)"/>
      <use xlink:href="#CMR17-74" transform="translate(433.963685 0) scale(0.996264)"/>
      <use xlink:href="#CMR17-6f" transform="translate(469.244453 0) scale(0.996264)"/>
      <use xlink:href="#CMR17-6e" transform="translate(514.93493 0) scale(0.996264)"/>
      <use xlink:href="#CMR17-6c" transform="translate(595.906266 0) scale(0.996264)"/>
      <use xlink:href="#CMR17-69" transform="translate(620.777325 0) scale(0.996264)"/>
      <use xlink:href="#CMR17-6e" transform="translate(645.648383 0) scale(0.996264)"/>
      <use xlink:href="#CMR17-65" transform="translate(696.543753 0) scale(0.996264)"/>
      <use xlink:href="#CMR17-73" transform="translate(737.029414 0) scale(0.996264)"/>
     </g>
    </g>
   </g>
  </g>
 </g>
 <defs>
  <clipPath id="p1d465d9a6f">
   <rect x="169.839071" y="7.2" width="1116" height="1108.8"/>
  </clipPath>
 </defs>
</svg>
