<?xml version="1.0" encoding="utf-8" standalone="no"?>
<!DOCTYPE svg PUBLIC "-//W3C//DTD SVG 1.1//EN"
  "http://www.w3.org/Graphics/SVG/1.1/DTD/svg11.dtd">
<svg xmlns:xlink="http://www.w3.org/1999/xlink" width="1293.039071pt" height="1247.009934pt" viewBox="0 0 1293.039071 1247.009934" xmlns="http://www.w3.org/2000/svg" version="1.1">
 <metadata>
  <rdf:RDF xmlns:dc="http://purl.org/dc/elements/1.1/" xmlns:cc="http://creativecommons.org/ns#" xmlns:rdf="http://www.w3.org/1999/02/22-rdf-syntax-ns#">
   <cc:Work>
    <dc:type rdf:resource="http://purl.org/dc/dcmitype/StillImage"/>
    <dc:date>2024-12-19T16:17:33.250953</dc:date>
    <dc:format>image/svg+xml</dc:format>
    <dc:creator>
     <cc:Agent>
      <dc:title>Matplotlib v3.9.2, https://matplotlib.org/</dc:title>
     </cc:Agent>
    </dc:creator>
   </cc:Work>
  </rdf:RDF>
 </metadata>
 <defs>
  <style type="text/css">*{stroke-linejoin: round; stroke-linecap: butt}</style>
 </defs>
 <g id="figure_1">
  <g id="patch_1">
   <path d="M 0 1247.009934 
L 1293.039071 1247.009934 
L 1293.039071 0 
L 0 0 
z
" style="fill: #ffffff"/>
  </g>
  <g id="axes_1">
   <g id="patch_2">
    <path d="M 169.839071 1116 
L 1285.839071 1116 
L 1285.839071 7.2 
L 169.839071 7.2 
L 169.839071 1116 
z
" style="fill: none; opacity: 0"/>
   </g>
   <g id="PathCollection_1">
    <defs>
     <path id="C0_0_deb3bf7cd4" d="M 0 5 
C 1.326016 5 2.597899 4.473168 3.535534 3.535534 
C 4.473168 2.597899 5 1.326016 5 -0 
C 5 -1.326016 4.473168 -2.597899 3.535534 -3.535534 
C 2.597899 -4.473168 1.326016 -5 0 -5 
C -1.326016 -5 -2.597899 -4.473168 -3.535534 -3.535534 
C -4.473168 -2.597899 -5 -1.326016 -5 0 
C -5 1.326016 -4.473168 2.597899 -3.535534 3.535534 
C -2.597899 4.473168 -1.326016 5 0 5 
z
"/>
    </defs>
    <g clip-path="url(#p3dc64f600e)">
     <use xlink:href="#C0_0_deb3bf7cd4" x="169.839071" y="151.425091" style="fill: none; stroke: #808080; stroke-opacity: 0.3"/>
    </g>
    <g clip-path="url(#p3dc64f600e)">
     <use xlink:href="#C0_0_deb3bf7cd4" x="171.699071" y="157.181484" style="fill: none; stroke: #808080; stroke-opacity: 0.3"/>
    </g>
   </g>
   <g id="PathCollection_2">
    <path d="M 181.579071 136.732014 
L 191.579071 136.732014 
L 191.579071 126.732014 
L 181.579071 126.732014 
L 181.579071 136.732014 
z
" clip-path="url(#p3dc64f600e)" style="fill: none; stroke: #808080; stroke-opacity: 0.3"/>
    <path d="M 189.019071 138.614507 
L 199.019071 138.614507 
L 199.019071 128.614507 
L 189.019071 128.614507 
L 189.019071 138.614507 
z
" clip-path="url(#p3dc64f600e)" style="fill: none; stroke: #808080; stroke-opacity: 0.3"/>
   </g>
   <g id="PathCollection_3">
    <defs>
     <path id="C1_0_d3a5b6ca46" d="M 0 5 
C 1.326016 5 2.597899 4.473168 3.535534 3.535534 
C 4.473168 2.597899 5 1.326016 5 -0 
C 5 -1.326016 4.473168 -2.597899 3.535534 -3.535534 
C 2.597899 -4.473168 1.326016 -5 0 -5 
C -1.326016 -5 -2.597899 -4.473168 -3.535534 -3.535534 
C -4.473168 -2.597899 -5 -1.326016 -5 0 
C -5 1.326016 -4.473168 2.597899 -3.535534 3.535534 
C -2.597899 4.473168 -1.326016 5 0 5 
z
"/>
    </defs>
    <g clip-path="url(#p3dc64f600e)">
     <use xlink:href="#C1_0_d3a5b6ca46" x="171.699071" y="157.181484" style="fill: none; stroke: #808080; stroke-opacity: 0.3"/>
    </g>
    <g clip-path="url(#p3dc64f600e)">
     <use xlink:href="#C1_0_d3a5b6ca46" x="173.559071" y="165.119683" style="fill: none; stroke: #808080; stroke-opacity: 0.3"/>
    </g>
   </g>
   <g id="PathCollection_4">
    <path d="M 189.019071 138.614507 
L 199.019071 138.614507 
L 199.019071 128.614507 
L 189.019071 128.614507 
L 189.019071 138.614507 
z
" clip-path="url(#p3dc64f600e)" style="fill: none; stroke: #808080; stroke-opacity: 0.3"/>
    <path d="M 198.319071 141.899925 
L 208.319071 141.899925 
L 208.319071 131.899925 
L 198.319071 131.899925 
L 198.319071 141.899925 
z
" clip-path="url(#p3dc64f600e)" style="fill: none; stroke: #808080; stroke-opacity: 0.3"/>
   </g>
   <g id="PathCollection_5">
    <defs>
     <path id="C2_0_1f731eee9d" d="M 0 5 
C 1.326016 5 2.597899 4.473168 3.535534 3.535534 
C 4.473168 2.597899 5 1.326016 5 -0 
C 5 -1.326016 4.473168 -2.597899 3.535534 -3.535534 
C 2.597899 -4.473168 1.326016 -5 0 -5 
C -1.326016 -5 -2.597899 -4.473168 -3.535534 -3.535534 
C -4.473168 -2.597899 -5 -1.326016 -5 0 
C -5 1.326016 -4.473168 2.597899 -3.535534 3.535534 
C -2.597899 4.473168 -1.326016 5 0 5 
z
"/>
    </defs>
    <g clip-path="url(#p3dc64f600e)">
     <use xlink:href="#C2_0_1f731eee9d" x="173.559071" y="165.119683" style="fill: none; stroke: #808080; stroke-opacity: 0.3"/>
    </g>
    <g clip-path="url(#p3dc64f600e)">
     <use xlink:href="#C2_0_1f731eee9d" x="178.209071" y="171.482252" style="fill: none; stroke: #808080; stroke-opacity: 0.3"/>
    </g>
   </g>
   <g id="PathCollection_6">
    <path d="M 198.319071 141.899925 
L 208.319071 141.899925 
L 208.319071 131.899925 
L 198.319071 131.899925 
L 198.319071 141.899925 
z
" clip-path="url(#p3dc64f600e)" style="fill: none; stroke: #808080; stroke-opacity: 0.3"/>
    <path d="M 207.619071 146.775177 
L 217.619071 146.775177 
L 217.619071 136.775177 
L 207.619071 136.775177 
L 207.619071 146.775177 
z
" clip-path="url(#p3dc64f600e)" style="fill: none; stroke: #808080; stroke-opacity: 0.3"/>
   </g>
   <g id="PathCollection_7">
    <defs>
     <path id="C3_0_5aa2c028c4" d="M 0 5 
C 1.326016 5 2.597899 4.473168 3.535534 3.535534 
C 4.473168 2.597899 5 1.326016 5 -0 
C 5 -1.326016 4.473168 -2.597899 3.535534 -3.535534 
C 2.597899 -4.473168 1.326016 -5 0 -5 
C -1.326016 -5 -2.597899 -4.473168 -3.535534 -3.535534 
C -4.473168 -2.597899 -5 -1.326016 -5 0 
C -5 1.326016 -4.473168 2.597899 -3.535534 3.535534 
C -2.597899 4.473168 -1.326016 5 0 5 
z
"/>
    </defs>
    <g clip-path="url(#p3dc64f600e)">
     <use xlink:href="#C3_0_5aa2c028c4" x="178.209071" y="171.482252" style="fill: none; stroke: #808080; stroke-opacity: 0.3"/>
    </g>
    <g clip-path="url(#p3dc64f600e)">
     <use xlink:href="#C3_0_5aa2c028c4" x="184.719071" y="175.737148" style="fill: none; stroke: #808080; stroke-opacity: 0.3"/>
    </g>
   </g>
   <g id="PathCollection_8">
    <path d="M 207.619071 146.775177 
L 217.619071 146.775177 
L 217.619071 136.775177 
L 207.619071 136.775177 
L 207.619071 146.775177 
z
" clip-path="url(#p3dc64f600e)" style="fill: none; stroke: #808080; stroke-opacity: 0.3"/>
    <path d="M 216.919071 150.463157 
L 226.919071 150.463157 
L 226.919071 140.463157 
L 216.919071 140.463157 
L 216.919071 150.463157 
z
" clip-path="url(#p3dc64f600e)" style="fill: none; stroke: #808080; stroke-opacity: 0.3"/>
   </g>
   <g id="PathCollection_9">
    <defs>
     <path id="C4_0_414bb1e318" d="M 0 5 
C 1.326016 5 2.597899 4.473168 3.535534 3.535534 
C 4.473168 2.597899 5 1.326016 5 -0 
C 5 -1.326016 4.473168 -2.597899 3.535534 -3.535534 
C 2.597899 -4.473168 1.326016 -5 0 -5 
C -1.326016 -5 -2.597899 -4.473168 -3.535534 -3.535534 
C -4.473168 -2.597899 -5 -1.326016 -5 0 
C -5 1.326016 -4.473168 2.597899 -3.535534 3.535534 
C -2.597899 4.473168 -1.326016 5 0 5 
z
"/>
    </defs>
    <g clip-path="url(#p3dc64f600e)">
     <use xlink:href="#C4_0_414bb1e318" x="184.719071" y="175.737148" style="fill: none; stroke: #808080; stroke-opacity: 0.3"/>
    </g>
    <g clip-path="url(#p3dc64f600e)">
     <use xlink:href="#C4_0_414bb1e318" x="190.299071" y="181.092336" style="fill: none; stroke: #808080; stroke-opacity: 0.3"/>
    </g>
   </g>
   <g id="PathCollection_10">
    <path d="M 216.919071 150.463157 
L 226.919071 150.463157 
L 226.919071 140.463157 
L 216.919071 140.463157 
L 216.919071 150.463157 
z
" clip-path="url(#p3dc64f600e)" style="fill: none; stroke: #808080; stroke-opacity: 0.3"/>
    <path d="M 224.359071 153.926495 
L 234.359071 153.926495 
L 234.359071 143.926495 
L 224.359071 143.926495 
L 224.359071 153.926495 
z
" clip-path="url(#p3dc64f600e)" style="fill: none; stroke: #808080; stroke-opacity: 0.3"/>
   </g>
   <g id="PathCollection_11">
    <defs>
     <path id="C5_0_16f1b28d1d" d="M 0 5 
C 1.326016 5 2.597899 4.473168 3.535534 3.535534 
C 4.473168 2.597899 5 1.326016 5 -0 
C 5 -1.326016 4.473168 -2.597899 3.535534 -3.535534 
C 2.597899 -4.473168 1.326016 -5 0 -5 
C -1.326016 -5 -2.597899 -4.473168 -3.535534 -3.535534 
C -4.473168 -2.597899 -5 -1.326016 -5 0 
C -5 1.326016 -4.473168 2.597899 -3.535534 3.535534 
C -2.597899 4.473168 -1.326016 5 0 5 
z
"/>
    </defs>
    <g clip-path="url(#p3dc64f600e)">
     <use xlink:href="#C5_0_16f1b28d1d" x="190.299071" y="181.092336" style="fill: none; stroke: #808080; stroke-opacity: 0.3"/>
    </g>
    <g clip-path="url(#p3dc64f600e)">
     <use xlink:href="#C5_0_16f1b28d1d" x="194.019071" y="182.448745" style="fill: none; stroke: #808080; stroke-opacity: 0.3"/>
    </g>
   </g>
   <g id="PathCollection_12">
    <path d="M 224.359071 153.926495 
L 234.359071 153.926495 
L 234.359071 143.926495 
L 224.359071 143.926495 
L 224.359071 153.926495 
z
" clip-path="url(#p3dc64f600e)" style="fill: none; stroke: #808080; stroke-opacity: 0.3"/>
    <path d="M 229.009071 153.898427 
L 239.009071 153.898427 
L 239.009071 143.898427 
L 229.009071 143.898427 
L 229.009071 153.898427 
z
" clip-path="url(#p3dc64f600e)" style="fill: none; stroke: #808080; stroke-opacity: 0.3"/>
   </g>
   <g id="PathCollection_13">
    <defs>
     <path id="C6_0_e122f31d65" d="M 0 5 
C 1.326016 5 2.597899 4.473168 3.535534 3.535534 
C 4.473168 2.597899 5 1.326016 5 -0 
C 5 -1.326016 4.473168 -2.597899 3.535534 -3.535534 
C 2.597899 -4.473168 1.326016 -5 0 -5 
C -1.326016 -5 -2.597899 -4.473168 -3.535534 -3.535534 
C -4.473168 -2.597899 -5 -1.326016 -5 0 
C -5 1.326016 -4.473168 2.597899 -3.535534 3.535534 
C -2.597899 4.473168 -1.326016 5 0 5 
z
"/>
    </defs>
    <g clip-path="url(#p3dc64f600e)">
     <use xlink:href="#C6_0_e122f31d65" x="194.019071" y="182.448745" style="fill: none; stroke: #808080; stroke-opacity: 0.3"/>
    </g>
    <g clip-path="url(#p3dc64f600e)">
     <use xlink:href="#C6_0_e122f31d65" x="197.739071" y="183.85323" style="fill: none; stroke: #808080; stroke-opacity: 0.3"/>
    </g>
   </g>
   <g id="PathCollection_14">
    <path d="M 229.009071 153.898427 
L 239.009071 153.898427 
L 239.009071 143.898427 
L 229.009071 143.898427 
L 229.009071 153.898427 
z
" clip-path="url(#p3dc64f600e)" style="fill: none; stroke: #808080; stroke-opacity: 0.3"/>
    <path d="M 232.729071 155.106187 
L 242.729071 155.106187 
L 242.729071 145.106187 
L 232.729071 145.106187 
L 232.729071 155.106187 
z
" clip-path="url(#p3dc64f600e)" style="fill: none; stroke: #808080; stroke-opacity: 0.3"/>
   </g>
   <g id="PathCollection_15">
    <defs>
     <path id="C7_0_8b30efae2e" d="M 0 5 
C 1.326016 5 2.597899 4.473168 3.535534 3.535534 
C 4.473168 2.597899 5 1.326016 5 -0 
C 5 -1.326016 4.473168 -2.597899 3.535534 -3.535534 
C 2.597899 -4.473168 1.326016 -5 0 -5 
C -1.326016 -5 -2.597899 -4.473168 -3.535534 -3.535534 
C -4.473168 -2.597899 -5 -1.326016 -5 0 
C -5 1.326016 -4.473168 2.597899 -3.535534 3.535534 
C -2.597899 4.473168 -1.326016 5 0 5 
z
"/>
    </defs>
    <g clip-path="url(#p3dc64f600e)">
     <use xlink:href="#C7_0_8b30efae2e" x="197.739071" y="183.85323" style="fill: none; stroke: #808080; stroke-opacity: 0.3"/>
    </g>
    <g clip-path="url(#p3dc64f600e)">
     <use xlink:href="#C7_0_8b30efae2e" x="203.319071" y="184.721096" style="fill: none; stroke: #808080; stroke-opacity: 0.3"/>
    </g>
   </g>
   <g id="PathCollection_16">
    <path d="M 232.729071 155.106187 
L 242.729071 155.106187 
L 242.729071 145.106187 
L 232.729071 145.106187 
L 232.729071 155.106187 
z
" clip-path="url(#p3dc64f600e)" style="fill: none; stroke: #808080; stroke-opacity: 0.3"/>
    <path d="M 238.309071 155.624597 
L 248.309071 155.624597 
L 248.309071 145.624597 
L 238.309071 145.624597 
L 238.309071 155.624597 
z
" clip-path="url(#p3dc64f600e)" style="fill: none; stroke: #808080; stroke-opacity: 0.3"/>
   </g>
   <g id="PathCollection_17">
    <defs>
     <path id="C8_0_e80f4cb017" d="M 0 5 
C 1.326016 5 2.597899 4.473168 3.535534 3.535534 
C 4.473168 2.597899 5 1.326016 5 -0 
C 5 -1.326016 4.473168 -2.597899 3.535534 -3.535534 
C 2.597899 -4.473168 1.326016 -5 0 -5 
C -1.326016 -5 -2.597899 -4.473168 -3.535534 -3.535534 
C -4.473168 -2.597899 -5 -1.326016 -5 0 
C -5 1.326016 -4.473168 2.597899 -3.535534 3.535534 
C -2.597899 4.473168 -1.326016 5 0 5 
z
"/>
    </defs>
    <g clip-path="url(#p3dc64f600e)">
     <use xlink:href="#C8_0_e80f4cb017" x="203.319071" y="184.721096" style="fill: none; stroke: #808080; stroke-opacity: 0.3"/>
    </g>
    <g clip-path="url(#p3dc64f600e)">
     <use xlink:href="#C8_0_e80f4cb017" x="208.899071" y="186.010794" style="fill: none; stroke: #808080; stroke-opacity: 0.3"/>
    </g>
   </g>
   <g id="PathCollection_18">
    <path d="M 238.309071 155.624597 
L 248.309071 155.624597 
L 248.309071 145.624597 
L 238.309071 145.624597 
L 238.309071 155.624597 
z
" clip-path="url(#p3dc64f600e)" style="fill: none; stroke: #808080; stroke-opacity: 0.3"/>
    <path d="M 242.959071 157.490624 
L 252.959071 157.490624 
L 252.959071 147.490624 
L 242.959071 147.490624 
L 242.959071 157.490624 
z
" clip-path="url(#p3dc64f600e)" style="fill: none; stroke: #808080; stroke-opacity: 0.3"/>
   </g>
   <g id="PathCollection_19">
    <defs>
     <path id="C9_0_c6b03a644f" d="M 0 5 
C 1.326016 5 2.597899 4.473168 3.535534 3.535534 
C 4.473168 2.597899 5 1.326016 5 -0 
C 5 -1.326016 4.473168 -2.597899 3.535534 -3.535534 
C 2.597899 -4.473168 1.326016 -5 0 -5 
C -1.326016 -5 -2.597899 -4.473168 -3.535534 -3.535534 
C -4.473168 -2.597899 -5 -1.326016 -5 0 
C -5 1.326016 -4.473168 2.597899 -3.535534 3.535534 
C -2.597899 4.473168 -1.326016 5 0 5 
z
"/>
    </defs>
    <g clip-path="url(#p3dc64f600e)">
     <use xlink:href="#C9_0_c6b03a644f" x="208.899071" y="186.010794" style="fill: none; stroke: #808080; stroke-opacity: 0.3"/>
    </g>
    <g clip-path="url(#p3dc64f600e)">
     <use xlink:href="#C9_0_c6b03a644f" x="212.619071" y="188.674173" style="fill: none; stroke: #808080; stroke-opacity: 0.3"/>
    </g>
   </g>
   <g id="PathCollection_20">
    <path d="M 242.959071 157.490624 
L 252.959071 157.490624 
L 252.959071 147.490624 
L 242.959071 147.490624 
L 242.959071 157.490624 
z
" clip-path="url(#p3dc64f600e)" style="fill: none; stroke: #808080; stroke-opacity: 0.3"/>
    <path d="M 246.679071 159.40309 
L 256.679071 159.40309 
L 256.679071 149.40309 
L 246.679071 149.40309 
L 246.679071 159.40309 
z
" clip-path="url(#p3dc64f600e)" style="fill: none; stroke: #808080; stroke-opacity: 0.3"/>
   </g>
   <g id="PathCollection_21">
    <defs>
     <path id="Ca_0_279e3a4305" d="M 0 5 
C 1.326016 5 2.597899 4.473168 3.535534 3.535534 
C 4.473168 2.597899 5 1.326016 5 -0 
C 5 -1.326016 4.473168 -2.597899 3.535534 -3.535534 
C 2.597899 -4.473168 1.326016 -5 0 -5 
C -1.326016 -5 -2.597899 -4.473168 -3.535534 -3.535534 
C -4.473168 -2.597899 -5 -1.326016 -5 0 
C -5 1.326016 -4.473168 2.597899 -3.535534 3.535534 
C -2.597899 4.473168 -1.326016 5 0 5 
z
"/>
    </defs>
    <g clip-path="url(#p3dc64f600e)">
     <use xlink:href="#Ca_0_279e3a4305" x="212.619071" y="188.674173" style="fill: none; stroke: #808080; stroke-opacity: 0.3"/>
    </g>
    <g clip-path="url(#p3dc64f600e)">
     <use xlink:href="#Ca_0_279e3a4305" x="216.339071" y="190.194956" style="fill: none; stroke: #808080; stroke-opacity: 0.3"/>
    </g>
   </g>
   <g id="PathCollection_22">
    <path d="M 246.679071 159.40309 
L 256.679071 159.40309 
L 256.679071 149.40309 
L 246.679071 149.40309 
L 246.679071 159.40309 
z
" clip-path="url(#p3dc64f600e)" style="fill: none; stroke: #808080; stroke-opacity: 0.3"/>
    <path d="M 249.469071 161.341246 
L 259.469071 161.341246 
L 259.469071 151.341246 
L 249.469071 151.341246 
L 249.469071 161.341246 
z
" clip-path="url(#p3dc64f600e)" style="fill: none; stroke: #808080; stroke-opacity: 0.3"/>
   </g>
   <g id="PathCollection_23">
    <defs>
     <path id="Cb_0_7a859e50c7" d="M 0 5 
C 1.326016 5 2.597899 4.473168 3.535534 3.535534 
C 4.473168 2.597899 5 1.326016 5 -0 
C 5 -1.326016 4.473168 -2.597899 3.535534 -3.535534 
C 2.597899 -4.473168 1.326016 -5 0 -5 
C -1.326016 -5 -2.597899 -4.473168 -3.535534 -3.535534 
C -4.473168 -2.597899 -5 -1.326016 -5 0 
C -5 1.326016 -4.473168 2.597899 -3.535534 3.535534 
C -2.597899 4.473168 -1.326016 5 0 5 
z
"/>
    </defs>
    <g clip-path="url(#p3dc64f600e)">
     <use xlink:href="#Cb_0_7a859e50c7" x="216.339071" y="190.194956" style="fill: none; stroke: #808080; stroke-opacity: 0.3"/>
    </g>
    <g clip-path="url(#p3dc64f600e)">
     <use xlink:href="#Cb_0_7a859e50c7" x="220.059071" y="191.928508" style="fill: none; stroke: #808080; stroke-opacity: 0.3"/>
    </g>
   </g>
   <g id="PathCollection_24">
    <path d="M 249.469071 161.341246 
L 259.469071 161.341246 
L 259.469071 151.341246 
L 249.469071 151.341246 
L 249.469071 161.341246 
z
" clip-path="url(#p3dc64f600e)" style="fill: none; stroke: #808080; stroke-opacity: 0.3"/>
    <path d="M 253.189071 162.319583 
L 263.189071 162.319583 
L 263.189071 152.319583 
L 253.189071 152.319583 
L 253.189071 162.319583 
z
" clip-path="url(#p3dc64f600e)" style="fill: none; stroke: #808080; stroke-opacity: 0.3"/>
   </g>
   <g id="PathCollection_25">
    <defs>
     <path id="Cc_0_b21bc0bb2a" d="M 0 5 
C 1.326016 5 2.597899 4.473168 3.535534 3.535534 
C 4.473168 2.597899 5 1.326016 5 -0 
C 5 -1.326016 4.473168 -2.597899 3.535534 -3.535534 
C 2.597899 -4.473168 1.326016 -5 0 -5 
C -1.326016 -5 -2.597899 -4.473168 -3.535534 -3.535534 
C -4.473168 -2.597899 -5 -1.326016 -5 0 
C -5 1.326016 -4.473168 2.597899 -3.535534 3.535534 
C -2.597899 4.473168 -1.326016 5 0 5 
z
"/>
    </defs>
    <g clip-path="url(#p3dc64f600e)">
     <use xlink:href="#Cc_0_b21bc0bb2a" x="220.059071" y="191.928508" style="fill: none; stroke: #808080; stroke-opacity: 0.3"/>
    </g>
    <g clip-path="url(#p3dc64f600e)">
     <use xlink:href="#Cc_0_b21bc0bb2a" x="222.849071" y="194.415248" style="fill: none; stroke: #808080; stroke-opacity: 0.3"/>
    </g>
   </g>
   <g id="PathCollection_26">
    <path d="M 253.189071 162.319583 
L 263.189071 162.319583 
L 263.189071 152.319583 
L 253.189071 152.319583 
L 253.189071 162.319583 
z
" clip-path="url(#p3dc64f600e)" style="fill: none; stroke: #808080; stroke-opacity: 0.3"/>
    <path d="M 255.979071 163.982689 
L 265.979071 163.982689 
L 265.979071 153.982689 
L 255.979071 153.982689 
L 255.979071 163.982689 
z
" clip-path="url(#p3dc64f600e)" style="fill: none; stroke: #808080; stroke-opacity: 0.3"/>
   </g>
   <g id="PathCollection_27">
    <defs>
     <path id="Cd_0_89986a4fe0" d="M 0 5 
C 1.326016 5 2.597899 4.473168 3.535534 3.535534 
C 4.473168 2.597899 5 1.326016 5 -0 
C 5 -1.326016 4.473168 -2.597899 3.535534 -3.535534 
C 2.597899 -4.473168 1.326016 -5 0 -5 
C -1.326016 -5 -2.597899 -4.473168 -3.535534 -3.535534 
C -4.473168 -2.597899 -5 -1.326016 -5 0 
C -5 1.326016 -4.473168 2.597899 -3.535534 3.535534 
C -2.597899 4.473168 -1.326016 5 0 5 
z
"/>
    </defs>
    <g clip-path="url(#p3dc64f600e)">
     <use xlink:href="#Cd_0_89986a4fe0" x="222.849071" y="194.415248" style="fill: none; stroke: #808080; stroke-opacity: 0.3"/>
    </g>
    <g clip-path="url(#p3dc64f600e)">
     <use xlink:href="#Cd_0_89986a4fe0" x="226.569071" y="195.069156" style="fill: none; stroke: #808080; stroke-opacity: 0.3"/>
    </g>
   </g>
   <g id="PathCollection_28">
    <path d="M 255.979071 163.982689 
L 265.979071 163.982689 
L 265.979071 153.982689 
L 255.979071 153.982689 
L 255.979071 163.982689 
z
" clip-path="url(#p3dc64f600e)" style="fill: none; stroke: #808080; stroke-opacity: 0.3"/>
    <path d="M 258.769071 164.753861 
L 268.769071 164.753861 
L 268.769071 154.753861 
L 258.769071 154.753861 
L 258.769071 164.753861 
z
" clip-path="url(#p3dc64f600e)" style="fill: none; stroke: #808080; stroke-opacity: 0.3"/>
   </g>
   <g id="PathCollection_29">
    <defs>
     <path id="Ce_0_e1e132a380" d="M 0 5 
C 1.326016 5 2.597899 4.473168 3.535534 3.535534 
C 4.473168 2.597899 5 1.326016 5 -0 
C 5 -1.326016 4.473168 -2.597899 3.535534 -3.535534 
C 2.597899 -4.473168 1.326016 -5 0 -5 
C -1.326016 -5 -2.597899 -4.473168 -3.535534 -3.535534 
C -4.473168 -2.597899 -5 -1.326016 -5 0 
C -5 1.326016 -4.473168 2.597899 -3.535534 3.535534 
C -2.597899 4.473168 -1.326016 5 0 5 
z
"/>
    </defs>
    <g clip-path="url(#p3dc64f600e)">
     <use xlink:href="#Ce_0_e1e132a380" x="226.569071" y="195.069156" style="fill: none; stroke: #808080; stroke-opacity: 0.3"/>
    </g>
    <g clip-path="url(#p3dc64f600e)">
     <use xlink:href="#Ce_0_e1e132a380" x="229.359071" y="196.788059" style="fill: none; stroke: #808080; stroke-opacity: 0.3"/>
    </g>
   </g>
   <g id="PathCollection_30">
    <path d="M 258.769071 164.753861 
L 268.769071 164.753861 
L 268.769071 154.753861 
L 258.769071 154.753861 
L 258.769071 164.753861 
z
" clip-path="url(#p3dc64f600e)" style="fill: none; stroke: #808080; stroke-opacity: 0.3"/>
    <path d="M 261.559071 165.357864 
L 271.559071 165.357864 
L 271.559071 155.357864 
L 261.559071 155.357864 
L 261.559071 165.357864 
z
" clip-path="url(#p3dc64f600e)" style="fill: none; stroke: #808080; stroke-opacity: 0.3"/>
   </g>
   <g id="PathCollection_31">
    <path d="M 229.359071 201.788059 
C 230.685087 201.788059 231.956971 201.261228 232.894605 200.323593 
C 233.83224 199.385959 234.359071 198.114075 234.359071 196.788059 
C 234.359071 195.462044 233.83224 194.19016 232.894605 193.252526 
C 231.956971 192.314891 230.685087 191.788059 229.359071 191.788059 
C 228.033056 191.788059 226.761172 192.314891 225.823537 193.252526 
C 224.885903 194.19016 224.359071 195.462044 224.359071 196.788059 
C 224.359071 198.114075 224.885903 199.385959 225.823537 200.323593 
C 226.761172 201.261228 228.033056 201.788059 229.359071 201.788059 
L 229.359071 201.788059 
z
" clip-path="url(#p3dc64f600e)" style="fill: none; stroke: #808080; stroke-opacity: 0.3"/>
   </g>
   <g id="PathCollection_32">
    <path d="M 261.559071 165.357864 
L 271.559071 165.357864 
L 271.559071 155.357864 
L 261.559071 155.357864 
L 261.559071 165.357864 
z
" clip-path="url(#p3dc64f600e)" style="fill: none; stroke: #808080; stroke-opacity: 0.3"/>
   </g>
   <g id="PathCollection_33">
    <path d="M 233.079071 202.187701 
C 234.405087 202.187701 235.676971 201.66087 236.614605 200.723235 
C 237.55224 199.785601 238.079071 198.513717 238.079071 197.187701 
C 238.079071 195.861686 237.55224 194.589802 236.614605 193.652167 
C 235.676971 192.714533 234.405087 192.187701 233.079071 192.187701 
C 231.753056 192.187701 230.481172 192.714533 229.543537 193.652167 
C 228.605903 194.589802 228.079071 195.861686 228.079071 197.187701 
C 228.079071 198.513717 228.605903 199.785601 229.543537 200.723235 
C 230.481172 201.66087 231.753056 202.187701 233.079071 202.187701 
L 233.079071 202.187701 
z
" clip-path="url(#p3dc64f600e)" style="fill: none; stroke: #808080; stroke-opacity: 0.3"/>
   </g>
   <g id="PathCollection_34">
    <path d="M 235.519071 193.357164 
L 245.519071 193.357164 
L 245.519071 183.357164 
L 235.519071 183.357164 
L 235.519071 193.357164 
z
" clip-path="url(#p3dc64f600e)" style="fill: none; stroke: #808080; stroke-opacity: 0.3"/>
   </g>
   <g id="PathCollection_35">
    <path d="M 245.169071 187.446605 
C 246.495087 187.446605 247.766971 186.919773 248.704605 185.982138 
C 249.64224 185.044504 250.169071 183.77262 250.169071 182.446605 
C 250.169071 181.120589 249.64224 179.848705 248.704605 178.911071 
C 247.766971 177.973436 246.495087 177.446605 245.169071 177.446605 
C 243.843056 177.446605 242.571172 177.973436 241.633537 178.911071 
C 240.695903 179.848705 240.169071 181.120589 240.169071 182.446605 
C 240.169071 183.77262 240.695903 185.044504 241.633537 185.982138 
C 242.571172 186.919773 243.843056 187.446605 245.169071 187.446605 
L 245.169071 187.446605 
z
" clip-path="url(#p3dc64f600e)" style="fill: none; stroke: #808080; stroke-opacity: 0.3"/>
   </g>
   <g id="PathCollection_36">
    <path d="M 263.419071 167.185946 
L 273.419071 167.185946 
L 273.419071 157.185946 
L 263.419071 157.185946 
L 263.419071 167.185946 
z
" clip-path="url(#p3dc64f600e)" style="fill: none; stroke: #808080; stroke-opacity: 0.3"/>
   </g>
   <g id="PathCollection_37">
    <path d="M 233.079071 202.187701 
C 234.405087 202.187701 235.676971 201.66087 236.614605 200.723235 
C 237.55224 199.785601 238.079071 198.513717 238.079071 197.187701 
C 238.079071 195.861686 237.55224 194.589802 236.614605 193.652167 
C 235.676971 192.714533 234.405087 192.187701 233.079071 192.187701 
C 231.753056 192.187701 230.481172 192.714533 229.543537 193.652167 
C 228.605903 194.589802 228.079071 195.861686 228.079071 197.187701 
C 228.079071 198.513717 228.605903 199.785601 229.543537 200.723235 
C 230.481172 201.66087 231.753056 202.187701 233.079071 202.187701 
L 233.079071 202.187701 
z
" clip-path="url(#p3dc64f600e)" style="fill: none; stroke: #808080; stroke-opacity: 0.3"/>
   </g>
   <g id="PathCollection_38">
    <path d="M 235.519071 193.357164 
L 245.519071 193.357164 
L 245.519071 183.357164 
L 235.519071 183.357164 
L 235.519071 193.357164 
z
" clip-path="url(#p3dc64f600e)" style="fill: none; stroke: #808080; stroke-opacity: 0.3"/>
   </g>
   <g id="PathCollection_39">
    <defs>
     <path id="Cf_0_3e892656a9" d="M 0 5 
C 1.326016 5 2.597899 4.473168 3.535534 3.535534 
C 4.473168 2.597899 5 1.326016 5 -0 
C 5 -1.326016 4.473168 -2.597899 3.535534 -3.535534 
C 2.597899 -4.473168 1.326016 -5 0 -5 
C -1.326016 -5 -2.597899 -4.473168 -3.535534 -3.535534 
C -4.473168 -2.597899 -5 -1.326016 -5 0 
C -5 1.326016 -4.473168 2.597899 -3.535534 3.535534 
C -2.597899 4.473168 -1.326016 5 0 5 
z
"/>
    </defs>
    <g clip-path="url(#p3dc64f600e)">
     <use xlink:href="#Cf_0_3e892656a9" x="245.169071" y="182.446605" style="fill: none; stroke: #808080; stroke-opacity: 0.3"/>
    </g>
    <g clip-path="url(#p3dc64f600e)">
     <use xlink:href="#Cf_0_3e892656a9" x="247.959071" y="183.412985" style="fill: none; stroke: #808080; stroke-opacity: 0.3"/>
    </g>
   </g>
   <g id="PathCollection_40">
    <path d="M 263.419071 167.185946 
L 273.419071 167.185946 
L 273.419071 157.185946 
L 263.419071 157.185946 
L 263.419071 167.185946 
z
" clip-path="url(#p3dc64f600e)" style="fill: none; stroke: #808080; stroke-opacity: 0.3"/>
    <path d="M 267.139071 167.3405 
L 277.139071 167.3405 
L 277.139071 157.3405 
L 267.139071 157.3405 
L 267.139071 167.3405 
z
" clip-path="url(#p3dc64f600e)" style="fill: none; stroke: #808080; stroke-opacity: 0.3"/>
   </g>
   <g id="PathCollection_41">
    <defs>
     <path id="C10_0_a9d86d146d" d="M 0 5 
C 1.326016 5 2.597899 4.473168 3.535534 3.535534 
C 4.473168 2.597899 5 1.326016 5 -0 
C 5 -1.326016 4.473168 -2.597899 3.535534 -3.535534 
C 2.597899 -4.473168 1.326016 -5 0 -5 
C -1.326016 -5 -2.597899 -4.473168 -3.535534 -3.535534 
C -4.473168 -2.597899 -5 -1.326016 -5 0 
C -5 1.326016 -4.473168 2.597899 -3.535534 3.535534 
C -2.597899 4.473168 -1.326016 5 0 5 
z
"/>
    </defs>
    <g clip-path="url(#p3dc64f600e)">
     <use xlink:href="#C10_0_a9d86d146d" x="247.959071" y="183.412985" style="fill: none; stroke: #808080; stroke-opacity: 0.3"/>
    </g>
    <g clip-path="url(#p3dc64f600e)">
     <use xlink:href="#C10_0_a9d86d146d" x="250.749071" y="183.860902" style="fill: none; stroke: #808080; stroke-opacity: 0.3"/>
    </g>
   </g>
   <g id="PathCollection_42">
    <path d="M 267.139071 167.3405 
L 277.139071 167.3405 
L 277.139071 157.3405 
L 267.139071 157.3405 
L 267.139071 167.3405 
z
" clip-path="url(#p3dc64f600e)" style="fill: none; stroke: #808080; stroke-opacity: 0.3"/>
    <path d="M 269.929071 168.121154 
L 279.929071 168.121154 
L 279.929071 158.121154 
L 269.929071 158.121154 
L 269.929071 168.121154 
z
" clip-path="url(#p3dc64f600e)" style="fill: none; stroke: #808080; stroke-opacity: 0.3"/>
   </g>
   <g id="PathCollection_43">
    <defs>
     <path id="C11_0_2bdff1d945" d="M 0 5 
C 1.326016 5 2.597899 4.473168 3.535534 3.535534 
C 4.473168 2.597899 5 1.326016 5 -0 
C 5 -1.326016 4.473168 -2.597899 3.535534 -3.535534 
C 2.597899 -4.473168 1.326016 -5 0 -5 
C -1.326016 -5 -2.597899 -4.473168 -3.535534 -3.535534 
C -4.473168 -2.597899 -5 -1.326016 -5 0 
C -5 1.326016 -4.473168 2.597899 -3.535534 3.535534 
C -2.597899 4.473168 -1.326016 5 0 5 
z
"/>
    </defs>
    <g clip-path="url(#p3dc64f600e)">
     <use xlink:href="#C11_0_2bdff1d945" x="250.749071" y="183.860902" style="fill: none; stroke: #808080; stroke-opacity: 0.3"/>
    </g>
    <g clip-path="url(#p3dc64f600e)">
     <use xlink:href="#C11_0_2bdff1d945" x="252.609071" y="184.867449" style="fill: none; stroke: #808080; stroke-opacity: 0.3"/>
    </g>
   </g>
   <g id="PathCollection_44">
    <path d="M 269.929071 168.121154 
L 279.929071 168.121154 
L 279.929071 158.121154 
L 269.929071 158.121154 
L 269.929071 168.121154 
z
" clip-path="url(#p3dc64f600e)" style="fill: none; stroke: #808080; stroke-opacity: 0.3"/>
    <path d="M 271.789071 169.383532 
L 281.789071 169.383532 
L 281.789071 159.383532 
L 271.789071 159.383532 
L 271.789071 169.383532 
z
" clip-path="url(#p3dc64f600e)" style="fill: none; stroke: #808080; stroke-opacity: 0.3"/>
   </g>
   <g id="PathCollection_45">
    <defs>
     <path id="C12_0_a44880c6db" d="M 0 5 
C 1.326016 5 2.597899 4.473168 3.535534 3.535534 
C 4.473168 2.597899 5 1.326016 5 -0 
C 5 -1.326016 4.473168 -2.597899 3.535534 -3.535534 
C 2.597899 -4.473168 1.326016 -5 0 -5 
C -1.326016 -5 -2.597899 -4.473168 -3.535534 -3.535534 
C -4.473168 -2.597899 -5 -1.326016 -5 0 
C -5 1.326016 -4.473168 2.597899 -3.535534 3.535534 
C -2.597899 4.473168 -1.326016 5 0 5 
z
"/>
    </defs>
    <g clip-path="url(#p3dc64f600e)">
     <use xlink:href="#C12_0_a44880c6db" x="252.609071" y="184.867449" style="fill: none; stroke: #808080; stroke-opacity: 0.3"/>
    </g>
    <g clip-path="url(#p3dc64f600e)">
     <use xlink:href="#C12_0_a44880c6db" x="254.469071" y="187.610654" style="fill: none; stroke: #808080; stroke-opacity: 0.3"/>
    </g>
   </g>
   <g id="PathCollection_46">
    <path d="M 271.789071 169.383532 
L 281.789071 169.383532 
L 281.789071 159.383532 
L 271.789071 159.383532 
L 271.789071 169.383532 
z
" clip-path="url(#p3dc64f600e)" style="fill: none; stroke: #808080; stroke-opacity: 0.3"/>
    <path d="M 275.509071 169.986411 
L 285.509071 169.986411 
L 285.509071 159.986411 
L 275.509071 159.986411 
L 275.509071 169.986411 
z
" clip-path="url(#p3dc64f600e)" style="fill: none; stroke: #808080; stroke-opacity: 0.3"/>
   </g>
   <g id="PathCollection_47">
    <defs>
     <path id="C13_0_a55f4bc16a" d="M 0 5 
C 1.326016 5 2.597899 4.473168 3.535534 3.535534 
C 4.473168 2.597899 5 1.326016 5 -0 
C 5 -1.326016 4.473168 -2.597899 3.535534 -3.535534 
C 2.597899 -4.473168 1.326016 -5 0 -5 
C -1.326016 -5 -2.597899 -4.473168 -3.535534 -3.535534 
C -4.473168 -2.597899 -5 -1.326016 -5 0 
C -5 1.326016 -4.473168 2.597899 -3.535534 3.535534 
C -2.597899 4.473168 -1.326016 5 0 5 
z
"/>
    </defs>
    <g clip-path="url(#p3dc64f600e)">
     <use xlink:href="#C13_0_a55f4bc16a" x="254.469071" y="187.610654" style="fill: none; stroke: #808080; stroke-opacity: 0.3"/>
    </g>
    <g clip-path="url(#p3dc64f600e)">
     <use xlink:href="#C13_0_a55f4bc16a" x="258.189071" y="189.299861" style="fill: none; stroke: #808080; stroke-opacity: 0.3"/>
    </g>
   </g>
   <g id="PathCollection_48">
    <path d="M 275.509071 169.986411 
L 285.509071 169.986411 
L 285.509071 159.986411 
L 275.509071 159.986411 
L 275.509071 169.986411 
z
" clip-path="url(#p3dc64f600e)" style="fill: none; stroke: #808080; stroke-opacity: 0.3"/>
    <path d="M 277.369071 173.599577 
L 287.369071 173.599577 
L 287.369071 163.599577 
L 277.369071 163.599577 
L 277.369071 173.599577 
z
" clip-path="url(#p3dc64f600e)" style="fill: none; stroke: #808080; stroke-opacity: 0.3"/>
   </g>
   <g id="PathCollection_49">
    <defs>
     <path id="C14_0_1d53c2bea0" d="M 0 5 
C 1.326016 5 2.597899 4.473168 3.535534 3.535534 
C 4.473168 2.597899 5 1.326016 5 -0 
C 5 -1.326016 4.473168 -2.597899 3.535534 -3.535534 
C 2.597899 -4.473168 1.326016 -5 0 -5 
C -1.326016 -5 -2.597899 -4.473168 -3.535534 -3.535534 
C -4.473168 -2.597899 -5 -1.326016 -5 0 
C -5 1.326016 -4.473168 2.597899 -3.535534 3.535534 
C -2.597899 4.473168 -1.326016 5 0 5 
z
"/>
    </defs>
    <g clip-path="url(#p3dc64f600e)">
     <use xlink:href="#C14_0_1d53c2bea0" x="258.189071" y="189.299861" style="fill: none; stroke: #808080; stroke-opacity: 0.3"/>
    </g>
    <g clip-path="url(#p3dc64f600e)">
     <use xlink:href="#C14_0_1d53c2bea0" x="262.839071" y="192.568929" style="fill: none; stroke: #808080; stroke-opacity: 0.3"/>
    </g>
   </g>
   <g id="PathCollection_50">
    <path d="M 277.369071 173.599577 
L 287.369071 173.599577 
L 287.369071 163.599577 
L 277.369071 163.599577 
L 277.369071 173.599577 
z
" clip-path="url(#p3dc64f600e)" style="fill: none; stroke: #808080; stroke-opacity: 0.3"/>
    <path d="M 279.229071 179.557919 
L 289.229071 179.557919 
L 289.229071 169.557919 
L 279.229071 169.557919 
L 279.229071 179.557919 
z
" clip-path="url(#p3dc64f600e)" style="fill: none; stroke: #808080; stroke-opacity: 0.3"/>
   </g>
   <g id="PathCollection_51">
    <defs>
     <path id="C15_0_2e4c0912ab" d="M 0 5 
C 1.326016 5 2.597899 4.473168 3.535534 3.535534 
C 4.473168 2.597899 5 1.326016 5 -0 
C 5 -1.326016 4.473168 -2.597899 3.535534 -3.535534 
C 2.597899 -4.473168 1.326016 -5 0 -5 
C -1.326016 -5 -2.597899 -4.473168 -3.535534 -3.535534 
C -4.473168 -2.597899 -5 -1.326016 -5 0 
C -5 1.326016 -4.473168 2.597899 -3.535534 3.535534 
C -2.597899 4.473168 -1.326016 5 0 5 
z
"/>
    </defs>
    <g clip-path="url(#p3dc64f600e)">
     <use xlink:href="#C15_0_2e4c0912ab" x="262.839071" y="192.568929" style="fill: none; stroke: #808080; stroke-opacity: 0.3"/>
    </g>
    <g clip-path="url(#p3dc64f600e)">
     <use xlink:href="#C15_0_2e4c0912ab" x="269.349071" y="198.396111" style="fill: none; stroke: #808080; stroke-opacity: 0.3"/>
    </g>
   </g>
   <g id="PathCollection_52">
    <path d="M 279.229071 179.557919 
L 289.229071 179.557919 
L 289.229071 169.557919 
L 279.229071 169.557919 
L 279.229071 179.557919 
z
" clip-path="url(#p3dc64f600e)" style="fill: none; stroke: #808080; stroke-opacity: 0.3"/>
    <path d="M 282.949071 188.141845 
L 292.949071 188.141845 
L 292.949071 178.141845 
L 282.949071 178.141845 
L 282.949071 188.141845 
z
" clip-path="url(#p3dc64f600e)" style="fill: none; stroke: #808080; stroke-opacity: 0.3"/>
   </g>
   <g id="PathCollection_53">
    <defs>
     <path id="C16_0_53d6dc6269" d="M 0 5 
C 1.326016 5 2.597899 4.473168 3.535534 3.535534 
C 4.473168 2.597899 5 1.326016 5 -0 
C 5 -1.326016 4.473168 -2.597899 3.535534 -3.535534 
C 2.597899 -4.473168 1.326016 -5 0 -5 
C -1.326016 -5 -2.597899 -4.473168 -3.535534 -3.535534 
C -4.473168 -2.597899 -5 -1.326016 -5 0 
C -5 1.326016 -4.473168 2.597899 -3.535534 3.535534 
C -2.597899 4.473168 -1.326016 5 0 5 
z
"/>
    </defs>
    <g clip-path="url(#p3dc64f600e)">
     <use xlink:href="#C16_0_53d6dc6269" x="269.349071" y="198.396111" style="fill: none; stroke: #808080; stroke-opacity: 0.3"/>
    </g>
    <g clip-path="url(#p3dc64f600e)">
     <use xlink:href="#C16_0_53d6dc6269" x="281.439071" y="208.285026" style="fill: none; stroke: #808080; stroke-opacity: 0.3"/>
    </g>
   </g>
   <g id="PathCollection_54">
    <path d="M 282.949071 188.141845 
L 292.949071 188.141845 
L 292.949071 178.141845 
L 282.949071 178.141845 
L 282.949071 188.141845 
z
" clip-path="url(#p3dc64f600e)" style="fill: none; stroke: #808080; stroke-opacity: 0.3"/>
    <path d="M 292.249071 200.289485 
L 302.249071 200.289485 
L 302.249071 190.289485 
L 292.249071 190.289485 
L 292.249071 200.289485 
z
" clip-path="url(#p3dc64f600e)" style="fill: none; stroke: #808080; stroke-opacity: 0.3"/>
   </g>
   <g id="PathCollection_55">
    <defs>
     <path id="C17_0_6f49159feb" d="M 0 5 
C 1.326016 5 2.597899 4.473168 3.535534 3.535534 
C 4.473168 2.597899 5 1.326016 5 -0 
C 5 -1.326016 4.473168 -2.597899 3.535534 -3.535534 
C 2.597899 -4.473168 1.326016 -5 0 -5 
C -1.326016 -5 -2.597899 -4.473168 -3.535534 -3.535534 
C -4.473168 -2.597899 -5 -1.326016 -5 0 
C -5 1.326016 -4.473168 2.597899 -3.535534 3.535534 
C -2.597899 4.473168 -1.326016 5 0 5 
z
"/>
    </defs>
    <g clip-path="url(#p3dc64f600e)">
     <use xlink:href="#C17_0_6f49159feb" x="281.439071" y="208.285026" style="fill: none; stroke: #808080; stroke-opacity: 0.3"/>
    </g>
    <g clip-path="url(#p3dc64f600e)">
     <use xlink:href="#C17_0_6f49159feb" x="290.739071" y="218.491034" style="fill: none; stroke: #808080; stroke-opacity: 0.3"/>
    </g>
   </g>
   <g id="PathCollection_56">
    <path d="M 292.249071 200.289485 
L 302.249071 200.289485 
L 302.249071 190.289485 
L 292.249071 190.289485 
L 292.249071 200.289485 
z
" clip-path="url(#p3dc64f600e)" style="fill: none; stroke: #808080; stroke-opacity: 0.3"/>
    <path d="M 300.619071 211.050385 
L 310.619071 211.050385 
L 310.619071 201.050385 
L 300.619071 201.050385 
L 300.619071 211.050385 
z
" clip-path="url(#p3dc64f600e)" style="fill: none; stroke: #808080; stroke-opacity: 0.3"/>
   </g>
   <g id="PathCollection_57">
    <defs>
     <path id="C18_0_3191b49d6a" d="M 0 5 
C 1.326016 5 2.597899 4.473168 3.535534 3.535534 
C 4.473168 2.597899 5 1.326016 5 -0 
C 5 -1.326016 4.473168 -2.597899 3.535534 -3.535534 
C 2.597899 -4.473168 1.326016 -5 0 -5 
C -1.326016 -5 -2.597899 -4.473168 -3.535534 -3.535534 
C -4.473168 -2.597899 -5 -1.326016 -5 0 
C -5 1.326016 -4.473168 2.597899 -3.535534 3.535534 
C -2.597899 4.473168 -1.326016 5 0 5 
z
"/>
    </defs>
    <g clip-path="url(#p3dc64f600e)">
     <use xlink:href="#C18_0_3191b49d6a" x="290.739071" y="218.491034" style="fill: none; stroke: #808080; stroke-opacity: 0.3"/>
    </g>
    <g clip-path="url(#p3dc64f600e)">
     <use xlink:href="#C18_0_3191b49d6a" x="303.759071" y="231.479106" style="fill: none; stroke: #808080; stroke-opacity: 0.3"/>
    </g>
   </g>
   <g id="PathCollection_58">
    <path d="M 300.619071 211.050385 
L 310.619071 211.050385 
L 310.619071 201.050385 
L 300.619071 201.050385 
L 300.619071 211.050385 
z
" clip-path="url(#p3dc64f600e)" style="fill: none; stroke: #808080; stroke-opacity: 0.3"/>
    <path d="M 313.639071 224.529258 
L 323.639071 224.529258 
L 323.639071 214.529258 
L 313.639071 214.529258 
L 313.639071 224.529258 
z
" clip-path="url(#p3dc64f600e)" style="fill: none; stroke: #808080; stroke-opacity: 0.3"/>
   </g>
   <g id="matplotlib.axis_1">
    <g id="xtick_1">
     <g id="line2d_1">
      <path d="M 259.119071 1116 
L 259.119071 7.2 
" clip-path="url(#p3dc64f600e)" style="fill: none; stroke-dasharray: 11.1,4.8; stroke-dashoffset: 0; stroke: #b0b0b0; stroke-width: 3"/>
     </g>
     <g id="line2d_2">
      <defs>
       <path id="mc6ae6df8a6" d="M 0 0 
L 0 3.5 
" style="stroke: #000000; stroke-width: 0.8"/>
      </defs>
      <g>
       <use xlink:href="#mc6ae6df8a6" x="259.119071" y="1116" style="stroke: #000000; stroke-width: 0.8"/>
      </g>
     </g>
     <g id="text_1">
      <!-- $\mathdefault{4200}$ -->
      <g transform="translate(204.290499 1164.511005) scale(0.6 -0.6)">
       <defs>
        <path id="CMR17-34" d="M 2150 4147 
C 2150 4281 2144 4288 2029 4288 
L 128 1254 
L 128 1088 
L 1779 1088 
L 1779 460 
C 1779 230 1766 166 1318 166 
L 1197 166 
L 1197 0 
C 1402 12 1747 12 1965 12 
C 2182 12 2528 12 2733 0 
L 2733 166 
L 2611 166 
C 2163 166 2150 230 2150 460 
L 2150 1088 
L 2803 1088 
L 2803 1254 
L 2150 1254 
L 2150 4147 
z
M 1798 3723 
L 1798 1254 
L 256 1254 
L 1798 3723 
z
" transform="scale(0.015625)"/>
        <path id="CMR17-32" d="M 2669 990 
L 2554 990 
C 2490 537 2438 460 2413 422 
C 2381 371 1920 371 1830 371 
L 602 371 
C 832 620 1280 1073 1824 1596 
C 2214 1966 2669 2400 2669 3033 
C 2669 3788 2067 4224 1395 4224 
C 691 4224 262 3603 262 3027 
C 262 2777 448 2745 525 2745 
C 589 2745 781 2783 781 3007 
C 781 3206 614 3264 525 3264 
C 486 3264 448 3257 422 3244 
C 544 3788 915 4057 1306 4057 
C 1862 4057 2227 3616 2227 3033 
C 2227 2477 1901 1998 1536 1583 
L 262 147 
L 262 0 
L 2515 0 
L 2669 990 
z
" transform="scale(0.015625)"/>
        <path id="CMR17-30" d="M 2688 2038 
C 2688 2430 2682 3099 2413 3613 
C 2176 4063 1798 4224 1466 4224 
C 1158 4224 768 4082 525 3620 
C 269 3137 243 2539 243 2038 
C 243 1671 250 1112 448 623 
C 723 -39 1216 -128 1466 -128 
C 1760 -128 2208 -7 2470 604 
C 2662 1048 2688 1568 2688 2038 
z
M 1466 -26 
C 1056 -26 813 328 723 816 
C 653 1196 653 1749 653 2109 
C 653 2604 653 3015 736 3407 
C 858 3954 1216 4121 1466 4121 
C 1728 4121 2067 3947 2189 3420 
C 2272 3054 2278 2623 2278 2109 
C 2278 1691 2278 1176 2202 797 
C 2067 96 1690 -26 1466 -26 
z
" transform="scale(0.015625)"/>
       </defs>
       <use xlink:href="#CMR17-34" transform="scale(0.996264)"/>
       <use xlink:href="#CMR17-32" transform="translate(45.690477 0) scale(0.996264)"/>
       <use xlink:href="#CMR17-30" transform="translate(91.380954 0) scale(0.996264)"/>
       <use xlink:href="#CMR17-30" transform="translate(137.071431 0) scale(0.996264)"/>
      </g>
     </g>
    </g>
    <g id="xtick_2">
     <g id="line2d_3">
      <path d="M 445.119071 1116 
L 445.119071 7.2 
" clip-path="url(#p3dc64f600e)" style="fill: none; stroke-dasharray: 11.1,4.8; stroke-dashoffset: 0; stroke: #b0b0b0; stroke-width: 3"/>
     </g>
     <g id="line2d_4">
      <g>
       <use xlink:href="#mc6ae6df8a6" x="445.119071" y="1116" style="stroke: #000000; stroke-width: 0.8"/>
      </g>
     </g>
     <g id="text_2">
      <!-- $\mathdefault{4400}$ -->
      <g transform="translate(390.290499 1164.511005) scale(0.6 -0.6)">
       <use xlink:href="#CMR17-34" transform="scale(0.996264)"/>
       <use xlink:href="#CMR17-34" transform="translate(45.690477 0) scale(0.996264)"/>
       <use xlink:href="#CMR17-30" transform="translate(91.380954 0) scale(0.996264)"/>
       <use xlink:href="#CMR17-30" transform="translate(137.071431 0) scale(0.996264)"/>
      </g>
     </g>
    </g>
    <g id="xtick_3">
     <g id="line2d_5">
      <path d="M 631.119071 1116 
L 631.119071 7.2 
" clip-path="url(#p3dc64f600e)" style="fill: none; stroke-dasharray: 11.1,4.8; stroke-dashoffset: 0; stroke: #b0b0b0; stroke-width: 3"/>
     </g>
     <g id="line2d_6">
      <g>
       <use xlink:href="#mc6ae6df8a6" x="631.119071" y="1116" style="stroke: #000000; stroke-width: 0.8"/>
      </g>
     </g>
     <g id="text_3">
      <!-- $\mathdefault{4600}$ -->
      <g transform="translate(576.290499 1164.511005) scale(0.6 -0.6)">
       <defs>
        <path id="CMR17-36" d="M 678 2198 
C 678 3712 1395 4076 1811 4076 
C 1946 4076 2272 4049 2400 3782 
C 2298 3782 2106 3782 2106 3558 
C 2106 3385 2246 3328 2336 3328 
C 2394 3328 2566 3353 2566 3571 
C 2566 3987 2246 4224 1805 4224 
C 1043 4224 243 3411 243 2011 
C 243 257 966 -128 1478 -128 
C 2099 -128 2688 431 2688 1295 
C 2688 2101 2170 2688 1517 2688 
C 1126 2688 838 2430 678 1979 
L 678 2198 
z
M 1478 25 
C 691 25 691 1212 691 1450 
C 691 1914 909 2585 1504 2585 
C 1613 2585 1926 2585 2138 2140 
C 2253 1889 2253 1624 2253 1302 
C 2253 954 2253 696 2118 438 
C 1978 173 1773 25 1478 25 
z
" transform="scale(0.015625)"/>
       </defs>
       <use xlink:href="#CMR17-34" transform="scale(0.996264)"/>
       <use xlink:href="#CMR17-36" transform="translate(45.690477 0) scale(0.996264)"/>
       <use xlink:href="#CMR17-30" transform="translate(91.380954 0) scale(0.996264)"/>
       <use xlink:href="#CMR17-30" transform="translate(137.071431 0) scale(0.996264)"/>
      </g>
     </g>
    </g>
    <g id="xtick_4">
     <g id="line2d_7">
      <path d="M 817.119071 1116 
L 817.119071 7.2 
" clip-path="url(#p3dc64f600e)" style="fill: none; stroke-dasharray: 11.1,4.8; stroke-dashoffset: 0; stroke: #b0b0b0; stroke-width: 3"/>
     </g>
     <g id="line2d_8">
      <g>
       <use xlink:href="#mc6ae6df8a6" x="817.119071" y="1116" style="stroke: #000000; stroke-width: 0.8"/>
      </g>
     </g>
     <g id="text_4">
      <!-- $\mathdefault{4800}$ -->
      <g transform="translate(762.290499 1164.511005) scale(0.6 -0.6)">
       <defs>
        <path id="CMR17-38" d="M 1741 2289 
C 2144 2494 2554 2803 2554 3298 
C 2554 3884 1990 4224 1472 4224 
C 890 4224 378 3800 378 3215 
C 378 3054 416 2777 666 2533 
C 730 2469 998 2276 1171 2154 
C 883 2006 211 1652 211 945 
C 211 282 838 -128 1459 -128 
C 2144 -128 2720 366 2720 1022 
C 2720 1607 2330 1877 2074 2051 
L 1741 2289 
z
M 902 2855 
C 851 2887 595 3086 595 3388 
C 595 3781 998 4076 1459 4076 
C 1965 4076 2336 3716 2336 3298 
C 2336 2700 1670 2359 1638 2359 
C 1632 2359 1626 2359 1574 2398 
L 902 2855 
z
M 2080 1536 
C 2176 1466 2483 1253 2483 861 
C 2483 385 2010 25 1472 25 
C 890 25 448 443 448 951 
C 448 1459 838 1884 1280 2083 
L 2080 1536 
z
" transform="scale(0.015625)"/>
       </defs>
       <use xlink:href="#CMR17-34" transform="scale(0.996264)"/>
       <use xlink:href="#CMR17-38" transform="translate(45.690477 0) scale(0.996264)"/>
       <use xlink:href="#CMR17-30" transform="translate(91.380954 0) scale(0.996264)"/>
       <use xlink:href="#CMR17-30" transform="translate(137.071431 0) scale(0.996264)"/>
      </g>
     </g>
    </g>
    <g id="xtick_5">
     <g id="line2d_9">
      <path d="M 1003.119071 1116 
L 1003.119071 7.2 
" clip-path="url(#p3dc64f600e)" style="fill: none; stroke-dasharray: 11.1,4.8; stroke-dashoffset: 0; stroke: #b0b0b0; stroke-width: 3"/>
     </g>
     <g id="line2d_10">
      <g>
       <use xlink:href="#mc6ae6df8a6" x="1003.119071" y="1116" style="stroke: #000000; stroke-width: 0.8"/>
      </g>
     </g>
     <g id="text_5">
      <!-- $\mathdefault{5000}$ -->
      <g transform="translate(948.290499 1164.511005) scale(0.6 -0.6)">
       <defs>
        <path id="CMR17-35" d="M 730 3750 
C 794 3724 1056 3641 1325 3641 
C 1920 3641 2246 3961 2432 4140 
C 2432 4191 2432 4224 2394 4224 
C 2387 4224 2374 4224 2323 4198 
C 2099 4102 1837 4032 1517 4032 
C 1325 4032 1037 4055 723 4191 
C 653 4224 640 4224 634 4224 
C 602 4224 595 4217 595 4090 
L 595 2231 
C 595 2113 595 2080 659 2080 
C 691 2080 704 2093 736 2139 
C 941 2435 1222 2560 1542 2560 
C 1766 2560 2246 2415 2246 1293 
C 2246 1087 2246 716 2054 422 
C 1894 159 1645 25 1370 25 
C 947 25 518 319 403 812 
C 429 806 480 793 506 793 
C 589 793 749 838 749 1036 
C 749 1209 627 1280 506 1280 
C 358 1280 262 1190 262 1011 
C 262 454 704 -128 1382 -128 
C 2042 -128 2669 441 2669 1267 
C 2669 2054 2170 2662 1549 2662 
C 1222 2662 947 2540 730 2304 
L 730 3750 
z
" transform="scale(0.015625)"/>
       </defs>
       <use xlink:href="#CMR17-35" transform="scale(0.996264)"/>
       <use xlink:href="#CMR17-30" transform="translate(45.690477 0) scale(0.996264)"/>
       <use xlink:href="#CMR17-30" transform="translate(91.380954 0) scale(0.996264)"/>
       <use xlink:href="#CMR17-30" transform="translate(137.071431 0) scale(0.996264)"/>
      </g>
     </g>
    </g>
    <g id="xtick_6">
     <g id="line2d_11">
      <path d="M 1189.119071 1116 
L 1189.119071 7.2 
" clip-path="url(#p3dc64f600e)" style="fill: none; stroke-dasharray: 11.1,4.8; stroke-dashoffset: 0; stroke: #b0b0b0; stroke-width: 3"/>
     </g>
     <g id="line2d_12">
      <g>
       <use xlink:href="#mc6ae6df8a6" x="1189.119071" y="1116" style="stroke: #000000; stroke-width: 0.8"/>
      </g>
     </g>
     <g id="text_6">
      <!-- $\mathdefault{5200}$ -->
      <g transform="translate(1134.290499 1164.511005) scale(0.6 -0.6)">
       <use xlink:href="#CMR17-35" transform="scale(0.996264)"/>
       <use xlink:href="#CMR17-32" transform="translate(45.690477 0) scale(0.996264)"/>
       <use xlink:href="#CMR17-30" transform="translate(91.380954 0) scale(0.996264)"/>
       <use xlink:href="#CMR17-30" transform="translate(137.071431 0) scale(0.996264)"/>
      </g>
     </g>
    </g>
    <g id="text_7">
     <!-- Time (s) -->
     <g transform="translate(624.271578 1224.915972) scale(0.6 -0.6)">
      <defs>
       <path id="CMR17-54" d="M 3981 4332 
L 288 4332 
L 179 2924 
L 294 2924 
C 378 3981 467 4166 1453 4166 
C 1568 4166 1754 4166 1805 4159 
C 1926 4140 1926 4064 1926 3917 
L 1926 465 
C 1926 236 1907 166 1376 166 
L 1197 166 
L 1197 0 
C 1504 6 1824 12 2138 12 
C 2451 12 2771 6 3078 0 
L 3078 166 
L 2899 166 
C 2368 166 2349 236 2349 465 
L 2349 3917 
C 2349 4057 2349 4134 2464 4159 
C 2515 4166 2701 4166 2816 4166 
C 3795 4166 3891 3981 3974 2924 
L 4090 2924 
L 3981 4332 
z
" transform="scale(0.015625)"/>
       <path id="CMR17-69" d="M 992 3961 
C 992 4102 877 4224 730 4224 
C 589 4224 467 4108 467 3961 
C 467 3820 582 3699 730 3699 
C 870 3699 992 3814 992 3961 
z
M 243 2745 
L 243 2579 
C 602 2579 653 2540 653 2231 
L 653 443 
C 653 198 627 166 218 166 
L 218 0 
C 371 12 646 12 806 12 
C 960 12 1222 12 1370 0 
L 1370 166 
C 992 166 979 205 979 436 
L 979 2816 
L 243 2745 
z
" transform="scale(0.015625)"/>
       <path id="CMR17-6d" d="M 4326 1954 
C 4326 2276 4269 2816 3507 2816 
C 3072 2816 2771 2520 2656 2173 
L 2650 2173 
C 2573 2700 2195 2816 1837 2816 
C 1331 2816 1069 2424 973 2166 
L 966 2166 
L 966 2816 
L 211 2745 
L 211 2578 
C 589 2578 646 2540 646 2231 
L 646 443 
C 646 198 621 166 211 166 
L 211 0 
C 365 12 646 12 813 12 
C 979 12 1267 12 1421 0 
L 1421 166 
C 1011 166 986 192 986 443 
L 986 1678 
C 986 2269 1344 2713 1792 2713 
C 2266 2713 2317 2289 2317 1980 
L 2317 443 
C 2317 198 2291 166 1882 166 
L 1882 0 
C 2035 12 2317 12 2483 12 
C 2650 12 2938 12 3091 0 
L 3091 166 
C 2682 166 2656 192 2656 443 
L 2656 1678 
C 2656 2269 3014 2713 3462 2713 
C 3936 2713 3987 2289 3987 1980 
L 3987 443 
C 3987 198 3962 166 3552 166 
L 3552 0 
C 3706 12 3987 12 4154 12 
C 4320 12 4608 12 4762 0 
L 4762 166 
C 4352 166 4326 192 4326 443 
L 4326 1954 
z
" transform="scale(0.015625)"/>
       <path id="CMR17-65" d="M 2438 1503 
C 2464 1529 2464 1542 2464 1606 
C 2464 2251 2118 2816 1389 2816 
C 710 2816 173 2175 173 1394 
C 173 554 781 -64 1459 -64 
C 2176 -64 2458 619 2458 755 
C 2458 800 2419 800 2406 800 
C 2362 800 2355 787 2330 709 
C 2189 270 1837 51 1504 51 
C 1229 51 954 206 781 490 
C 582 819 582 1200 582 1503 
L 2438 1503 
z
M 589 1600 
C 634 2511 1126 2713 1382 2713 
C 1818 2713 2112 2308 2118 1600 
L 589 1600 
z
" transform="scale(0.015625)"/>
       <path id="CMR17-28" d="M 1958 -1562 
C 1958 -1556 1958 -1543 1939 -1524 
C 1645 -1223 858 -403 858 1596 
C 858 3595 1632 4408 1946 4729 
C 1946 4735 1958 4748 1958 4767 
C 1958 4787 1939 4800 1914 4800 
C 1843 4800 1299 4325 986 3620 
C 666 2909 576 2218 576 1603 
C 576 1141 621 360 1005 -467 
C 1312 -1133 1837 -1600 1914 -1600 
C 1946 -1600 1958 -1588 1958 -1562 
z
" transform="scale(0.015625)"/>
       <path id="CMR17-73" d="M 1978 2688 
C 1978 2803 1971 2809 1933 2809 
C 1907 2809 1901 2803 1824 2707 
C 1805 2681 1747 2617 1728 2592 
C 1523 2809 1235 2816 1126 2816 
C 416 2816 160 2444 160 2073 
C 160 1497 813 1363 998 1324 
C 1402 1241 1542 1216 1677 1100 
C 1760 1024 1901 883 1901 652 
C 1901 384 1747 38 1158 38 
C 602 38 403 460 288 1024 
C 269 1113 269 1120 218 1120 
C 166 1120 160 1113 160 985 
L 160 64 
C 160 -52 166 -58 205 -58 
C 237 -58 243 -52 275 0 
C 314 57 410 211 448 275 
C 576 102 800 -64 1158 -64 
C 1792 -64 2131 281 2131 780 
C 2131 1107 1958 1280 1875 1356 
C 1683 1555 1459 1600 1190 1651 
C 838 1728 390 1817 390 2208 
C 390 2374 480 2726 1126 2726 
C 1811 2726 1850 2086 1862 1881 
C 1869 1849 1901 1843 1920 1843 
C 1978 1843 1978 1862 1978 1971 
L 1978 2688 
z
" transform="scale(0.015625)"/>
       <path id="CMR17-29" d="M 1683 1596 
C 1683 2057 1638 2839 1254 3665 
C 947 4332 422 4800 346 4800 
C 326 4800 301 4793 301 4761 
C 301 4748 307 4742 314 4729 
C 621 4408 1402 3595 1402 1603 
C 1402 -396 627 -1210 314 -1530 
C 307 -1543 301 -1549 301 -1562 
C 301 -1594 326 -1600 346 -1600 
C 416 -1600 960 -1127 1274 -422 
C 1594 289 1683 981 1683 1596 
z
" transform="scale(0.015625)"/>
      </defs>
      <use xlink:href="#CMR17-54" transform="scale(0.996264)"/>
      <use xlink:href="#CMR17-69" transform="translate(66.509881 0) scale(0.996264)"/>
      <use xlink:href="#CMR17-6d" transform="translate(91.380939 0) scale(0.996264)"/>
      <use xlink:href="#CMR17-65" transform="translate(168.300529 0) scale(0.996264)"/>
      <use xlink:href="#CMR17-28" transform="translate(238.862156 0) scale(0.996264)"/>
      <use xlink:href="#CMR17-73" transform="translate(274.142924 0) scale(0.996264)"/>
      <use xlink:href="#CMR17-29" transform="translate(309.944261 0) scale(0.996264)"/>
     </g>
    </g>
   </g>
   <g id="matplotlib.axis_2">
    <g id="ytick_1">
     <g id="line2d_13">
      <path d="M 169.839071 90.36 
L 1285.839071 90.36 
" clip-path="url(#p3dc64f600e)" style="fill: none; stroke-dasharray: 11.1,4.8; stroke-dashoffset: 0; stroke: #b0b0b0; stroke-width: 3"/>
     </g>
     <g id="line2d_14">
      <defs>
       <path id="md558255e82" d="M 0 0 
L -3.5 0 
" style="stroke: #000000; stroke-width: 0.8"/>
      </defs>
      <g>
       <use xlink:href="#md558255e82" x="169.839071" y="90.36" style="stroke: #000000; stroke-width: 0.8"/>
      </g>
     </g>
     <g id="text_8">
      <!-- $\mathdefault{59.0}$ -->
      <g transform="translate(64.337906 111.115503) scale(0.6 -0.6)">
       <defs>
        <path id="CMR17-39" d="M 2253 1871 
C 2253 448 1670 25 1190 25 
C 1043 25 685 43 538 281 
C 704 256 826 345 826 505 
C 826 678 685 736 595 736 
C 538 736 365 710 365 492 
C 365 68 742 -128 1203 -128 
C 1939 -128 2688 665 2688 2090 
C 2688 3857 1971 4224 1485 4224 
C 851 4224 243 3664 243 2800 
C 243 2000 762 1408 1414 1408 
C 1952 1408 2189 1910 2253 2122 
L 2253 1871 
z
M 1427 1510 
C 1254 1510 1011 1542 813 1929 
C 678 2181 678 2477 678 2793 
C 678 3174 678 3438 858 3722 
C 947 3857 1114 4076 1485 4076 
C 2240 4076 2240 2909 2240 2651 
C 2240 2193 2035 1510 1427 1510 
z
" transform="scale(0.015625)"/>
        <path id="CMMI12-3a" d="M 1178 307 
C 1178 492 1024 620 870 620 
C 685 620 557 467 557 313 
C 557 128 710 0 864 0 
C 1050 0 1178 153 1178 307 
z
" transform="scale(0.015625)"/>
       </defs>
       <use xlink:href="#CMR17-35" transform="scale(0.996264)"/>
       <use xlink:href="#CMR17-39" transform="translate(45.690477 0) scale(0.996264)"/>
       <use xlink:href="#CMMI12-3a" transform="translate(91.380954 0) scale(0.996264)"/>
       <use xlink:href="#CMR17-30" transform="translate(118.478131 0) scale(0.996264)"/>
      </g>
     </g>
    </g>
    <g id="ytick_2">
     <g id="line2d_15">
      <path d="M 169.839071 228.96 
L 1285.839071 228.96 
" clip-path="url(#p3dc64f600e)" style="fill: none; stroke-dasharray: 11.1,4.8; stroke-dashoffset: 0; stroke: #b0b0b0; stroke-width: 3"/>
     </g>
     <g id="line2d_16">
      <g>
       <use xlink:href="#md558255e82" x="169.839071" y="228.96" style="stroke: #000000; stroke-width: 0.8"/>
      </g>
     </g>
     <g id="text_9">
      <!-- $\mathdefault{59.5}$ -->
      <g transform="translate(64.337906 249.715503) scale(0.6 -0.6)">
       <use xlink:href="#CMR17-35" transform="scale(0.996264)"/>
       <use xlink:href="#CMR17-39" transform="translate(45.690477 0) scale(0.996264)"/>
       <use xlink:href="#CMMI12-3a" transform="translate(91.380954 0) scale(0.996264)"/>
       <use xlink:href="#CMR17-35" transform="translate(118.478131 0) scale(0.996264)"/>
      </g>
     </g>
    </g>
    <g id="ytick_3">
     <g id="line2d_17">
      <path d="M 169.839071 367.56 
L 1285.839071 367.56 
" clip-path="url(#p3dc64f600e)" style="fill: none; stroke-dasharray: 11.1,4.8; stroke-dashoffset: 0; stroke: #b0b0b0; stroke-width: 3"/>
     </g>
     <g id="line2d_18">
      <g>
       <use xlink:href="#md558255e82" x="169.839071" y="367.56" style="stroke: #000000; stroke-width: 0.8"/>
      </g>
     </g>
     <g id="text_10">
      <!-- $\mathdefault{60.0}$ -->
      <g transform="translate(64.337906 388.315503) scale(0.6 -0.6)">
       <use xlink:href="#CMR17-36" transform="scale(0.996264)"/>
       <use xlink:href="#CMR17-30" transform="translate(45.690477 0) scale(0.996264)"/>
       <use xlink:href="#CMMI12-3a" transform="translate(91.380954 0) scale(0.996264)"/>
       <use xlink:href="#CMR17-30" transform="translate(118.478131 0) scale(0.996264)"/>
      </g>
     </g>
    </g>
    <g id="ytick_4">
     <g id="line2d_19">
      <path d="M 169.839071 506.16 
L 1285.839071 506.16 
" clip-path="url(#p3dc64f600e)" style="fill: none; stroke-dasharray: 11.1,4.8; stroke-dashoffset: 0; stroke: #b0b0b0; stroke-width: 3"/>
     </g>
     <g id="line2d_20">
      <g>
       <use xlink:href="#md558255e82" x="169.839071" y="506.16" style="stroke: #000000; stroke-width: 0.8"/>
      </g>
     </g>
     <g id="text_11">
      <!-- $\mathdefault{60.5}$ -->
      <g transform="translate(64.337906 526.915503) scale(0.6 -0.6)">
       <use xlink:href="#CMR17-36" transform="scale(0.996264)"/>
       <use xlink:href="#CMR17-30" transform="translate(45.690477 0) scale(0.996264)"/>
       <use xlink:href="#CMMI12-3a" transform="translate(91.380954 0) scale(0.996264)"/>
       <use xlink:href="#CMR17-35" transform="translate(118.478131 0) scale(0.996264)"/>
      </g>
     </g>
    </g>
    <g id="ytick_5">
     <g id="line2d_21">
      <path d="M 169.839071 644.76 
L 1285.839071 644.76 
" clip-path="url(#p3dc64f600e)" style="fill: none; stroke-dasharray: 11.1,4.8; stroke-dashoffset: 0; stroke: #b0b0b0; stroke-width: 3"/>
     </g>
     <g id="line2d_22">
      <g>
       <use xlink:href="#md558255e82" x="169.839071" y="644.76" style="stroke: #000000; stroke-width: 0.8"/>
      </g>
     </g>
     <g id="text_12">
      <!-- $\mathdefault{61.0}$ -->
      <g transform="translate(64.337906 665.515503) scale(0.6 -0.6)">
       <defs>
        <path id="CMR17-31" d="M 1702 4083 
C 1702 4217 1696 4224 1606 4224 
C 1357 3927 979 3833 621 3820 
C 602 3820 570 3820 563 3808 
C 557 3795 557 3782 557 3648 
C 755 3648 1088 3686 1344 3839 
L 1344 467 
C 1344 243 1331 166 781 166 
L 589 166 
L 589 0 
C 896 6 1216 12 1523 12 
C 1830 12 2150 6 2458 0 
L 2458 166 
L 2266 166 
C 1715 166 1702 236 1702 467 
L 1702 4083 
z
" transform="scale(0.015625)"/>
       </defs>
       <use xlink:href="#CMR17-36" transform="scale(0.996264)"/>
       <use xlink:href="#CMR17-31" transform="translate(45.690477 0) scale(0.996264)"/>
       <use xlink:href="#CMMI12-3a" transform="translate(91.380954 0) scale(0.996264)"/>
       <use xlink:href="#CMR17-30" transform="translate(118.478131 0) scale(0.996264)"/>
      </g>
     </g>
    </g>
    <g id="ytick_6">
     <g id="line2d_23">
      <path d="M 169.839071 783.36 
L 1285.839071 783.36 
" clip-path="url(#p3dc64f600e)" style="fill: none; stroke-dasharray: 11.1,4.8; stroke-dashoffset: 0; stroke: #b0b0b0; stroke-width: 3"/>
     </g>
     <g id="line2d_24">
      <g>
       <use xlink:href="#md558255e82" x="169.839071" y="783.36" style="stroke: #000000; stroke-width: 0.8"/>
      </g>
     </g>
     <g id="text_13">
      <!-- $\mathdefault{61.5}$ -->
      <g transform="translate(64.337906 804.115503) scale(0.6 -0.6)">
       <use xlink:href="#CMR17-36" transform="scale(0.996264)"/>
       <use xlink:href="#CMR17-31" transform="translate(45.690477 0) scale(0.996264)"/>
       <use xlink:href="#CMMI12-3a" transform="translate(91.380954 0) scale(0.996264)"/>
       <use xlink:href="#CMR17-35" transform="translate(118.478131 0) scale(0.996264)"/>
      </g>
     </g>
    </g>
    <g id="ytick_7">
     <g id="line2d_25">
      <path d="M 169.839071 921.96 
L 1285.839071 921.96 
" clip-path="url(#p3dc64f600e)" style="fill: none; stroke-dasharray: 11.1,4.8; stroke-dashoffset: 0; stroke: #b0b0b0; stroke-width: 3"/>
     </g>
     <g id="line2d_26">
      <g>
       <use xlink:href="#md558255e82" x="169.839071" y="921.96" style="stroke: #000000; stroke-width: 0.8"/>
      </g>
     </g>
     <g id="text_14">
      <!-- $\mathdefault{62.0}$ -->
      <g transform="translate(64.337906 942.715503) scale(0.6 -0.6)">
       <use xlink:href="#CMR17-36" transform="scale(0.996264)"/>
       <use xlink:href="#CMR17-32" transform="translate(45.690477 0) scale(0.996264)"/>
       <use xlink:href="#CMMI12-3a" transform="translate(91.380954 0) scale(0.996264)"/>
       <use xlink:href="#CMR17-30" transform="translate(118.478131 0) scale(0.996264)"/>
      </g>
     </g>
    </g>
    <g id="ytick_8">
     <g id="line2d_27">
      <path d="M 169.839071 1060.56 
L 1285.839071 1060.56 
" clip-path="url(#p3dc64f600e)" style="fill: none; stroke-dasharray: 11.1,4.8; stroke-dashoffset: 0; stroke: #b0b0b0; stroke-width: 3"/>
     </g>
     <g id="line2d_28">
      <g>
       <use xlink:href="#md558255e82" x="169.839071" y="1060.56" style="stroke: #000000; stroke-width: 0.8"/>
      </g>
     </g>
     <g id="text_15">
      <!-- $\mathdefault{62.5}$ -->
      <g transform="translate(64.337906 1081.315503) scale(0.6 -0.6)">
       <use xlink:href="#CMR17-36" transform="scale(0.996264)"/>
       <use xlink:href="#CMR17-32" transform="translate(45.690477 0) scale(0.996264)"/>
       <use xlink:href="#CMMI12-3a" transform="translate(91.380954 0) scale(0.996264)"/>
       <use xlink:href="#CMR17-35" transform="translate(118.478131 0) scale(0.996264)"/>
      </g>
     </g>
    </g>
    <g id="text_16">
     <!-- Mile Marker -->
     <g transform="translate(48.711005 709.231707) rotate(-90) scale(0.6 -0.6)">
      <defs>
       <path id="CMR17-4d" d="M 1338 4249 
C 1299 4345 1293 4352 1158 4352 
L 339 4352 
L 339 4185 
C 781 4185 851 4185 851 3898 
L 851 624 
C 851 465 851 166 339 166 
L 339 0 
C 486 12 755 12 915 12 
C 1075 12 1344 12 1491 0 
L 1491 166 
C 979 166 979 465 979 624 
L 979 4159 
L 986 4159 
L 2490 102 
C 2515 38 2528 0 2579 0 
C 2630 0 2643 38 2669 102 
L 4186 4191 
L 4192 4191 
L 4192 453 
C 4192 166 4122 166 3680 166 
L 3680 0 
C 3853 12 4198 12 4384 12 
C 4570 12 4922 12 5094 0 
L 5094 166 
C 4653 166 4582 166 4582 453 
L 4582 3898 
C 4582 4185 4653 4185 5094 4185 
L 5094 4352 
L 4282 4352 
C 4147 4352 4141 4345 4102 4249 
L 2720 516 
L 1338 4249 
z
" transform="scale(0.015625)"/>
       <path id="CMR17-6c" d="M 979 4416 
L 218 4345 
L 218 4179 
C 595 4179 653 4141 653 3835 
L 653 439 
C 653 198 627 166 218 166 
L 218 0 
C 371 12 653 12 813 12 
C 979 12 1261 12 1414 0 
L 1414 166 
C 1005 166 979 191 979 439 
L 979 4416 
z
" transform="scale(0.015625)"/>
       <path id="CMR17-61" d="M 2304 1656 
C 2304 2048 2304 2275 2035 2534 
C 1798 2751 1523 2816 1306 2816 
C 800 2816 435 2408 435 1977 
C 435 1740 627 1728 666 1728 
C 749 1728 896 1779 896 1958 
C 896 2118 774 2188 666 2188 
C 640 2188 608 2182 589 2176 
C 723 2594 1069 2713 1293 2713 
C 1613 2713 1965 2421 1965 1875 
L 1965 1632 
C 1587 1619 1133 1568 774 1373 
C 371 1147 256 822 256 576 
C 256 77 832 -64 1171 -64 
C 1523 -64 1850 135 1990 505 
C 2003 219 2182 -39 2464 -39 
C 2598 -39 2938 51 2938 563 
L 2938 926 
L 2822 926 
L 2822 557 
C 2822 161 2650 109 2566 109 
C 2304 109 2304 446 2304 732 
L 2304 1656 
z
M 1965 887 
C 1965 323 1568 38 1216 38 
C 896 38 646 278 646 576 
C 646 771 730 1114 1101 1322 
C 1408 1497 1760 1523 1965 1536 
L 1965 887 
z
" transform="scale(0.015625)"/>
       <path id="CMR17-72" d="M 960 1517 
C 960 2134 1222 2713 1702 2713 
C 1747 2713 1792 2707 1837 2687 
C 1837 2687 1696 2642 1696 2475 
C 1696 2321 1818 2257 1914 2257 
C 1990 2257 2131 2302 2131 2482 
C 2131 2687 1926 2816 1709 2816 
C 1222 2816 1011 2340 947 2115 
L 941 2115 
L 941 2816 
L 198 2745 
L 198 2578 
C 576 2578 634 2540 634 2231 
L 634 443 
C 634 198 608 166 198 166 
L 198 0 
C 352 12 646 12 813 12 
C 998 12 1325 12 1498 0 
L 1498 166 
C 1037 166 960 166 960 455 
L 960 1517 
z
" transform="scale(0.015625)"/>
       <path id="CMR17-6b" d="M 1670 1679 
C 1664 1692 1632 1730 1632 1749 
C 1632 1762 2086 2175 2144 2226 
C 2509 2532 2739 2563 2906 2570 
L 2906 2735 
C 2867 2735 2854 2735 2848 2729 
L 2534 2722 
C 2355 2722 2080 2722 1907 2735 
L 1907 2570 
C 1997 2563 2061 2513 2061 2423 
C 2061 2296 1933 2175 1926 2175 
L 960 1298 
L 960 4416 
L 198 4345 
L 198 4179 
C 576 4179 634 4141 634 3835 
L 634 439 
C 634 198 608 166 198 166 
L 198 0 
C 352 12 634 12 794 12 
C 954 12 1235 12 1389 0 
L 1389 166 
C 979 166 954 191 954 439 
L 954 1139 
L 1395 1540 
L 2042 586 
C 2118 471 2182 382 2182 299 
C 2182 185 2067 166 1990 166 
L 1990 0 
C 2144 12 2419 12 2579 12 
C 2694 12 2931 6 3040 0 
L 3040 166 
C 2739 166 2669 223 2477 503 
L 1670 1679 
z
" transform="scale(0.015625)"/>
      </defs>
      <use xlink:href="#CMR17-4d" transform="scale(0.996264)"/>
      <use xlink:href="#CMR17-69" transform="translate(84.686941 0) scale(0.996264)"/>
      <use xlink:href="#CMR17-6c" transform="translate(109.557999 0) scale(0.996264)"/>
      <use xlink:href="#CMR17-65" transform="translate(134.429058 0) scale(0.996264)"/>
      <use xlink:href="#CMR17-4d" transform="translate(204.990684 0) scale(0.996264)"/>
      <use xlink:href="#CMR17-61" transform="translate(289.677625 0) scale(0.996264)"/>
      <use xlink:href="#CMR17-72" transform="translate(335.368102 0) scale(0.996264)"/>
      <use xlink:href="#CMR17-6b" transform="translate(370.64887 0) scale(0.996264)"/>
      <use xlink:href="#CMR17-65" transform="translate(416.339332 0) scale(0.996264)"/>
      <use xlink:href="#CMR17-72" transform="translate(456.824992 0) scale(0.996264)"/>
     </g>
    </g>
   </g>
   <g id="line2d_29">
    <path d="M 178.209071 141.578553 
L 182.859071 145.397995 
" clip-path="url(#p3dc64f600e)" style="fill: none; stroke: #0000ff; stroke-width: 5; stroke-linecap: square"/>
   </g>
   <g id="line2d_30">
    <path d="M 182.859071 145.397995 
L 188.439071 151.009804 
" clip-path="url(#p3dc64f600e)" style="fill: none; stroke: #0000ff; stroke-width: 5; stroke-linecap: square"/>
   </g>
   <g id="line2d_31">
    <path d="M 188.439071 151.009804 
L 195.414071 156.628715 
" clip-path="url(#p3dc64f600e)" style="fill: none; stroke: #0000ff; stroke-width: 5; stroke-linecap: square"/>
   </g>
   <g id="line2d_32">
    <path d="M 195.414071 156.628715 
L 203.319071 160.600153 
" clip-path="url(#p3dc64f600e)" style="fill: none; stroke: #0000ff; stroke-width: 5; stroke-linecap: square"/>
   </g>
   <g id="line2d_33">
    <path d="M 203.319071 160.600153 
L 209.829071 165.009416 
" clip-path="url(#p3dc64f600e)" style="fill: none; stroke: #0000ff; stroke-width: 5; stroke-linecap: square"/>
   </g>
   <g id="line2d_34">
    <path d="M 209.829071 165.009416 
L 214.014071 165.673586 
" clip-path="url(#p3dc64f600e)" style="fill: none; stroke: #0000ff; stroke-width: 5; stroke-linecap: square"/>
   </g>
   <g id="line2d_35">
    <path d="M 214.014071 165.673586 
L 217.734071 166.979709 
" clip-path="url(#p3dc64f600e)" style="fill: none; stroke: #0000ff; stroke-width: 5; stroke-linecap: square"/>
   </g>
   <g id="line2d_36">
    <path d="M 217.734071 166.979709 
L 223.314071 167.672846 
" clip-path="url(#p3dc64f600e)" style="fill: none; stroke: #0000ff; stroke-width: 5; stroke-linecap: square"/>
   </g>
   <g id="line2d_37">
    <path d="M 223.314071 167.672846 
L 228.429071 169.250709 
" clip-path="url(#p3dc64f600e)" style="fill: none; stroke: #0000ff; stroke-width: 5; stroke-linecap: square"/>
   </g>
   <g id="line2d_38">
    <path d="M 228.429071 169.250709 
L 232.149071 171.538631 
" clip-path="url(#p3dc64f600e)" style="fill: none; stroke: #0000ff; stroke-width: 5; stroke-linecap: square"/>
   </g>
   <g id="line2d_39">
    <path d="M 232.149071 171.538631 
L 235.404071 173.268101 
" clip-path="url(#p3dc64f600e)" style="fill: none; stroke: #0000ff; stroke-width: 5; stroke-linecap: square"/>
   </g>
   <g id="line2d_40">
    <path d="M 235.404071 173.268101 
L 239.124071 174.624046 
" clip-path="url(#p3dc64f600e)" style="fill: none; stroke: #0000ff; stroke-width: 5; stroke-linecap: square"/>
   </g>
   <g id="line2d_41">
    <path d="M 239.124071 174.624046 
L 241.914071 176.698968 
" clip-path="url(#p3dc64f600e)" style="fill: none; stroke: #0000ff; stroke-width: 5; stroke-linecap: square"/>
   </g>
   <g id="line2d_42">
    <path d="M 241.914071 176.698968 
L 245.169071 177.411508 
" clip-path="url(#p3dc64f600e)" style="fill: none; stroke: #0000ff; stroke-width: 5; stroke-linecap: square"/>
   </g>
   <g id="line2d_43">
    <path d="M 245.169071 177.411508 
L 247.959071 178.572962 
" clip-path="url(#p3dc64f600e)" style="fill: none; stroke: #0000ff; stroke-width: 5; stroke-linecap: square"/>
   </g>
   <g id="line2d_44">
    <path d="M 247.959071 178.572962 
L 247.959071 178.572962 
" clip-path="url(#p3dc64f600e)" style="fill: none; stroke: #0000ff; stroke-width: 5; stroke-linecap: square"/>
   </g>
   <g id="line2d_45">
    <path d="M 236.799071 192.772433 
L 236.799071 192.772433 
" clip-path="url(#p3dc64f600e)" style="fill: none; stroke: #0000ff; stroke-width: 5; stroke-linecap: square"/>
   </g>
   <g id="line2d_46">
    <path d="M 256.794071 172.316275 
L 256.794071 172.316275 
" clip-path="url(#p3dc64f600e)" style="fill: none; stroke: #0000ff; stroke-width: 5; stroke-linecap: square"/>
   </g>
   <g id="line2d_47">
    <path d="M 236.799071 192.772433 
L 236.799071 192.772433 
" clip-path="url(#p3dc64f600e)" style="fill: none; stroke: #0000ff; stroke-width: 5; stroke-linecap: square"/>
   </g>
   <g id="line2d_48">
    <path d="M 256.794071 172.316275 
L 260.049071 172.876742 
" clip-path="url(#p3dc64f600e)" style="fill: none; stroke: #0000ff; stroke-width: 5; stroke-linecap: square"/>
   </g>
   <g id="line2d_49">
    <path d="M 260.049071 172.876742 
L 262.839071 173.491028 
" clip-path="url(#p3dc64f600e)" style="fill: none; stroke: #0000ff; stroke-width: 5; stroke-linecap: square"/>
   </g>
   <g id="line2d_50">
    <path d="M 262.839071 173.491028 
L 264.699071 174.62549 
" clip-path="url(#p3dc64f600e)" style="fill: none; stroke: #0000ff; stroke-width: 5; stroke-linecap: square"/>
   </g>
   <g id="line2d_51">
    <path d="M 264.699071 174.62549 
L 267.489071 176.298533 
" clip-path="url(#p3dc64f600e)" style="fill: none; stroke: #0000ff; stroke-width: 5; stroke-linecap: square"/>
   </g>
   <g id="line2d_52">
    <path d="M 267.489071 176.298533 
L 270.279071 178.949719 
" clip-path="url(#p3dc64f600e)" style="fill: none; stroke: #0000ff; stroke-width: 5; stroke-linecap: square"/>
   </g>
   <g id="line2d_53">
    <path d="M 270.279071 178.949719 
L 273.534071 183.563424 
" clip-path="url(#p3dc64f600e)" style="fill: none; stroke: #0000ff; stroke-width: 5; stroke-linecap: square"/>
   </g>
   <g id="line2d_54">
    <path d="M 273.534071 183.563424 
L 278.649071 190.768978 
" clip-path="url(#p3dc64f600e)" style="fill: none; stroke: #0000ff; stroke-width: 5; stroke-linecap: square"/>
   </g>
   <g id="line2d_55">
    <path d="M 278.649071 190.768978 
L 289.344071 201.787255 
" clip-path="url(#p3dc64f600e)" style="fill: none; stroke: #0000ff; stroke-width: 5; stroke-linecap: square"/>
   </g>
   <g id="line2d_56">
    <path d="M 289.344071 201.787255 
L 298.179071 212.270709 
" clip-path="url(#p3dc64f600e)" style="fill: none; stroke: #0000ff; stroke-width: 5; stroke-linecap: square"/>
   </g>
   <g id="line2d_57">
    <path d="M 298.179071 212.270709 
L 311.199071 225.504182 
" clip-path="url(#p3dc64f600e)" style="fill: none; stroke: #0000ff; stroke-width: 5; stroke-linecap: square"/>
   </g>
   <g id="line2d_58">
    <path d="M 247.959071 178.572962 
L 236.799071 192.772433 
" clip-path="url(#p3dc64f600e)" style="fill: none; stroke: #0000ff; stroke-width: 5; stroke-linecap: square"/>
   </g>
   <g id="line2d_59">
    <path d="M 247.959071 178.572962 
L 256.794071 172.316275 
" clip-path="url(#p3dc64f600e)" style="fill: none; stroke: #0000ff; stroke-width: 5; stroke-linecap: square"/>
   </g>
   <g id="line2d_60">
    <path d="M 256.794071 172.316275 
L 260.049071 172.876742 
" clip-path="url(#p3dc64f600e)" style="fill: none; stroke: #0000ff; stroke-width: 5; stroke-linecap: square"/>
   </g>
   <g id="line2d_61">
    <path d="M 256.794071 172.316275 
L 260.049071 172.876742 
" clip-path="url(#p3dc64f600e)" style="fill: none; stroke: #0000ff; stroke-width: 5; stroke-linecap: square"/>
   </g>
   <g id="patch_3">
    <path d="M 169.839071 1116 
L 169.839071 7.2 
" style="fill: none; stroke: #000000; stroke-width: 0.8; stroke-linejoin: miter; stroke-linecap: square"/>
   </g>
   <g id="patch_4">
    <path d="M 1285.839071 1116 
L 1285.839071 7.2 
" style="fill: none; stroke: #000000; stroke-width: 0.8; stroke-linejoin: miter; stroke-linecap: square"/>
   </g>
   <g id="patch_5">
    <path d="M 169.839071 1116 
L 1285.839071 1116 
" style="fill: none; stroke: #000000; stroke-width: 0.8; stroke-linejoin: miter; stroke-linecap: square"/>
   </g>
   <g id="patch_6">
    <path d="M 169.839071 7.2 
L 1285.839071 7.2 
" style="fill: none; stroke: #000000; stroke-width: 0.8; stroke-linejoin: miter; stroke-linecap: square"/>
   </g>
   <g id="legend_1">
    <g id="patch_7">
     <path d="M 588.140654 306.080702 
L 1243.839071 306.080702 
Q 1255.839071 306.080702 1255.839071 294.080702 
L 1255.839071 49.2 
Q 1255.839071 37.2 1243.839071 37.2 
L 588.140654 37.2 
Q 576.140654 37.2 576.140654 49.2 
L 576.140654 294.080702 
Q 576.140654 306.080702 588.140654 306.080702 
z
" style="fill: #ffffff; opacity: 0.8; stroke: #cccccc; stroke-linejoin: miter"/>
    </g>
    <g id="PathCollection_59">
     <path d="M 660.140654 92.45 
C 661.46667 92.45 662.738553 91.923168 663.676188 90.985534 
C 664.613823 90.047899 665.140654 88.776016 665.140654 87.45 
C 665.140654 86.123985 664.613823 84.852101 663.676188 83.914466 
C 662.738553 82.976832 661.46667 82.45 660.140654 82.45 
C 658.814639 82.45 657.542755 82.976832 656.60512 83.914466 
C 655.667486 84.852101 655.140654 86.123985 655.140654 87.45 
C 655.140654 88.776016 655.667486 90.047899 656.60512 90.985534 
C 657.542755 91.923168 658.814639 92.45 660.140654 92.45 
L 660.140654 92.45 
z
" style="fill: none; stroke: #808080; stroke-opacity: 0.3"/>
    </g>
    <g id="text_17">
     <!-- Wave front points -->
     <g transform="translate(768.140654 103.2) scale(0.6 -0.6)">
      <defs>
       <path id="CMR17-57" d="M 5523 3775 
C 5581 3948 5677 4173 6048 4185 
L 6048 4352 
C 5939 4345 5715 4339 5600 4339 
C 5440 4339 5158 4339 5005 4352 
L 5005 4185 
C 5293 4179 5414 4019 5414 3865 
C 5414 3820 5408 3794 5382 3724 
L 4390 557 
L 3347 3890 
C 3328 3955 3322 3980 3322 4006 
C 3322 4185 3603 4185 3725 4185 
L 3725 4352 
C 3539 4339 3219 4339 3021 4339 
C 2861 4339 2573 4339 2426 4352 
L 2426 4185 
C 2720 4185 2797 4166 2861 4051 
C 2886 3993 2989 3660 2989 3640 
C 2989 3615 2976 3576 2970 3557 
L 2029 564 
L 986 3890 
C 954 3980 954 3993 954 4006 
C 954 4185 1235 4185 1363 4185 
L 1363 4352 
C 1178 4339 858 4339 659 4339 
C 493 4339 211 4339 58 4352 
L 58 4185 
C 442 4185 467 4147 531 3942 
L 1779 -20 
C 1811 -116 1811 -128 1869 -128 
C 1920 -128 1939 -116 1965 -26 
L 3053 3448 
L 4141 -26 
C 4166 -116 4186 -128 4237 -128 
C 4294 -128 4294 -116 4326 -20 
L 5523 3775 
z
" transform="scale(0.015625)"/>
       <path id="CMR17-76" d="M 2502 2173 
C 2560 2315 2662 2572 3034 2585 
L 3034 2752 
C 2912 2745 2752 2739 2630 2739 
C 2496 2739 2285 2739 2157 2752 
L 2157 2585 
C 2317 2572 2406 2495 2406 2328 
C 2406 2270 2406 2257 2368 2167 
L 1664 379 
L 902 2308 
C 864 2392 864 2405 864 2431 
C 864 2585 1075 2585 1171 2585 
L 1171 2752 
C 1018 2739 736 2739 576 2739 
C 403 2739 205 2739 64 2752 
L 64 2585 
C 307 2585 442 2585 518 2386 
L 1446 44 
C 1485 -52 1491 -64 1549 -64 
C 1606 -64 1613 -52 1651 44 
L 2502 2173 
z
" transform="scale(0.015625)"/>
       <path id="CMR17-66" d="M 979 2585 
L 1709 2585 
L 1709 2752 
L 966 2752 
L 966 3539 
C 966 4076 1235 4377 1510 4377 
C 1594 4377 1690 4363 1754 4339 
C 1702 4326 1568 4281 1568 4121 
C 1568 3955 1696 3904 1786 3904 
C 1875 3904 2003 3955 2003 4121 
C 2003 4353 1773 4480 1517 4480 
C 1152 4480 653 4211 653 3526 
L 653 2752 
L 141 2752 
L 141 2585 
L 653 2585 
L 653 441 
C 653 198 627 166 218 166 
L 218 0 
C 371 12 666 12 832 12 
C 1018 12 1344 12 1517 0 
L 1517 166 
C 1056 166 979 166 979 454 
L 979 2585 
z
" transform="scale(0.015625)"/>
       <path id="CMR17-6f" d="M 2758 1356 
C 2758 2176 2163 2816 1466 2816 
C 768 2816 173 2176 173 1356 
C 173 550 768 -64 1466 -64 
C 2163 -64 2758 550 2758 1356 
z
M 1466 51 
C 1165 51 909 230 762 480 
C 602 768 582 1126 582 1408 
C 582 1676 595 2009 762 2297 
C 890 2508 1139 2713 1466 2713 
C 1754 2713 1997 2553 2150 2329 
C 2349 2028 2349 1606 2349 1408 
C 2349 1158 2336 774 2163 467 
C 1984 172 1709 51 1466 51 
z
" transform="scale(0.015625)"/>
       <path id="CMR17-6e" d="M 2656 1954 
C 2656 2282 2592 2816 1837 2816 
C 1331 2816 1069 2424 973 2166 
L 966 2166 
L 966 2816 
L 211 2745 
L 211 2578 
C 589 2578 646 2540 646 2231 
L 646 443 
C 646 198 621 166 211 166 
L 211 0 
C 365 12 646 12 813 12 
C 979 12 1267 12 1421 0 
L 1421 166 
C 1011 166 986 192 986 443 
L 986 1678 
C 986 2269 1344 2713 1792 2713 
C 2266 2713 2317 2289 2317 1980 
L 2317 443 
C 2317 198 2291 166 1882 166 
L 1882 0 
C 2035 12 2317 12 2483 12 
C 2650 12 2938 12 3091 0 
L 3091 166 
C 2682 166 2656 192 2656 443 
L 2656 1954 
z
" transform="scale(0.015625)"/>
       <path id="CMR17-74" d="M 966 2585 
L 1862 2585 
L 1862 2752 
L 966 2752 
L 966 3968 
L 851 3968 
C 838 3292 614 2700 70 2687 
L 70 2585 
L 627 2585 
L 627 778 
C 627 655 627 -64 1370 -64 
C 1747 -64 1965 308 1965 784 
L 1965 1151 
L 1850 1151 
L 1850 790 
C 1850 347 1677 51 1408 51 
C 1222 51 966 179 966 765 
L 966 2585 
z
" transform="scale(0.015625)"/>
       <path id="CMR17-70" d="M 1408 -1114 
C 998 -1114 973 -1088 973 -834 
L 973 380 
C 1158 109 1427 -64 1766 -64 
C 2406 -64 3053 503 3053 1382 
C 3053 2196 2496 2816 1837 2816 
C 1453 2816 1139 2603 960 2345 
L 960 2816 
L 198 2745 
L 198 2577 
C 576 2577 634 2539 634 2228 
L 634 -834 
C 634 -1081 608 -1114 198 -1114 
L 198 -1280 
C 352 -1268 634 -1268 800 -1268 
C 966 -1268 1254 -1268 1408 -1280 
L 1408 -1114 
z
M 973 2015 
C 973 2106 973 2241 1222 2481 
C 1254 2506 1472 2700 1792 2700 
C 2259 2700 2643 2112 2643 1376 
C 2643 639 2234 38 1728 38 
C 1498 38 1248 148 1056 451 
C 973 594 973 632 973 736 
L 973 2015 
z
" transform="scale(0.015625)"/>
      </defs>
      <use xlink:href="#CMR17-57" transform="scale(0.996264)"/>
      <use xlink:href="#CMR17-61" transform="translate(87.289395 0) scale(0.996264)"/>
      <use xlink:href="#CMR17-76" transform="translate(130.377418 0) scale(0.996264)"/>
      <use xlink:href="#CMR17-65" transform="translate(176.06788 0) scale(0.996264)"/>
      <use xlink:href="#CMR17-66" transform="translate(246.629506 0) scale(0.996264)"/>
      <use xlink:href="#CMR17-72" transform="translate(274.103019 0) scale(0.996264)"/>
      <use xlink:href="#CMR17-6f" transform="translate(309.383787 0) scale(0.996264)"/>
      <use xlink:href="#CMR17-6e" transform="translate(355.074264 0) scale(0.996264)"/>
      <use xlink:href="#CMR17-74" transform="translate(403.36718 0) scale(0.996264)"/>
      <use xlink:href="#CMR17-70" transform="translate(468.723914 0) scale(0.996264)"/>
      <use xlink:href="#CMR17-6f" transform="translate(522.221722 0) scale(0.996264)"/>
      <use xlink:href="#CMR17-69" transform="translate(567.912199 0) scale(0.996264)"/>
      <use xlink:href="#CMR17-6e" transform="translate(592.783258 0) scale(0.996264)"/>
      <use xlink:href="#CMR17-74" transform="translate(641.076174 0) scale(0.996264)"/>
      <use xlink:href="#CMR17-73" transform="translate(676.356941 0) scale(0.996264)"/>
     </g>
    </g>
    <g id="PathCollection_60">
     <path d="M 655.140654 176.076901 
L 665.140654 176.076901 
L 665.140654 166.076901 
L 655.140654 166.076901 
L 655.140654 176.076901 
z
" style="fill: none; stroke: #808080; stroke-opacity: 0.3"/>
    </g>
    <g id="text_18">
     <!-- Wave tail points -->
     <g transform="translate(768.140654 186.826901) scale(0.6 -0.6)">
      <use xlink:href="#CMR17-57" transform="scale(0.996264)"/>
      <use xlink:href="#CMR17-61" transform="translate(87.289395 0) scale(0.996264)"/>
      <use xlink:href="#CMR17-76" transform="translate(130.377418 0) scale(0.996264)"/>
      <use xlink:href="#CMR17-65" transform="translate(176.06788 0) scale(0.996264)"/>
      <use xlink:href="#CMR17-74" transform="translate(246.629506 0) scale(0.996264)"/>
      <use xlink:href="#CMR17-61" transform="translate(281.910274 0) scale(0.996264)"/>
      <use xlink:href="#CMR17-69" transform="translate(327.600751 0) scale(0.996264)"/>
      <use xlink:href="#CMR17-6c" transform="translate(352.47181 0) scale(0.996264)"/>
      <use xlink:href="#CMR17-70" transform="translate(407.418835 0) scale(0.996264)"/>
      <use xlink:href="#CMR17-6f" transform="translate(460.916643 0) scale(0.996264)"/>
      <use xlink:href="#CMR17-69" transform="translate(506.60712 0) scale(0.996264)"/>
      <use xlink:href="#CMR17-6e" transform="translate(531.478179 0) scale(0.996264)"/>
      <use xlink:href="#CMR17-74" transform="translate(579.771095 0) scale(0.996264)"/>
      <use xlink:href="#CMR17-73" transform="translate(615.051862 0) scale(0.996264)"/>
     </g>
    </g>
    <g id="line2d_62">
     <path d="M 600.140654 249.453802 
L 660.140654 249.453802 
L 720.140654 249.453802 
" style="fill: none; stroke: #0000ff; stroke-width: 5; stroke-linecap: square"/>
    </g>
    <g id="text_19">
     <!-- Wave skeleton lines -->
     <g transform="translate(768.140654 270.453802) scale(0.6 -0.6)">
      <use xlink:href="#CMR17-57" transform="scale(0.996264)"/>
      <use xlink:href="#CMR17-61" transform="translate(87.289395 0) scale(0.996264)"/>
      <use xlink:href="#CMR17-76" transform="translate(130.377418 0) scale(0.996264)"/>
      <use xlink:href="#CMR17-65" transform="translate(176.06788 0) scale(0.996264)"/>
      <use xlink:href="#CMR17-73" transform="translate(246.629506 0) scale(0.996264)"/>
      <use xlink:href="#CMR17-6b" transform="translate(282.430844 0) scale(0.996264)"/>
      <use xlink:href="#CMR17-65" transform="translate(328.121306 0) scale(0.996264)"/>
      <use xlink:href="#CMR17-6c" transform="translate(368.606966 0) scale(0.996264)"/>
      <use xlink:href="#CMR17-65" transform="translate(393.478025 0) scale(0.996264)"/>
      <use xlink:href="#CMR17-74" transform="translate(433.963685 0) scale(0.996264)"/>
      <use xlink:href="#CMR17-6f" transform="translate(469.244453 0) scale(0.996264)"/>
      <use xlink:href="#CMR17-6e" transform="translate(514.93493 0) scale(0.996264)"/>
      <use xlink:href="#CMR17-6c" transform="translate(595.906266 0) scale(0.996264)"/>
      <use xlink:href="#CMR17-69" transform="translate(620.777325 0) scale(0.996264)"/>
      <use xlink:href="#CMR17-6e" transform="translate(645.648383 0) scale(0.996264)"/>
      <use xlink:href="#CMR17-65" transform="translate(696.543753 0) scale(0.996264)"/>
      <use xlink:href="#CMR17-73" transform="translate(737.029414 0) scale(0.996264)"/>
     </g>
    </g>
   </g>
  </g>
 </g>
 <defs>
  <clipPath id="p3dc64f600e">
   <rect x="169.839071" y="7.2" width="1116" height="1108.8"/>
  </clipPath>
 </defs>
</svg>
